SplineFontDB: 3.2
FontName: ATM481-Regular
FullName: ATM481-Regular
FamilyName: ATM 481
Weight: Book
Copyright: AzhaguThamizh
Version: 1.001
ItalicAngle: -11
UnderlinePosition: -271
UnderlineWidth: 102
Ascent: 1600
Descent: 400
InvalidEm: 0
sfntRevision: 0x00010042
LayerCount: 2
Layer: 0 1 "Back" 1
Layer: 1 1 "Fore" 0
XUID: [1021 192 2086997156 27161]
StyleMap: 0x0040
FSType: 8
OS2Version: 3
OS2_WeightWidthSlopeOnly: 0
OS2_UseTypoMetrics: 0
CreationTime: 1536984632
ModificationTime: 1545684464
PfmFamily: 17
TTFWeight: 400
TTFWidth: 5
LineGap: 0
VLineGap: 0
Panose: 2 11 6 4 2 2 2 2 2 4
OS2TypoAscent: 2000
OS2TypoAOffset: 0
OS2TypoDescent: -1320
OS2TypoDOffset: 0
OS2TypoLinegap: 0
OS2WinAscent: 2000
OS2WinAOffset: 0
OS2WinDescent: 744
OS2WinDOffset: 0
HheadAscent: 2000
HheadAOffset: 0
HheadDescent: -1320
HheadDOffset: 0
OS2SubXSize: 1400
OS2SubYSize: 1300
OS2SubXOff: 0
OS2SubYOff: 0
OS2SupXSize: 1400
OS2SupYSize: 1300
OS2SupXOff: 0
OS2SupYOff: 0
OS2StrikeYSize: 100
OS2StrikeYPos: 518
OS2CapHeight: 1586
OS2XHeight: -200
OS2Vendor: '    '
OS2CodePages: 00000001.00000000
OS2UnicodeRanges: 00100003.00000000.00000000.00000000
Lookup: 4 0 0 "'akhn' Akhand in Tamil2 lookup 0" { "'akhn' Akhand in Tamil2 lookup 0 subtable"  } ['akhn' ('tml2' <'dflt' > ) ]
Lookup: 4 0 0 "'akhn' Akhand in Tamil lookup 1" { "'akhn' Akhand in Tamil lookup 1 subtable"  } ['akhn' ('taml' <'dflt' > ) ]
Lookup: 4 0 0 "'half' Half Forms in Tamil lookup 2" { "'half' Half Forms in Tamil lookup 2 subtable"  } ['half' ('taml' <'dflt' > ) ]
Lookup: 4 0 0 "'haln' Halant Forms in Tamil2 lookup 3" { "'haln' Halant Forms in Tamil2 lookup 3 subtable"  } ['haln' ('tml2' <'dflt' > ) ]
Lookup: 4 0 0 "'haln' Halant Forms in Tamil lookup 4" { "'haln' Halant Forms in Tamil lookup 4 subtable"  } ['haln' ('taml' <'dflt' > ) ]
Lookup: 4 0 0 "'abvs' Above Base Substitutions lookup 5" { "'abvs' Above Base Substitutions lookup 5 subtable"  } ['abvs' ('taml' <'dflt' > 'tml2' <'dflt' > ) ]

StartChar: .notdef
Encoding: 65536 -1 0
Width: 1600
Flags: W
LayerCount: 2
Fore
SplineSet
100 0 m 1,0,-1
 100 1600 l 1,1,-1
 1500 1600 l 1,2,-1
 1500 0 l 1,3,-1
 100 0 l 1,0,-1
1400 100 m 1,4,-1
 1400 1500 l 1,5,-1
 200 1500 l 1,6,-1
 200 100 l 1,7,-1
 1400 100 l 1,4,-1
EndSplineSet
EndChar

StartChar: exclam
Encoding: 33 33 4
Width: 332
GlyphClass: 2
Flags: W
LayerCount: 2
Fore
SplineSet
278 48 m 256,0,1
 268 28 268 28 250 12 c 1,2,-1
 208 -10 l 2,3,4
 192 -16 192 -16 158 -20 c 0,5,6
 132 -20 132 -20 114 -10 c 0,7,8
 96 -4 96 -4 81 12 c 128,-1,9
 66 28 66 28 56 48 c 1,10,-1
 48 96 l 2,11,12
 48 120 48 120 55 140 c 128,-1,13
 62 160 62 160 79 179 c 128,-1,14
 96 198 96 198 112 205 c 128,-1,15
 128 212 128 212 158 216 c 0,16,17
 188 216 188 216 208 206 c 1,18,19
 230 200 230 200 248 182 c 128,-1,20
 266 164 266 164 278 140 c 0,21,22
 284 126 284 126 288 96 c 0,23,24
 288 68 288 68 278 48 c 256,0,1
128 726 m 1,25,-1
 112 942 l 1,26,-1
 108 1156 l 2,27,28
 108 1190 108 1190 117 1221 c 128,-1,29
 126 1252 126 1252 144 1277 c 128,-1,30
 162 1302 162 1302 184 1314 c 128,-1,31
 206 1326 206 1326 228 1326 c 0,32,33
 244 1326 244 1326 261 1315 c 128,-1,34
 278 1304 278 1304 291 1282 c 128,-1,35
 304 1260 304 1260 310 1232 c 2,36,-1
 318 1176 l 1,37,-1
 316 1138 l 1,38,-1
 310 1082 l 1,39,-1
 292 920 l 1,40,-1
 278 776 l 1,41,-1
 228 336 l 1,42,-1
 148 336 l 1,43,-1
 128 726 l 1,25,-1
EndSplineSet
EndChar

StartChar: quotedbl
Encoding: 34 34 5
Width: 732
GlyphClass: 2
Flags: W
LayerCount: 2
Fore
SplineSet
132 1172 m 1,0,-1
 128 1234 l 1,1,-1
 134 1288 l 1,2,-1
 142 1308 l 1,3,-1
 152 1324 l 1,4,-1
 166 1336 l 1,5,-1
 186 1346 l 1,6,-1
 224 1354 l 1,7,-1
 244 1352 l 1,8,-1
 264 1346 l 2,9,10
 276 1342 276 1342 280 1338 c 2,11,-1
 294 1326 l 1,12,-1
 306 1308 l 1,13,-1
 316 1290 l 1,14,-1
 324 1248 l 1,15,-1
 316 1184 l 1,16,-1
 298 1072 l 1,17,-1
 246 784 l 1,18,-1
 204 784 l 1,19,-1
 150 1072 l 1,20,-1
 132 1172 l 1,0,-1
488 1186 m 1,21,-1
 486 1210 l 1,22,-1
 486 1236 l 1,23,-1
 492 1288 l 1,24,-1
 500 1308 l 1,25,-1
 510 1324 l 1,26,-1
 524 1336 l 1,27,-1
 544 1346 l 1,28,-1
 584 1354 l 1,29,-1
 604 1352 l 1,30,-1
 622 1346 l 2,31,32
 634 1342 634 1342 638 1338 c 2,33,-1
 654 1326 l 1,34,-1
 666 1312 l 1,35,-1
 676 1292 l 1,36,-1
 682 1250 l 1,37,-1
 682 1218 l 1,38,-1
 682 1204 l 1,39,-1
 682 1192 l 2,40,41
 680 1178 680 1178 678 1174 c 2,42,-1
 678 1162 l 1,43,-1
 676 1144 l 1,44,-1
 674 1122 l 2,45,46
 672 1112 672 1112 670 1110 c 2,47,-1
 670 1096 l 1,48,-1
 666 1082 l 1,49,-1
 664 1070 l 1,50,-1
 608 784 l 1,51,-1
 562 784 l 1,52,-1
 508 1068 l 1,53,-1
 488 1186 l 1,21,-1
EndSplineSet
EndChar

StartChar: numbersign
Encoding: 35 35 6
Width: 1000
GlyphClass: 2
Flags: W
LayerCount: 2
Fore
SplineSet
90 -22 m 1,0,-1
 168 352 l 1,1,-1
 18 352 l 1,2,-1
 18 484 l 1,3,-1
 192 484 l 1,4,-1
 260 802 l 1,5,-1
 18 802 l 1,6,-1
 18 934 l 1,7,-1
 284 934 l 1,8,-1
 362 1310 l 1,9,-1
 494 1310 l 1,10,-1
 416 934 l 1,11,-1
 692 934 l 1,12,-1
 770 1310 l 1,13,-1
 902 1310 l 1,14,-1
 826 934 l 1,15,-1
 978 934 l 1,16,-1
 978 802 l 1,17,-1
 800 802 l 1,18,-1
 734 484 l 1,19,-1
 978 484 l 1,20,-1
 978 352 l 1,21,-1
 708 352 l 1,22,-1
 632 -22 l 1,23,-1
 498 -22 l 1,24,-1
 574 352 l 1,25,-1
 298 352 l 1,26,-1
 224 -22 l 1,27,-1
 90 -22 l 1,0,-1
326 484 m 1,28,-1
 602 484 l 1,29,-1
 668 802 l 1,30,-1
 390 802 l 1,31,-1
 326 484 l 1,28,-1
EndSplineSet
EndChar

StartChar: dollar
Encoding: 36 36 7
Width: 1000
GlyphClass: 2
Flags: W
LayerCount: 2
Fore
SplineSet
448 -186 m 1,0,-1
 448 -26 l 1,1,2
 394 -26 394 -26 348 -14 c 128,-1,3
 302 -2 302 -2 258 22 c 0,4,5
 190 56 190 56 126 150 c 0,6,7
 78 226 78 226 64 358 c 1,8,-1
 224 386 l 1,9,10
 238 268 238 268 288 200 c 0,11,12
 352 120 352 120 448 106 c 1,13,-1
 448 610 l 1,14,15
 420 614 420 614 399 619 c 128,-1,16
 378 624 378 624 352 636 c 0,17,18
 302 654 302 654 242 688 c 128,-1,19
 182 722 182 722 132 802 c 0,20,21
 122 824 122 824 114 846 c 128,-1,22
 106 868 106 868 101 890 c 128,-1,23
 96 912 96 912 94 926 c 128,-1,24
 92 940 92 940 92 972 c 0,25,26
 92 1134 92 1134 210 1246 c 1,27,28
 288 1312 288 1312 448 1332 c 1,29,-1
 448 1408 l 1,30,-1
 542 1408 l 1,31,-1
 542 1332 l 1,32,33
 604 1332 604 1332 658 1312 c 128,-1,34
 712 1292 712 1292 760 1250 c 0,35,36
 858 1166 858 1166 886 1014 c 1,37,-1
 722 990 l 1,38,39
 710 1078 710 1078 662 1130 c 0,40,41
 624 1176 624 1176 542 1198 c 1,42,-1
 542 742 l 1,43,44
 612 726 612 726 648 715 c 128,-1,45
 684 704 684 704 700 694 c 0,46,47
 772 666 772 666 817 620 c 128,-1,48
 862 574 862 574 889 507 c 128,-1,49
 916 440 916 440 916 368 c 0,50,51
 916 202 916 202 812 92 c 0,52,53
 762 34 762 34 692 6 c 0,54,55
 652 -10 652 -10 619 -18 c 128,-1,56
 586 -26 586 -26 542 -26 c 1,57,-1
 542 -186 l 1,58,-1
 448 -186 l 1,0,-1
448 1200 m 1,59,60
 356 1192 356 1192 302 1124 c 1,61,62
 250 1068 250 1068 250 984 c 0,63,64
 250 906 250 906 294 850 c 128,-1,65
 338 794 338 794 448 762 c 1,66,-1
 448 1200 l 1,59,60
542 106 m 1,67,68
 638 118 638 118 696 187 c 128,-1,69
 754 256 754 256 754 356 c 0,70,71
 754 404 754 404 746 432 c 128,-1,72
 738 460 738 460 712 490 c 0,73,74
 674 540 674 540 542 588 c 1,75,-1
 542 106 l 1,67,68
EndSplineSet
EndChar

StartChar: percent
Encoding: 37 37 8
Width: 1600
GlyphClass: 2
Flags: W
LayerCount: 2
Fore
SplineSet
104 980 m 0,0,1
 104 1114 104 1114 172 1214 c 1,2,3
 244 1310 244 1310 374 1310 c 0,4,5
 494 1310 494 1310 575 1222 c 128,-1,6
 656 1134 656 1134 656 970 c 0,7,8
 656 812 656 812 576 721 c 128,-1,9
 496 630 496 630 376 630 c 0,10,11
 262 630 262 630 182 716 c 0,12,13
 146 758 146 758 124 824 c 0,14,15
 116 854 116 854 110 895 c 128,-1,16
 104 936 104 936 104 980 c 0,0,1
380 1200 m 0,17,18
 322 1200 322 1200 280 1150 c 0,19,20
 242 1100 242 1100 242 962 c 0,21,22
 242 846 242 846 280 788 c 1,23,24
 320 738 320 738 380 738 c 256,25,26
 440 738 440 738 479 792 c 128,-1,27
 518 846 518 846 518 976 c 0,28,29
 518 1096 518 1096 478 1148 c 0,30,31
 442 1200 442 1200 380 1200 c 0,17,18
380 -46 m 1,32,-1
 1086 1310 l 1,33,-1
 1214 1310 l 1,34,-1
 512 -46 l 1,35,-1
 380 -46 l 1,32,-1
938 302 m 0,36,37
 938 442 938 442 1006 538 c 128,-1,38
 1074 634 1074 634 1210 634 c 0,39,40
 1328 634 1328 634 1409 548 c 128,-1,41
 1490 462 1490 462 1490 294 c 0,42,43
 1490 132 1490 132 1408 43 c 128,-1,44
 1326 -46 1326 -46 1210 -46 c 0,45,46
 1096 -46 1096 -46 1016 40 c 0,47,48
 980 78 980 78 958 148 c 0,49,50
 950 172 950 172 944 218 c 128,-1,51
 938 264 938 264 938 302 c 0,36,37
1214 526 m 256,52,53
 1154 526 1154 526 1115 475 c 128,-1,54
 1076 424 1076 424 1076 286 c 0,55,56
 1076 168 1076 168 1114 112 c 1,57,58
 1154 62 1154 62 1214 62 c 256,59,60
 1274 62 1274 62 1313 112 c 128,-1,61
 1352 162 1352 162 1352 298 c 0,62,63
 1352 368 1352 368 1343 407 c 128,-1,64
 1334 446 1334 446 1310 474 c 0,65,66
 1274 526 1274 526 1214 526 c 256,52,53
EndSplineSet
EndChar

StartChar: ampersand
Encoding: 38 38 9
Width: 1200
GlyphClass: 2
Flags: W
LayerCount: 2
Fore
SplineSet
854 152 m 1,0,1
 778 62 778 62 684 22 c 1,2,3
 594 -22 594 -22 486 -22 c 0,4,5
 286 -22 286 -22 170 112 c 0,6,7
 78 222 78 222 78 354 c 0,8,9
 78 476 78 476 155 573 c 128,-1,10
 232 670 232 670 384 740 c 1,11,12
 304 832 304 832 268 898 c 1,13,14
 240 966 240 966 240 1022 c 0,15,16
 240 1140 240 1140 329 1225 c 128,-1,17
 418 1310 418 1310 560 1310 c 0,18,19
 686 1310 686 1310 772 1230 c 128,-1,20
 858 1150 858 1150 858 1034 c 0,21,22
 858 850 858 850 616 722 c 1,23,-1
 846 426 l 1,24,25
 882 500 882 500 908 606 c 1,26,-1
 1072 570 l 1,27,28
 1032 406 1032 406 958 294 c 1,29,30
 998 240 998 240 1052 188 c 128,-1,31
 1106 136 1106 136 1160 96 c 1,32,-1
 1052 -30 l 1,33,34
 960 28 960 28 854 152 c 1,0,1
532 824 m 1,35,36
 630 878 630 878 663 926 c 128,-1,37
 696 974 696 974 696 1032 c 0,38,39
 696 1096 696 1096 655 1138 c 128,-1,40
 614 1180 614 1180 550 1180 c 0,41,42
 488 1180 488 1180 445 1138 c 128,-1,43
 402 1096 402 1096 402 1038 c 1,44,-1
 404 1010 l 2,45,46
 404 1004 404 1004 414 980 c 2,47,-1
 434 944 l 1,48,-1
 462 906 l 1,49,-1
 532 824 l 1,35,36
756 278 m 1,50,-1
 466 638 l 1,51,52
 402 598 402 598 359 563 c 128,-1,53
 316 528 316 528 294 494 c 0,54,55
 248 426 248 426 248 366 c 0,56,57
 248 288 248 288 310 202 c 128,-1,58
 372 116 372 116 488 116 c 0,59,60
 556 116 556 116 633 159 c 128,-1,61
 710 202 710 202 756 278 c 1,50,-1
EndSplineSet
EndChar

StartChar: quotesingle
Encoding: 39 39 10
Width: 426
GlyphClass: 2
Flags: W
LayerCount: 2
Fore
SplineSet
44 826 m 1,0,-1
 204 1266 l 2,1,2
 208 1280 208 1280 211 1289 c 128,-1,3
 214 1298 214 1298 222 1315 c 128,-1,4
 230 1332 230 1332 244 1346 c 0,5,6
 254 1360 254 1360 272 1368 c 2,7,-1
 304 1376 l 1,8,9
 326 1376 326 1376 344 1368 c 2,10,-1
 376 1350 l 1,11,-1
 396 1320 l 1,12,-1
 404 1286 l 1,13,-1
 398 1242 l 2,14,15
 394 1222 394 1222 384 1206 c 2,16,-1
 164 776 l 1,17,-1
 44 826 l 1,0,-1
EndSplineSet
EndChar

StartChar: parenleft
Encoding: 40 40 11
Width: 466
GlyphClass: 2
Flags: W
LayerCount: 2
Fore
SplineSet
208 -224 m 0,0,1
 154 -138 154 -138 118 -42 c 0,2,3
 100 4 100 4 87 51 c 128,-1,4
 74 98 74 98 62 156 c 0,5,6
 44 262 44 262 44 376 c 0,7,8
 44 516 44 516 63 633 c 128,-1,9
 82 750 82 750 122 862 c 128,-1,10
 162 974 162 974 221 1068 c 128,-1,11
 280 1162 280 1162 354 1236 c 1,12,-1
 444 1156 l 1,13,14
 386 1090 386 1090 338 1002 c 0,15,16
 298 924 298 924 264 826 c 0,17,18
 250 784 250 784 239 735 c 128,-1,19
 228 686 228 686 220 629 c 128,-1,20
 212 572 212 572 208 519 c 128,-1,21
 204 466 204 466 204 406 c 0,22,23
 204 298 204 298 217 201 c 128,-1,24
 230 104 230 104 259 8 c 128,-1,25
 288 -88 288 -88 328 -167 c 128,-1,26
 368 -246 368 -246 424 -330 c 1,27,-1
 334 -382 l 1,28,29
 260 -308 260 -308 208 -224 c 0,0,1
EndSplineSet
EndChar

StartChar: parenright
Encoding: 41 41 12
Width: 436
GlyphClass: 2
Flags: W
LayerCount: 2
Fore
SplineSet
46 -322 m 1,0,1
 100 -244 100 -244 138 -160 c 128,-1,2
 176 -76 176 -76 201 9 c 128,-1,3
 226 94 226 94 242 208 c 0,4,5
 248 260 248 260 252 311 c 128,-1,6
 256 362 256 362 256 416 c 0,7,8
 256 534 256 534 244 634 c 128,-1,9
 232 734 232 734 204 834 c 0,10,11
 152 1026 152 1026 46 1176 c 1,12,-1
 136 1236 l 1,13,14
 206 1168 206 1168 255 1086 c 128,-1,15
 304 1004 304 1004 342 897 c 128,-1,16
 380 790 380 790 398 673 c 128,-1,17
 416 556 416 556 416 426 c 0,18,19
 416 294 416 294 396 174 c 128,-1,20
 376 54 376 54 338 -42 c 0,21,22
 320 -96 320 -96 298 -142 c 128,-1,23
 276 -188 276 -188 244 -238 c 0,24,25
 188 -330 188 -330 116 -400 c 1,26,-1
 46 -322 l 1,0,1
EndSplineSet
EndChar

StartChar: asterisk
Encoding: 42 42 13
Width: 744
GlyphClass: 2
Flags: W
LayerCount: 2
Fore
SplineSet
350 760 m 1,0,-1
 332 732 l 1,1,-1
 306 712 l 1,2,-1
 276 706 l 1,3,4
 246 706 246 706 232 710 c 2,5,-1
 196 726 l 1,6,-1
 174 748 l 1,7,-1
 166 776 l 1,8,-1
 168 804 l 2,9,10
 168 818 168 818 172 822 c 2,11,-1
 158 818 l 1,12,-1
 126 816 l 2,13,14
 104 816 104 816 94 820 c 2,15,-1
 68 838 l 1,16,-1
 50 864 l 1,17,-1
 46 896 l 1,18,-1
 52 936 l 2,19,20
 58 954 58 954 72 968 c 2,21,-1
 100 988 l 1,22,-1
 136 996 l 1,23,-1
 356 996 l 1,24,-1
 356 796 l 1,25,-1
 350 760 l 1,0,-1
208 794 m 1,26,-1
 220 780 l 1,27,-1
 234 768 l 1,28,-1
 256 766 l 1,29,-1
 270 768 l 1,30,-1
 284 782 l 1,31,-1
 292 802 l 1,32,-1
 296 826 l 1,33,-1
 296 936 l 1,34,-1
 136 936 l 2,35,36
 124 936 124 936 114 926 c 1,37,-1
 106 896 l 1,38,39
 106 878 106 878 120 866 c 1,40,-1
 160 858 l 1,41,42
 182 858 182 858 194 862 c 2,43,-1
 222 876 l 1,44,-1
 210 836 l 1,45,-1
 206 816 l 1,46,-1
 208 794 l 1,26,-1
462 722 m 2,47,48
 446 728 446 728 429 742 c 128,-1,49
 412 756 412 756 404 770 c 1,50,-1
 396 806 l 1,51,-1
 396 996 l 1,52,-1
 626 996 l 2,53,54
 644 996 644 996 658 988 c 2,55,-1
 684 970 l 1,56,-1
 700 940 l 1,57,-1
 706 906 l 1,58,-1
 700 868 l 2,59,60
 696 848 696 848 686 838 c 2,61,-1
 664 818 l 2,62,63
 652 812 652 812 636 812 c 2,64,-1
 620 812 l 1,65,-1
 606 814 l 1,66,-1
 590 816 l 1,67,-1
 576 822 l 1,68,-1
 586 784 l 1,69,-1
 580 758 l 1,70,-1
 562 736 l 1,71,-1
 536 720 l 1,72,-1
 506 716 l 1,73,-1
 462 722 l 2,47,48
466 778 m 256,74,75
 476 766 476 766 496 766 c 2,76,-1
 514 768 l 1,77,-1
 532 780 l 1,78,-1
 542 794 l 1,79,-1
 546 816 l 1,80,81
 544 830 544 830 542 834 c 2,82,-1
 542 852 l 1,83,-1
 538 866 l 1,84,-1
 536 876 l 1,85,-1
 584 858 l 1,86,-1
 606 856 l 1,87,-1
 612 856 l 1,88,-1
 624 858 l 1,89,-1
 634 868 l 1,90,-1
 642 882 l 1,91,-1
 646 898 l 1,92,-1
 642 912 l 2,93,94
 638 922 638 922 634 924 c 2,95,-1
 622 932 l 1,96,-1
 606 936 l 1,97,-1
 456 936 l 1,98,-1
 456 816 l 2,99,100
 456 790 456 790 466 778 c 256,74,75
166 1036 m 1,101,-1
 118 1042 l 2,102,103
 98 1048 98 1048 81 1061 c 128,-1,104
 64 1074 64 1074 56 1090 c 1,105,-1
 48 1126 l 1,106,-1
 54 1162 l 2,107,108
 60 1178 60 1178 74 1192 c 2,109,-1
 104 1212 l 1,110,-1
 142 1220 l 1,111,-1
 154 1216 l 2,112,113
 170 1210 170 1210 176 1206 c 1,114,115
 174 1216 174 1216 172 1218 c 2,116,-1
 168 1232 l 1,117,-1
 166 1244 l 1,118,-1
 166 1256 l 1,119,-1
 172 1284 l 1,120,-1
 192 1306 l 1,121,-1
 220 1320 l 1,122,-1
 256 1326 l 2,123,124
 278 1326 278 1326 295 1319 c 128,-1,125
 312 1312 312 1312 326 1296 c 0,126,127
 338 1286 338 1286 348 1264 c 1,128,-1
 356 1226 l 1,129,-1
 356 1036 l 1,130,-1
 166 1036 l 1,101,-1
108 1120 m 1,131,-1
 122 1108 l 1,132,-1
 142 1098 l 1,133,-1
 166 1096 l 1,134,-1
 296 1096 l 1,135,-1
 296 1206 l 2,136,137
 296 1236 296 1236 289 1251 c 128,-1,138
 282 1266 282 1266 266 1266 c 256,139,140
 250 1266 250 1266 238 1262 c 128,-1,141
 226 1258 226 1258 222 1254 c 2,142,-1
 210 1240 l 1,143,-1
 206 1226 l 1,144,-1
 216 1166 l 1,145,-1
 194 1172 l 1,146,-1
 166 1176 l 2,147,148
 150 1176 150 1176 138 1172 c 128,-1,149
 126 1168 126 1168 122 1164 c 2,150,-1
 110 1150 l 1,151,-1
 106 1136 l 1,152,-1
 108 1120 l 1,131,-1
396 1036 m 1,153,-1
 396 1226 l 2,154,155
 396 1248 396 1248 403 1265 c 128,-1,156
 410 1282 410 1282 428 1298 c 1,157,-1
 462 1318 l 1,158,-1
 506 1326 l 1,159,-1
 540 1320 l 2,160,161
 556 1316 556 1316 570 1306 c 128,-1,162
 584 1296 584 1296 588 1284 c 2,163,-1
 596 1256 l 1,164,-1
 592 1240 l 1,165,-1
 592 1226 l 2,166,167
 590 1216 590 1216 588 1214 c 2,168,-1
 586 1206 l 1,169,-1
 620 1216 l 1,170,-1
 654 1210 l 1,171,-1
 684 1192 l 2,172,173
 698 1180 698 1180 702 1164 c 2,174,-1
 710 1132 l 1,175,176
 710 1112 710 1112 703 1096 c 128,-1,177
 696 1080 696 1080 678 1064 c 1,178,-1
 642 1042 l 1,179,-1
 600 1036 l 1,180,-1
 396 1036 l 1,153,-1
456 1096 m 1,181,-1
 604 1096 l 2,182,183
 626 1096 626 1096 634 1104 c 128,-1,184
 642 1112 642 1112 646 1136 c 0,185,186
 646 1154 646 1154 637 1163 c 128,-1,187
 628 1172 628 1172 608 1176 c 1,188,-1
 596 1176 l 1,189,-1
 582 1174 l 1,190,-1
 560 1166 l 1,191,-1
 526 1156 l 1,192,-1
 540 1188 l 1,193,-1
 546 1220 l 1,194,195
 544 1234 544 1234 542 1238 c 2,196,-1
 534 1252 l 1,197,-1
 522 1262 l 1,198,-1
 506 1266 l 1,199,200
 480 1266 480 1266 468 1256 c 128,-1,201
 456 1246 456 1246 456 1226 c 2,202,-1
 456 1096 l 1,181,-1
EndSplineSet
EndChar

StartChar: plus
Encoding: 43 43 14
Width: 718
GlyphClass: 2
Flags: W
LayerCount: 2
Fore
SplineSet
304 356 m 1,0,-1
 44 356 l 1,1,-1
 44 456 l 1,2,-1
 304 456 l 1,3,-1
 304 716 l 1,4,-1
 424 716 l 1,5,-1
 424 456 l 1,6,-1
 684 456 l 1,7,-1
 684 356 l 1,8,-1
 424 356 l 1,9,-1
 424 96 l 1,10,-1
 304 96 l 1,11,-1
 304 356 l 1,0,-1
EndSplineSet
EndChar

StartChar: comma
Encoding: 44 44 15
Width: 466
GlyphClass: 2
Flags: W
LayerCount: 2
Fore
SplineSet
164 -412 m 1,0,-1
 44 -362 l 1,1,-1
 204 76 l 2,2,3
 208 90 208 90 211 99 c 128,-1,4
 214 108 214 108 222 125 c 128,-1,5
 230 142 230 142 244 156 c 0,6,7
 254 170 254 170 272 178 c 2,8,-1
 304 186 l 1,9,10
 326 186 326 186 344 178 c 2,11,-1
 376 160 l 1,12,-1
 396 130 l 1,13,-1
 404 96 l 1,14,-1
 398 52 l 2,15,16
 394 32 394 32 384 16 c 2,17,-1
 164 -412 l 1,0,-1
EndSplineSet
EndChar

StartChar: hyphen
Encoding: 45 45 16
Width: 676
GlyphClass: 2
Flags: W
LayerCount: 2
Fore
SplineSet
44 466 m 1,0,-1
 644 466 l 1,1,-1
 644 346 l 1,2,-1
 44 346 l 1,3,-1
 44 466 l 1,0,-1
EndSplineSet
EndChar

StartChar: period
Encoding: 46 46 17
Width: 330
GlyphClass: 2
Flags: W
LayerCount: 2
Fore
SplineSet
124 -10 m 0,0,1
 98 0 98 0 80 18 c 128,-1,2
 62 36 62 36 52 56 c 1,3,-1
 44 106 l 1,4,5
 44 134 44 134 53 156 c 128,-1,6
 62 178 62 178 79 195 c 128,-1,7
 96 212 96 212 124 226 c 0,8,9
 140 232 140 232 174 236 c 0,10,11
 208 236 208 236 230 226 c 128,-1,12
 252 216 252 216 272 198 c 128,-1,13
 292 180 292 180 304 156 c 0,14,15
 310 140 310 140 314 106 c 0,16,17
 314 76 314 76 305 56 c 128,-1,18
 296 36 296 36 274 14 c 0,19,20
 254 -2 254 -2 228 -11 c 128,-1,21
 202 -20 202 -20 176 -20 c 0,22,23
 146 -20 146 -20 124 -10 c 0,0,1
EndSplineSet
EndChar

StartChar: slash
Encoding: 47 47 18
Width: 554
GlyphClass: 2
Flags: W
LayerCount: 2
Fore
SplineSet
554 1456 m 1,0,-1
 140 -24 l 1,1,-1
 0 -24 l 1,2,-1
 414 1456 l 1,3,-1
 554 1456 l 1,0,-1
EndSplineSet
EndChar

StartChar: zero
Encoding: 48 48 19
Width: 797
GlyphClass: 2
Flags: W
LayerCount: 2
Fore
SplineSet
608 84 m 1,0,1
 579 54 579 54 548 37.5 c 128,-1,2
 517 21 517 21 477 9 c 0,3,4
 452 4 452 4 441 2 c 128,-1,5
 430 0 430 0 404 0 c 0,6,7
 355 0 355 0 317 7.5 c 128,-1,8
 279 15 279 15 243 34 c 0,9,10
 204 51 204 51 174.5 75.5 c 128,-1,11
 145 100 145 100 116 138 c 0,12,13
 108 146 108 146 96 167.5 c 128,-1,14
 84 189 84 189 70 217.5 c 128,-1,15
 56 246 56 246 38 300 c 0,16,17
 28 327 28 327 23.5 355 c 128,-1,18
 19 383 19 383 15 399 c 2,19,-1
 9 507 l 1,20,21
 9 636 9 636 34.5 737.5 c 128,-1,22
 60 839 60 839 111 913 c 0,23,24
 135 947 135 947 165 974.5 c 128,-1,25
 195 1002 195 1002 230.5 1022.5 c 128,-1,26
 266 1043 266 1043 307.5 1054 c 128,-1,27
 349 1065 349 1065 381 1065 c 0,28,29
 418 1065 418 1065 456 1055.5 c 128,-1,30
 494 1046 494 1046 533 1028 c 0,31,32
 571 1007 571 1007 601 982.5 c 128,-1,33
 631 958 631 958 657 925 c 0,34,35
 704 858 704 858 732 762.5 c 128,-1,36
 760 667 760 667 760 554 c 0,37,38
 760 425 760 425 736 322 c 128,-1,39
 712 219 712 219 661 148 c 1,40,41
 638 108 638 108 608 84 c 1,0,1
438 60 m 256,42,43
 460 69 460 69 478 87 c 128,-1,44
 496 105 496 105 515 133 c 2,45,-1
 546 192 l 1,46,47
 573 258 573 258 589 352.5 c 128,-1,48
 605 447 605 447 605 546 c 0,49,50
 605 650 605 650 590.5 730.5 c 128,-1,51
 576 811 576 811 543 879 c 0,52,53
 529 911 529 911 512.5 934.5 c 128,-1,54
 496 958 496 958 473 975 c 2,55,-1
 452 990 l 1,56,-1
 431 1001 l 1,57,-1
 409 1007 l 1,58,-1
 388 1011 l 2,59,60
 369 1011 369 1011 346 1001 c 2,61,-1
 302 973 l 1,62,-1
 265 929 l 2,63,64
 256 917 256 917 254 910 c 0,65,66
 243 893 243 893 234 873 c 0,67,68
 204 803 204 803 187 714 c 0,69,70
 180 676 180 676 175.5 624.5 c 128,-1,71
 171 573 171 573 171 522 c 0,72,73
 171 418 171 418 186 335 c 128,-1,74
 201 252 201 252 236 184 c 0,75,76
 249 154 249 154 268 128 c 2,77,-1
 306 86 l 1,78,79
 329 68 329 68 351 59 c 0,80,81
 363 56 363 56 373.5 54.5 c 128,-1,82
 384 53 384 53 396 51 c 0,83,84
 416 51 416 51 438 60 c 256,42,43
EndSplineSet
EndChar

StartChar: one
Encoding: 49 49 20
Width: 612
GlyphClass: 2
Flags: W
LayerCount: 2
Fore
SplineSet
430 894 m 1,0,1
 396 885 396 885 331 845 c 0,2,3
 283 819 283 819 255 801 c 128,-1,4
 227 783 227 783 167 740 c 1,5,-1
 89 856 l 1,6,7
 186 881 186 881 299 932 c 0,8,9
 364 961 364 961 421 989.5 c 128,-1,10
 478 1018 478 1018 554 1065 c 1,11,-1
 585 1050 l 1,12,-1
 585 -2 l 1,13,-1
 430 -2 l 1,14,-1
 430 894 l 1,0,1
EndSplineSet
EndChar

StartChar: two
Encoding: 50 50 21
Width: 725
GlyphClass: 2
Flags: W
LayerCount: 2
Fore
SplineSet
-13 59 m 1,0,-1
 325 430 l 2,1,2
 364 469 364 469 398 515 c 0,3,4
 427 552 427 552 450 601 c 128,-1,5
 473 650 473 650 484 694 c 0,6,7
 488 721 488 721 492 742 c 128,-1,8
 496 763 496 763 496 786 c 0,9,10
 496 798 496 798 495 814.5 c 128,-1,11
 494 831 494 831 482.5 862 c 128,-1,12
 471 893 471 893 448 917.5 c 128,-1,13
 425 942 425 942 395.5 956.5 c 128,-1,14
 366 971 366 971 333 971 c 0,15,16
 302 971 302 971 280 959 c 1,17,18
 255 951 255 951 237 926.5 c 128,-1,19
 219 902 219 902 210 875 c 128,-1,20
 201 848 201 848 201 817 c 1,21,-1
 171 809 l 1,22,-1
 77 910 l 1,23,24
 88 944 88 944 113.5 971 c 128,-1,25
 139 998 139 998 180 1022 c 0,26,27
 214 1041 214 1041 265 1054 c 0,28,29
 289 1058 289 1058 311.5 1061.5 c 128,-1,30
 334 1065 334 1065 364 1065 c 0,31,32
 433 1065 433 1065 489 1045.5 c 128,-1,33
 545 1026 545 1026 593 987.5 c 128,-1,34
 641 949 641 949 665 898.5 c 128,-1,35
 689 848 689 848 689 794 c 0,36,37
 689 749 689 749 674 698.5 c 128,-1,38
 659 648 659 648 635 602 c 0,39,40
 605 552 605 552 568 509 c 0,41,42
 549 487 549 487 528 465 c 0,43,44
 513 450 513 450 480 423 c 2,45,-1
 178 152 l 1,46,-1
 464 152 l 1,47,-1
 481 152 l 2,48,49
 511 152 511 152 537 153 c 128,-1,50
 563 154 563 154 586 160 c 0,51,52
 636 165 636 165 674 182 c 1,53,-1
 650 -2 l 1,54,-1
 9 -2 l 1,55,-1
 -13 59 l 1,0,-1
EndSplineSet
EndChar

StartChar: three
Encoding: 51 51 22
Width: 691
GlyphClass: 2
Flags: W
LayerCount: 2
Fore
SplineSet
177 -10 m 2,0,-1
 106 0 l 2,1,2
 89 6 89 6 76 9.5 c 128,-1,3
 63 13 63 13 51 23 c 2,4,-1
 15 51 l 1,5,-1
 54 167 l 1,6,7
 94 119 94 119 150 96.5 c 128,-1,8
 206 74 206 74 279 74 c 0,9,10
 327 74 327 74 367.5 89 c 128,-1,11
 408 104 408 104 441.5 136.5 c 128,-1,12
 475 169 475 169 493 207.5 c 128,-1,13
 511 246 511 246 511 291 c 0,14,15
 511 333 511 333 496 368.5 c 128,-1,16
 481 404 481 404 453 432 c 128,-1,17
 425 460 425 460 387 476 c 128,-1,18
 349 492 349 492 310 492 c 2,19,-1
 224 492 l 1,20,-1
 232 585 l 1,21,-1
 294 585 l 2,22,23
 331 585 331 585 360 599.5 c 128,-1,24
 389 614 389 614 413.5 646 c 128,-1,25
 438 678 438 678 452 718 c 0,26,27
 458 738 458 738 461 756.5 c 128,-1,28
 464 775 464 775 464 802 c 0,29,30
 464 834 464 834 454 861 c 128,-1,31
 444 888 444 888 425.5 911 c 128,-1,32
 407 934 407 934 388.5 942.5 c 128,-1,33
 370 951 370 951 359.5 953.5 c 128,-1,34
 349 956 349 956 333 956 c 0,35,36
 308 956 308 956 284 947.5 c 128,-1,37
 260 939 260 939 254 935.5 c 128,-1,38
 248 932 248 932 227.5 918 c 128,-1,39
 207 904 207 904 184.5 878.5 c 128,-1,40
 162 853 162 853 146 825 c 1,41,-1
 93 934 l 1,42,43
 111 958 111 958 137 980.5 c 128,-1,44
 163 1003 163 1003 195 1018 c 2,45,-1
 261 1041 l 1,46,47
 294 1048 294 1048 300 1050 c 0,48,49
 323 1050 323 1050 333 1050 c 0,50,51
 387 1050 387 1050 437 1030.5 c 128,-1,52
 487 1011 487 1011 524 975.5 c 128,-1,53
 561 940 561 940 582.5 895.5 c 128,-1,54
 604 851 604 851 604 802 c 0,55,56
 604 773 604 773 602 759.5 c 128,-1,57
 600 746 600 746 591.5 714 c 128,-1,58
 583 682 583 682 561 646 c 128,-1,59
 539 610 539 610 511.5 592 c 128,-1,60
 484 574 484 574 448 561 c 1,61,62
 496 550 496 550 532 524 c 0,63,64
 569 502 569 502 600 465 c 0,65,66
 627 430 627 430 642.5 389.5 c 128,-1,67
 658 349 658 349 658 306 c 0,68,69
 658 234 658 234 631.5 175 c 128,-1,70
 605 116 605 116 549 69 c 0,71,72
 496 27 496 27 423 6 c 0,73,74
 348 -15 348 -15 263 -15 c 2,75,-1
 239 -15 l 2,76,77
 208 -15 208 -15 177 -10 c 2,0,-1
EndSplineSet
EndChar

StartChar: four
Encoding: 52 52 23
Width: 748
GlyphClass: 2
Flags: W
LayerCount: 2
Fore
SplineSet
409 -17 m 1,0,1
 420 17 420 17 427 84 c 2,2,-1
 433 214 l 1,3,-1
 433 306 l 1,4,-1
 -13 306 l 1,5,-1
 -38 346 l 1,6,-1
 480 1065 l 1,7,-1
 588 1065 l 1,8,-1
 610 1018 l 1,9,-1
 573 430 l 1,10,11
 625 430 625 430 657 437 c 0,12,13
 693 441 693 441 712 454 c 1,14,-1
 708 427 l 1,15,-1
 706 408 l 1,16,-1
 704 389 l 1,17,-1
 704 369 l 1,18,-1
 712 306 l 1,19,-1
 573 306 l 1,20,-1
 573 190 l 2,21,22
 573 142 573 142 574.5 100.5 c 128,-1,23
 576 59 576 59 582 12.5 c 128,-1,24
 588 -34 588 -34 604 -62 c 1,25,-1
 409 -17 l 1,0,1
433 430 m 1,26,-1
 448 864 l 1,27,-1
 116 430 l 1,28,-1
 433 430 l 1,26,-1
EndSplineSet
EndChar

StartChar: five
Encoding: 53 53 24
Width: 699
GlyphClass: 2
Flags: W
LayerCount: 2
Fore
SplineSet
193 -10 m 0,0,1
 161 -8 161 -8 148.5 -6 c 128,-1,2
 136 -4 136 -4 107.5 3.5 c 128,-1,3
 79 11 79 11 52.5 25 c 128,-1,4
 26 39 26 39 9 59 c 1,5,-1
 71 182 l 1,6,7
 113 131 113 131 168.5 106.5 c 128,-1,8
 224 82 224 82 287 82 c 0,9,10
 333 82 333 82 370.5 99.5 c 128,-1,11
 408 117 408 117 437 153 c 0,12,13
 452 171 452 171 461.5 188.5 c 128,-1,14
 471 206 471 206 479 228.5 c 128,-1,15
 487 251 487 251 491.5 277.5 c 128,-1,16
 496 304 496 304 496 331 c 0,17,18
 496 374 496 374 481.5 411 c 128,-1,19
 467 448 467 448 438 478 c 0,20,21
 413 505 413 505 373 522 c 128,-1,22
 333 539 333 539 296 539 c 0,23,24
 260 539 260 539 244 535 c 2,25,-1
 199 526 l 2,26,27
 180 522 180 522 163 511 c 0,28,29
 150 504 150 504 141 492 c 1,30,-1
 117 507 l 1,31,32
 131 540 131 540 138.5 603.5 c 128,-1,33
 146 667 146 667 147 710 c 128,-1,34
 148 753 148 753 148 779 c 2,35,-1
 144 939 l 2,36,37
 144 967 144 967 141 992 c 128,-1,38
 138 1017 138 1017 133 1035 c 1,39,-1
 642 1035 l 1,40,-1
 652 894 l 1,41,-1
 234 910 l 1,42,-1
 229 731 l 2,43,44
 229 699 229 699 226 670 c 128,-1,45
 223 641 223 641 218 616 c 1,46,-1
 280 626 l 1,47,-1
 357 631 l 1,48,49
 423 631 423 631 475.5 610.5 c 128,-1,50
 528 590 528 590 576 545 c 0,51,52
 619 504 619 504 643 451 c 128,-1,53
 667 398 667 398 667 336 c 0,54,55
 667 265 667 265 640 199 c 1,56,57
 610 141 610 141 556 86 c 1,58,59
 502 38 502 38 431 9 c 0,60,61
 363 -15 363 -15 287 -15 c 2,62,-1
 263 -15 l 2,63,64
 223 -15 223 -15 193 -10 c 0,0,1
EndSplineSet
EndChar

StartChar: six
Encoding: 54 54 25
Width: 731
GlyphClass: 2
Flags: W
LayerCount: 2
Fore
SplineSet
484 8 m 0,0,1
 416 -15 416 -15 333 -15 c 0,2,3
 258 -15 258 -15 197 10.5 c 128,-1,4
 136 36 136 36 85 89 c 128,-1,5
 34 142 34 142 8 210 c 0,6,7
 -19 280 -19 280 -19 351 c 0,8,9
 -19 435 -19 435 -10 513 c 0,10,11
 -4 583 -4 583 13 651 c 128,-1,12
 30 719 30 719 54.5 773 c 128,-1,13
 79 827 79 827 112.5 871 c 128,-1,14
 146 915 146 915 188.5 946 c 128,-1,15
 231 977 231 977 282.5 1000.5 c 128,-1,16
 334 1024 334 1024 398 1037 c 0,17,18
 427 1043 427 1043 455 1046.5 c 128,-1,19
 483 1050 483 1050 520 1050 c 1,20,-1
 574 949 l 1,21,-1
 532 959 l 1,22,-1
 481 965 l 1,23,24
 413 965 413 965 353 933 c 128,-1,25
 293 901 293 901 241.5 834 c 128,-1,26
 190 767 190 767 165 693 c 0,27,28
 153 650 153 650 147 612 c 128,-1,29
 141 574 141 574 141 522 c 1,30,31
 161 549 161 549 186.5 571 c 128,-1,32
 212 593 212 593 246 608.5 c 128,-1,33
 280 624 280 624 314.5 631 c 128,-1,34
 349 638 349 638 364 639 c 128,-1,35
 379 640 379 640 388 640 c 0,36,37
 450 640 450 640 505.5 616.5 c 128,-1,38
 561 593 561 593 605.5 549 c 128,-1,39
 650 505 650 505 673.5 449 c 128,-1,40
 697 393 697 393 697 331 c 0,41,42
 697 249 697 249 674.5 187 c 128,-1,43
 652 125 652 125 602 76.5 c 128,-1,44
 552 28 552 28 484 8 c 0,0,1
408 99 m 0,45,46
 442 117 442 117 470 153 c 128,-1,47
 498 189 498 189 513 232 c 0,48,49
 518 251 518 251 523 277.5 c 128,-1,50
 528 304 528 304 528 331 c 0,51,52
 528 370 528 370 514 410 c 128,-1,53
 500 450 500 450 474 477.5 c 128,-1,54
 448 505 448 505 413 522 c 128,-1,55
 378 539 378 539 342 539 c 0,56,57
 299 539 299 539 265.5 524 c 128,-1,58
 232 509 232 509 204.5 479.5 c 128,-1,59
 177 450 177 450 162.5 412 c 128,-1,60
 148 374 148 374 148 331 c 0,61,62
 148 312 148 312 149 289 c 128,-1,63
 150 266 150 266 162.5 228 c 128,-1,64
 175 190 175 190 201 154.5 c 128,-1,65
 227 119 227 119 261 99 c 0,66,67
 296 82 296 82 333 82 c 0,68,69
 376 82 376 82 408 99 c 0,45,46
EndSplineSet
EndChar

StartChar: seven
Encoding: 55 55 26
Width: 721
GlyphClass: 2
Flags: W
LayerCount: 2
Fore
SplineSet
517 910 m 1,0,-1
 -10 910 l 1,1,-1
 8 1056 l 1,2,3
 21 1050 21 1050 73 1039 c 1,4,-1
 192 1035 l 1,5,-1
 486 1050 l 1,6,-1
 554 1050 l 1,7,-1
 576 1050 l 2,8,9
 586 1050 586 1050 605 1053 c 2,10,-1
 641 1056 l 2,11,12
 658 1059 658 1059 665 1065 c 1,13,-1
 688 1035 l 1,14,-1
 145 -2 l 1,15,-1
 -10 -2 l 1,16,-1
 517 910 l 1,0,-1
EndSplineSet
EndChar

StartChar: eight
Encoding: 56 56 27
Width: 714
GlyphClass: 2
Flags: W
LayerCount: 2
Fore
SplineSet
655 186 m 0,0,1
 631 128 631 128 581.5 80 c 128,-1,2
 532 32 532 32 470.5 8.5 c 128,-1,3
 409 -15 409 -15 338 -15 c 0,4,5
 263 -15 263 -15 202.5 6 c 128,-1,6
 142 27 142 27 92 71.5 c 128,-1,7
 42 116 42 116 17 170.5 c 128,-1,8
 -8 225 -8 225 -8 291 c 0,9,10
 -8 332 -8 332 -5 347.5 c 128,-1,11
 -2 363 -2 363 7.5 399 c 128,-1,12
 17 435 17 435 43 479.5 c 128,-1,13
 69 524 69 524 101 550 c 128,-1,14
 133 576 133 576 177 593 c 1,15,16
 146 604 146 604 117 625 c 0,17,18
 96 642 96 642 76 675 c 128,-1,19
 56 708 56 708 47 743.5 c 128,-1,20
 38 779 38 779 38 817 c 0,21,22
 38 871 38 871 57 915 c 128,-1,23
 76 959 76 959 118 997 c 128,-1,24
 160 1035 160 1035 209 1054 c 128,-1,25
 258 1073 258 1073 316 1073 c 256,26,27
 374 1073 374 1073 425.5 1055 c 128,-1,28
 477 1037 477 1037 524 998 c 0,29,30
 564 963 564 963 587 916.5 c 128,-1,31
 610 870 610 870 610 817 c 0,32,33
 610 779 610 779 600 745.5 c 128,-1,34
 590 712 590 712 569.5 683.5 c 128,-1,35
 549 655 549 655 521.5 633.5 c 128,-1,36
 494 612 494 612 463 600 c 1,37,38
 509 590 509 590 549.5 562.5 c 128,-1,39
 590 535 590 535 618 496.5 c 128,-1,40
 646 458 646 458 663 408 c 0,41,42
 671 388 671 388 674.5 363 c 128,-1,43
 678 338 678 338 678 315 c 0,44,45
 678 244 678 244 655 186 c 0,0,1
254 84 m 0,46,47
 291 66 291 66 332 66 c 0,48,49
 374 66 374 66 406 82 c 128,-1,50
 438 98 438 98 467 132.5 c 128,-1,51
 496 167 496 167 510 209.5 c 128,-1,52
 524 252 524 252 524 306 c 0,53,54
 524 359 524 359 510 406.5 c 128,-1,55
 496 454 496 454 471 486 c 128,-1,56
 446 518 446 518 410 536 c 128,-1,57
 374 554 374 554 332 554 c 0,58,59
 289 554 289 554 253.5 536 c 128,-1,60
 218 518 218 518 192 483 c 0,61,62
 163 450 163 450 150 404 c 0,63,64
 144 383 144 383 141 359.5 c 128,-1,65
 138 336 138 336 138 306 c 0,66,67
 138 252 138 252 150.5 211.5 c 128,-1,68
 163 171 163 171 191 136.5 c 128,-1,69
 219 102 219 102 254 84 c 0,46,47
387 636 m 0,70,71
 411 650 411 650 433.5 678 c 128,-1,72
 456 706 456 706 467 738 c 0,73,74
 471 757 471 757 474.5 772.5 c 128,-1,75
 478 788 478 788 478 809 c 0,76,77
 478 848 478 848 468 880.5 c 128,-1,78
 458 913 458 913 437 939 c 128,-1,79
 416 965 416 965 390 980.5 c 128,-1,80
 364 996 364 996 332 996 c 256,81,82
 300 996 300 996 269 981.5 c 128,-1,83
 238 967 238 967 215.5 942.5 c 128,-1,84
 193 918 193 918 180 883 c 0,85,86
 175 866 175 866 172 847.5 c 128,-1,87
 169 829 169 829 169 809 c 0,88,89
 169 766 169 766 179 735 c 128,-1,90
 189 704 189 704 212 675 c 0,91,92
 232 654 232 654 263 636 c 1,93,94
 296 624 296 624 332 624 c 0,95,96
 364 624 364 624 387 636 c 0,70,71
EndSplineSet
EndChar

StartChar: nine
Encoding: 57 57 28
Width: 703
GlyphClass: 2
Flags: W
LayerCount: 2
Fore
SplineSet
484 86 m 0,0,1
 465 68 465 68 447.5 55 c 128,-1,2
 430 42 430 42 407 26 c 0,3,4
 366 4 366 4 317 -10 c 0,5,6
 297 -17 297 -17 276.5 -21 c 128,-1,7
 256 -25 256 -25 229 -25 c 0,8,9
 193 -25 193 -25 165.5 -18 c 128,-1,10
 138 -11 138 -11 121 0 c 1,11,-1
 74 121 l 1,12,13
 105 93 105 93 149 79.5 c 128,-1,14
 193 66 193 66 244 66 c 0,15,16
 299 66 299 66 347.5 98 c 128,-1,17
 396 130 396 130 438.5 196.5 c 128,-1,18
 481 263 481 263 501.5 343.5 c 128,-1,19
 522 424 522 424 522 515 c 1,20,21
 500 487 500 487 475 469.5 c 128,-1,22
 450 452 450 452 416 435 c 0,23,24
 404 428 404 428 382.5 422 c 128,-1,25
 361 416 361 416 351 413 c 2,26,-1
 283 407 l 1,27,28
 221 407 221 407 169 429.5 c 128,-1,29
 117 452 117 452 76 498 c 1,30,-1
 41 546 l 2,31,32
 26 573 26 573 17 602 c 2,33,-1
 4 667 l 1,34,-1
 0 740 l 2,35,36
 0 803 0 803 23 858 c 128,-1,37
 46 913 46 913 92.5 957.5 c 128,-1,38
 139 1002 139 1002 199.5 1026 c 128,-1,39
 260 1050 260 1050 331 1050 c 0,40,41
 408 1050 408 1050 469.5 1025.5 c 128,-1,42
 531 1001 531 1001 577.5 952.5 c 128,-1,43
 624 904 624 904 647.5 837 c 128,-1,44
 671 770 671 770 671 686 c 0,45,46
 671 517 671 517 640.5 391 c 128,-1,47
 610 265 610 265 549 169 c 0,48,49
 524 127 524 127 484 86 c 0,0,1
388 509 m 0,50,51
 424 524 424 524 457 558.5 c 128,-1,52
 490 593 490 593 506 634.5 c 128,-1,53
 522 676 522 676 522 725 c 0,54,55
 522 777 522 777 509 822.5 c 128,-1,56
 496 868 496 868 468.5 905 c 128,-1,57
 441 942 441 942 408.5 961 c 128,-1,58
 376 980 376 980 336 980 c 0,59,60
 297 980 297 980 264 962 c 128,-1,61
 231 944 231 944 199 904 c 0,62,63
 171 866 171 866 157.5 822.5 c 128,-1,64
 144 779 144 779 144 725 c 0,65,66
 144 676 144 676 154 635 c 0,67,68
 167 595 167 595 191 561.5 c 128,-1,69
 215 528 215 528 243.5 510 c 128,-1,70
 272 492 272 492 306 492 c 0,71,72
 351 492 351 492 388 509 c 0,50,51
EndSplineSet
EndChar

StartChar: colon
Encoding: 58 58 29
Width: 308
GlyphClass: 2
Flags: W
LayerCount: 2
Fore
SplineSet
116 84 m 0,0,1
 96 92 96 92 79 111 c 128,-1,2
 62 130 62 130 52 156 c 1,3,-1
 44 206 l 2,4,5
 44 230 44 230 52 250 c 128,-1,6
 60 270 60 270 80 289 c 128,-1,7
 100 308 100 308 120 315 c 128,-1,8
 140 322 140 322 174 326 c 0,9,10
 200 326 200 326 218 316 c 1,11,12
 238 310 238 310 257 291 c 128,-1,13
 276 272 276 272 283 254 c 128,-1,14
 290 236 290 236 294 206 c 0,15,16
 294 178 294 178 284 154 c 128,-1,17
 274 130 274 130 256 113 c 128,-1,18
 238 96 238 96 214 84 c 1,19,-1
 164 76 l 1,20,21
 138 76 138 76 116 84 c 0,0,1
284 586 m 0,22,23
 274 560 274 560 256 543 c 128,-1,24
 238 526 238 526 214 514 c 1,25,-1
 164 506 l 1,26,27
 138 506 138 506 118 513 c 128,-1,28
 98 520 98 520 80 539 c 128,-1,29
 62 558 62 558 52 578 c 1,30,-1
 44 626 l 1,31,32
 44 654 44 654 53 676 c 128,-1,33
 62 698 62 698 79 715 c 128,-1,34
 96 732 96 732 124 746 c 0,35,36
 140 752 140 752 174 756 c 0,37,38
 200 756 200 756 218 746 c 1,39,40
 238 740 238 740 257 721 c 128,-1,41
 276 702 276 702 283 684 c 128,-1,42
 290 666 290 666 294 636 c 0,43,44
 294 608 294 608 284 586 c 0,22,23
EndSplineSet
EndChar

StartChar: semicolon
Encoding: 59 59 30
Width: 466
GlyphClass: 2
Flags: W
LayerCount: 2
Fore
SplineSet
164 -412 m 1,0,-1
 44 -362 l 1,1,-1
 204 76 l 2,2,3
 208 90 208 90 211 99 c 128,-1,4
 214 108 214 108 222 125 c 128,-1,5
 230 142 230 142 244 156 c 0,6,7
 254 170 254 170 272 178 c 2,8,-1
 304 186 l 1,9,10
 326 186 326 186 344 178 c 2,11,-1
 376 160 l 1,12,-1
 396 130 l 1,13,-1
 404 96 l 1,14,-1
 398 52 l 2,15,16
 394 32 394 32 384 16 c 2,17,-1
 164 -412 l 1,0,-1
266 514 m 0,18,19
 248 520 248 520 230 539 c 128,-1,20
 212 558 212 558 202 578 c 1,21,-1
 194 626 l 1,22,23
 194 654 194 654 203 676 c 128,-1,24
 212 698 212 698 229 715 c 128,-1,25
 246 732 246 732 274 746 c 0,26,27
 290 752 290 752 324 756 c 0,28,29
 350 756 350 756 368 746 c 1,30,31
 388 740 388 740 407 721 c 128,-1,32
 426 702 426 702 433 684 c 128,-1,33
 440 666 440 666 444 636 c 0,34,35
 444 608 444 608 434 584 c 128,-1,36
 424 560 424 560 406 543 c 128,-1,37
 388 526 388 526 364 514 c 1,38,-1
 314 506 l 1,39,40
 288 506 288 506 266 514 c 0,18,19
EndSplineSet
EndChar

StartChar: less
Encoding: 60 60 31
Width: 1052
GlyphClass: 2
Flags: W
LayerCount: 2
Fore
SplineSet
98 564 m 1,0,-1
 98 710 l 1,1,-1
 952 1070 l 1,2,-1
 952 914 l 1,3,-1
 276 638 l 1,4,-1
 952 356 l 1,5,-1
 952 198 l 1,6,-1
 98 564 l 1,0,-1
EndSplineSet
EndChar

StartChar: equal
Encoding: 61 61 32
Width: 676
GlyphClass: 2
Flags: W
LayerCount: 2
Fore
SplineSet
44 216 m 1,0,-1
 44 336 l 1,1,-1
 644 336 l 1,2,-1
 644 216 l 1,3,-1
 44 216 l 1,0,-1
44 616 m 1,4,-1
 644 616 l 1,5,-1
 644 496 l 1,6,-1
 44 496 l 1,7,-1
 44 616 l 1,4,-1
EndSplineSet
EndChar

StartChar: greater
Encoding: 62 62 33
Width: 1052
GlyphClass: 2
Flags: W
LayerCount: 2
Fore
SplineSet
952 564 m 1,0,-1
 98 198 l 1,1,-1
 98 356 l 1,2,-1
 774 638 l 1,3,-1
 98 914 l 1,4,-1
 98 1070 l 1,5,-1
 952 710 l 1,6,-1
 952 564 l 1,0,-1
EndSplineSet
EndChar

StartChar: question
Encoding: 63 63 34
Width: 622
GlyphClass: 2
Flags: W
LayerCount: 2
Fore
SplineSet
374 56 m 1,0,1
 368 30 368 30 348 14 c 2,2,-1
 308 -10 l 2,3,4
 294 -16 294 -16 264 -20 c 0,5,6
 236 -20 236 -20 212 -10 c 128,-1,7
 188 0 188 0 170 18 c 128,-1,8
 152 36 152 36 142 56 c 1,9,-1
 134 106 l 1,10,11
 134 134 134 134 143 156 c 128,-1,12
 152 178 152 178 169 195 c 128,-1,13
 186 212 186 212 214 226 c 0,14,15
 230 232 230 232 264 236 c 0,16,17
 290 236 290 236 311 227 c 128,-1,18
 332 218 332 218 349 199 c 128,-1,19
 366 180 366 180 373 160 c 128,-1,20
 380 140 380 140 384 106 c 0,21,22
 384 78 384 78 374 56 c 1,0,1
244 302 m 0,23,24
 200 320 200 320 163 354 c 128,-1,25
 126 388 126 388 102 432 c 1,26,27
 84 474 84 474 84 526 c 0,28,29
 84 624 84 624 133 713 c 128,-1,30
 182 802 182 802 284 886 c 0,31,32
 346 938 346 938 375 985 c 128,-1,33
 404 1032 404 1032 404 1076 c 0,34,35
 404 1112 404 1112 394 1139 c 128,-1,36
 384 1166 384 1166 368 1186 c 128,-1,37
 352 1206 352 1206 327 1221 c 128,-1,38
 302 1236 302 1236 274 1236 c 0,39,40
 212 1236 212 1236 166 1217 c 128,-1,41
 120 1198 120 1198 84 1156 c 1,42,-1
 44 1316 l 1,43,44
 74 1340 74 1340 120 1349 c 128,-1,45
 166 1358 166 1358 202 1362 c 128,-1,46
 238 1366 238 1366 284 1366 c 0,47,48
 352 1366 352 1366 403 1345 c 128,-1,49
 454 1324 454 1324 501 1280 c 128,-1,50
 548 1236 548 1236 571 1181 c 128,-1,51
 594 1126 594 1126 594 1066 c 0,52,53
 594 974 594 974 546 889 c 128,-1,54
 498 804 498 804 394 716 c 1,55,56
 326 668 326 668 290 611 c 128,-1,57
 254 554 254 554 254 496 c 0,58,59
 254 474 254 474 263 457 c 128,-1,60
 272 440 272 440 294 424 c 1,61,-1
 338 402 l 1,62,-1
 394 396 l 1,63,-1
 414 296 l 1,64,-1
 382 288 l 1,65,-1
 344 286 l 2,66,67
 306 286 306 286 290 288 c 128,-1,68
 274 290 274 290 244 302 c 0,23,24
EndSplineSet
EndChar

StartChar: at
Encoding: 64 64 35
Width: 1074
GlyphClass: 2
Flags: W
LayerCount: 2
Fore
SplineSet
676 364 m 1,0,-1
 674 338 l 1,1,-1
 676 314 l 1,2,-1
 682 294 l 1,3,-1
 694 280 l 1,4,-1
 714 270 l 1,5,-1
 726 268 l 1,6,-1
 736 268 l 2,7,8
 764 268 764 268 789 285 c 128,-1,9
 814 302 814 302 842 340 c 1,10,11
 862 374 862 374 874 418 c 128,-1,12
 886 462 886 462 886 512 c 2,13,-1
 886 524 l 2,14,15
 886 574 886 574 882 607 c 128,-1,16
 878 640 878 640 864 676 c 0,17,18
 844 742 844 742 798 784 c 1,19,20
 758 826 758 826 707 847 c 128,-1,21
 656 868 656 868 604 868 c 2,22,-1
 566 866 l 1,23,-1
 530 860 l 2,24,25
 462 848 462 848 404 810 c 0,26,27
 346 776 346 776 290 715 c 128,-1,28
 234 654 234 654 205 581 c 128,-1,29
 176 508 176 508 176 426 c 2,30,-1
 176 414 l 2,31,32
 176 332 176 332 200 265 c 128,-1,33
 224 198 224 198 272 140 c 1,34,-1
 322 94 l 1,35,-1
 380 62 l 1,36,-1
 444 42 l 1,37,-1
 516 36 l 1,38,39
 582 36 582 36 627 46 c 128,-1,40
 672 56 672 56 714 76 c 1,41,-1
 788 120 l 2,42,43
 824 142 824 142 852 166 c 2,44,-1
 900 212 l 1,45,-1
 936 256 l 1,46,-1
 964 300 l 1,47,-1
 1024 278 l 1,48,-1
 996 228 l 2,49,50
 984 202 984 202 958 180 c 2,51,-1
 906 128 l 1,52,-1
 836 76 l 1,53,-1
 744 26 l 1,54,-1
 692 8 l 1,55,-1
 634 -6 l 1,56,-1
 570 -16 l 1,57,-1
 504 -20 l 1,58,-1
 454 -20 l 1,59,-1
 426 -16 l 1,60,-1
 402 -10 l 1,61,62
 340 0 340 0 282 27 c 128,-1,63
 224 54 224 54 169 100 c 128,-1,64
 114 146 114 146 88 221 c 128,-1,65
 62 296 62 296 62 386 c 0,66,67
 62 498 62 498 97 586 c 128,-1,68
 132 674 132 674 200 747 c 128,-1,69
 268 820 268 820 342 861 c 128,-1,70
 416 902 416 902 508 922 c 1,71,-1
 548 928 l 1,72,-1
 588 930 l 2,73,74
 652 930 652 930 713 907 c 128,-1,75
 774 884 774 884 836 834 c 0,76,77
 866 808 866 808 884 776 c 0,78,79
 906 744 906 744 919 711 c 128,-1,80
 932 678 932 678 942 620 c 1,81,-1
 950 516 l 1,82,-1
 950 506 l 2,83,84
 950 464 950 464 948 445 c 128,-1,85
 946 426 946 426 932 380 c 128,-1,86
 918 334 918 334 888 293 c 128,-1,87
 858 252 858 252 816 229 c 128,-1,88
 774 206 774 206 722 206 c 2,89,-1
 714 206 l 1,90,-1
 708 208 l 1,91,-1
 696 208 l 1,92,-1
 668 210 l 1,93,-1
 642 222 l 2,94,95
 630 228 630 228 622 238 c 2,96,-1
 608 256 l 1,97,-1
 592 288 l 1,98,-1
 590 304 l 1,99,-1
 580 288 l 2,100,101
 574 274 574 274 570 270 c 2,102,-1
 550 252 l 1,103,-1
 542 244 l 1,104,-1
 530 236 l 1,105,-1
 516 226 l 1,106,-1
 502 218 l 1,107,-1
 468 204 l 1,108,-1
 434 200 l 1,109,-1
 422 200 l 2,110,111
 388 200 388 200 363 212 c 128,-1,112
 338 224 338 224 320 252 c 0,113,114
 306 280 306 280 296 312 c 1,115,-1
 288 378 l 1,116,-1
 288 406 l 1,117,-1
 288 422 l 1,118,-1
 292 436 l 1,119,120
 298 486 298 486 313 525 c 128,-1,121
 328 564 328 564 354 602 c 128,-1,122
 380 640 380 640 414 660 c 128,-1,123
 448 680 448 680 484 680 c 1,124,-1
 510 676 l 2,125,126
 524 676 524 676 534 668 c 2,127,-1
 570 644 l 1,128,-1
 588 618 l 1,129,-1
 594 606 l 1,130,-1
 614 668 l 1,131,-1
 738 668 l 1,132,-1
 680 386 l 1,133,-1
 676 364 l 1,0,-1
574 510 m 1,134,-1
 568 546 l 1,135,-1
 552 576 l 1,136,-1
 526 594 l 1,137,-1
 496 604 l 1,138,-1
 484 602 l 1,139,-1
 474 600 l 1,140,-1
 450 588 l 1,141,-1
 430 570 l 1,142,-1
 420 548 l 1,143,-1
 406 520 l 1,144,-1
 390 474 l 1,145,-1
 380 424 l 1,146,-1
 376 406 l 1,147,-1
 376 386 l 2,148,149
 376 348 376 348 381 330 c 128,-1,150
 386 312 386 312 396 300 c 2,151,-1
 420 278 l 1,152,-1
 450 272 l 1,153,-1
 462 272 l 1,154,155
 478 276 478 276 486 282 c 2,156,-1
 512 302 l 1,157,-1
 532 328 l 1,158,-1
 546 364 l 1,159,-1
 550 384 l 1,160,-1
 560 432 l 1,161,-1
 570 480 l 1,162,-1
 574 504 l 1,163,-1
 574 510 l 1,134,-1
EndSplineSet
EndChar

StartChar: bracketleft
Encoding: 91 91 36
Width: 500
GlyphClass: 2
Flags: W
LayerCount: 2
Fore
SplineSet
122 -358 m 1,0,-1
 122 1288 l 1,1,-1
 472 1288 l 1,2,-1
 472 1158 l 1,3,-1
 280 1158 l 1,4,-1
 280 -226 l 1,5,-1
 472 -226 l 1,6,-1
 472 -358 l 1,7,-1
 122 -358 l 1,0,-1
EndSplineSet
EndChar

StartChar: backslash
Encoding: 92 92 37
Width: 500
GlyphClass: 2
Flags: W
LayerCount: 2
Fore
SplineSet
374 -22 m 1,0,-1
 0 1310 l 1,1,-1
 128 1310 l 1,2,-1
 500 -22 l 1,3,-1
 374 -22 l 1,0,-1
EndSplineSet
EndChar

StartChar: bracketright
Encoding: 93 93 38
Width: 500
GlyphClass: 2
Flags: W
LayerCount: 2
Fore
SplineSet
384 -358 m 1,0,-1
 34 -358 l 1,1,-1
 34 -226 l 1,2,-1
 224 -226 l 1,3,-1
 224 1158 l 1,4,-1
 34 1158 l 1,5,-1
 34 1288 l 1,6,-1
 384 1288 l 1,7,-1
 384 -358 l 1,0,-1
EndSplineSet
EndChar

StartChar: asciicircum
Encoding: 94 94 39
Width: 844
GlyphClass: 2
Flags: W
LayerCount: 2
Fore
SplineSet
210 606 m 1,0,-1
 46 606 l 1,1,-1
 358 1310 l 1,2,-1
 486 1310 l 1,3,-1
 798 606 l 1,4,-1
 638 606 l 1,5,-1
 422 1130 l 1,6,-1
 210 606 l 1,0,-1
EndSplineSet
EndChar

StartChar: underscore
Encoding: 95 95 40
Width: 1000
GlyphClass: 2
Flags: W
LayerCount: 2
Fore
SplineSet
-26 -358 m 1,0,-1
 -26 -242 l 1,1,-1
 1020 -242 l 1,2,-1
 1020 -358 l 1,3,-1
 -26 -358 l 1,0,-1
EndSplineSet
EndChar

StartChar: grave
Encoding: 96 96 41
Width: 346
GlyphClass: 2
Flags: W
LayerCount: 2
Fore
SplineSet
64 982 m 0,0,1
 70 1006 70 1006 80 1018 c 0,2,3
 82 1020 82 1020 88 1027 c 128,-1,4
 94 1034 94 1034 103 1041 c 128,-1,5
 112 1048 112 1048 128 1052 c 128,-1,6
 144 1056 144 1056 158 1058 c 2,7,-1
 228 1058 l 1,8,-1
 258 1052 l 1,9,-1
 280 1036 l 1,10,-1
 296 1014 l 1,11,-1
 300 988 l 1,12,-1
 294 946 l 1,13,14
 286 928 286 928 268 920 c 2,15,-1
 248 908 l 1,16,-1
 230 908 l 1,17,-1
 156 908 l 1,18,-1
 148 908 l 1,19,-1
 134 912 l 1,20,-1
 120 916 l 1,21,-1
 192 916 l 1,22,-1
 196 900 l 1,23,-1
 198 884 l 1,24,-1
 206 858 l 1,25,-1
 224 830 l 1,26,-1
 242 804 l 1,27,-1
 264 782 l 1,28,-1
 288 762 l 1,29,-1
 314 740 l 1,30,-1
 282 706 l 1,31,-1
 210 706 l 1,32,-1
 158 750 l 1,33,-1
 112 800 l 2,34,35
 108 806 108 806 94 827 c 128,-1,36
 80 848 80 848 72 868 c 2,37,-1
 62 898 l 1,38,-1
 58 934 l 2,39,40
 56 962 56 962 64 982 c 0,0,1
EndSplineSet
EndChar

StartChar: braceleft
Encoding: 123 123 42
Width: 602
GlyphClass: 2
Flags: W
LayerCount: 2
Fore
SplineSet
50 538 m 1,0,1
 120 538 120 538 158 574 c 1,2,3
 200 608 200 608 218 670 c 1,4,-1
 226 768 l 1,5,-1
 232 876 l 1,6,7
 232 1026 232 1026 237 1074 c 128,-1,8
 242 1122 242 1122 247 1140 c 128,-1,9
 252 1158 252 1158 266 1186 c 0,10,11
 288 1232 288 1232 315 1256 c 128,-1,12
 342 1280 342 1280 402 1302 c 1,13,-1
 510 1310 l 1,14,-1
 560 1310 l 1,15,-1
 560 1172 l 1,16,-1
 530 1172 l 2,17,18
 446 1172 446 1172 408 1138 c 1,19,20
 380 1104 380 1104 380 992 c 2,21,-1
 380 938 l 1,22,-1
 380 894 l 1,23,-1
 380 860 l 1,24,-1
 380 832 l 1,25,-1
 380 808 l 1,26,-1
 378 742 l 2,27,28
 378 716 378 716 370 702 c 1,29,30
 356 612 356 612 317 561 c 128,-1,31
 278 510 278 510 196 466 c 1,32,33
 296 426 296 426 336 346 c 0,34,35
 380 266 380 266 380 70 c 2,36,-1
 384 -134 l 2,37,38
 384 -188 384 -188 420 -218 c 1,39,-1
 456 -232 l 2,40,41
 474 -238 474 -238 486 -240 c 128,-1,42
 498 -242 498 -242 530 -242 c 2,43,-1
 560 -242 l 1,44,-1
 560 -378 l 1,45,-1
 510 -378 l 2,46,47
 422 -378 422 -378 386 -366 c 0,48,49
 328 -340 328 -340 296 -300 c 0,50,51
 264 -266 264 -266 242 -186 c 1,52,53
 232 -106 232 -106 232 44 c 0,54,55
 232 204 232 204 217 262 c 128,-1,56
 202 320 202 320 160 358 c 1,57,58
 112 394 112 394 50 394 c 1,59,-1
 50 538 l 1,0,1
EndSplineSet
EndChar

StartChar: bar
Encoding: 124 124 43
Width: 468
GlyphClass: 2
Flags: W
LayerCount: 2
Fore
SplineSet
166 -378 m 1,0,-1
 166 1310 l 1,1,-1
 302 1310 l 1,2,-1
 302 -378 l 1,3,-1
 166 -378 l 1,0,-1
EndSplineSet
EndChar

StartChar: braceright
Encoding: 125 125 44
Width: 602
GlyphClass: 2
Flags: W
LayerCount: 2
Fore
SplineSet
550 538 m 1,0,-1
 550 394 l 1,1,2
 486 394 486 394 441 360 c 128,-1,3
 396 326 396 326 382 260 c 1,4,-1
 372 180 l 1,5,-1
 368 56 l 1,6,-1
 368 22 l 1,7,-1
 368 -8 l 1,8,-1
 368 -30 l 1,9,-1
 368 -80 l 2,10,11
 368 -110 368 -110 364 -138 c 1,12,13
 364 -202 364 -202 332 -254 c 1,14,15
 310 -298 310 -298 280 -328 c 1,16,-1
 248 -348 l 1,17,-1
 200 -368 l 1,18,-1
 158 -376 l 1,19,-1
 90 -378 l 1,20,-1
 42 -378 l 1,21,-1
 42 -242 l 1,22,-1
 68 -242 l 2,23,24
 160 -242 160 -242 188 -206 c 1,25,26
 220 -178 220 -178 220 -60 c 2,27,-1
 222 112 l 1,28,-1
 226 220 l 1,29,30
 238 316 238 316 284 374 c 0,31,32
 326 432 326 432 404 466 c 1,33,34
 308 506 308 506 264 589 c 128,-1,35
 220 672 220 672 220 862 c 2,36,-1
 220 970 l 1,37,-1
 214 1080 l 2,38,39
 214 1120 214 1120 183 1146 c 128,-1,40
 152 1172 152 1172 68 1172 c 2,41,-1
 42 1172 l 1,42,-1
 42 1310 l 1,43,-1
 90 1310 l 2,44,45
 178 1310 178 1310 226 1292 c 0,46,47
 272 1278 272 1278 307 1234 c 128,-1,48
 342 1190 342 1190 356 1116 c 1,49,-1
 366 1024 l 1,50,-1
 368 890 l 2,51,52
 368 722 368 722 381 668 c 128,-1,53
 394 614 394 614 440 574 c 0,54,55
 448 568 448 568 461 560 c 128,-1,56
 474 552 474 552 490 548 c 2,57,-1
 518 540 l 1,58,-1
 550 538 l 1,0,-1
EndSplineSet
EndChar

StartChar: asciitilde
Encoding: 126 126 45
Width: 1052
GlyphClass: 2
Flags: W
LayerCount: 2
Fore
SplineSet
76 490 m 1,0,-1
 76 670 l 1,1,2
 170 776 170 776 320 776 c 0,3,4
 362 776 362 776 421 762 c 128,-1,5
 480 748 480 748 598 698 c 1,6,-1
 688 666 l 1,7,-1
 726 656 l 1,8,-1
 748 656 l 2,9,10
 796 656 796 656 860 690 c 0,11,12
 920 718 920 718 976 778 c 1,13,-1
 976 592 l 1,14,15
 968 584 968 584 934 558 c 128,-1,16
 900 532 900 532 864 514 c 1,17,18
 802 492 802 492 732 492 c 0,19,20
 706 492 706 492 682 492 c 1,21,22
 648 498 648 498 634 500 c 0,23,24
 592 512 592 512 484 560 c 128,-1,25
 376 608 376 608 306 608 c 0,26,27
 272 608 272 608 250 604 c 128,-1,28
 228 600 228 600 200 584 c 2,29,-1
 146 550 l 2,30,31
 112 526 112 526 76 490 c 1,0,-1
EndSplineSet
EndChar

StartChar: cent
Encoding: 162 162 46
Width: 721
GlyphClass: 2
Flags: W
LayerCount: 2
Fore
SplineSet
598 156 m 1,0,1
 537 71 537 71 467 31 c 128,-1,2
 397 -9 397 -9 304 -17 c 1,3,-1
 228 -265 l 1,4,-1
 187 -265 l 1,5,-1
 262 -17 l 1,6,7
 177 -8 177 -8 128.5 47 c 128,-1,8
 80 102 80 102 80 188 c 0,9,10
 80 345 80 345 191.5 478.5 c 128,-1,11
 303 612 303 612 457 638 c 1,12,-1
 541 917 l 1,13,-1
 580 917 l 1,14,-1
 499 638 l 1,15,16
 580 638 580 638 616.5 607 c 128,-1,17
 653 576 653 576 653 523 c 0,18,19
 653 482 653 482 631.5 455.5 c 128,-1,20
 610 429 610 429 580 429 c 0,21,22
 557 429 557 429 544 442 c 128,-1,23
 531 455 531 455 531 476 c 0,24,25
 531 491 531 491 536 502 c 128,-1,26
 541 513 541 513 560.5 534.5 c 128,-1,27
 580 556 580 556 580 570 c 0,28,29
 580 578 580 578 575 585 c 0,30,31
 565 596 565 596 549.5 601 c 128,-1,32
 534 606 534 606 489 606 c 1,33,-1
 322 49 l 1,34,-1
 352 47 l 1,35,36
 470 47 470 47 580 173 c 1,37,-1
 598 156 l 1,0,1
284 57 m 1,38,-1
 445 598 l 1,39,40
 383 570 383 570 342 533 c 0,41,42
 274 467 274 467 237 380.5 c 128,-1,43
 200 294 200 294 200 205 c 0,44,45
 200 146 200 146 224 108 c 0,46,47
 243 81 243 81 284 57 c 1,38,-1
EndSplineSet
EndChar

StartChar: multiply
Encoding: 215 215 47
Width: 975
GlyphClass: 2
Flags: W
LayerCount: 2
Fore
SplineSet
267 230 m 1,0,-1
 515 479 l 1,1,-1
 267 728 l 1,2,-1
 308 768 l 1,3,-1
 556 520 l 1,4,-1
 805 768 l 1,5,-1
 844 728 l 1,6,-1
 595 480 l 1,7,-1
 845 230 l 1,8,-1
 805 190 l 1,9,-1
 555 439 l 1,10,-1
 307 190 l 1,11,-1
 267 230 l 1,0,-1
EndSplineSet
EndChar

StartChar: divide
Encoding: 247 247 48
Width: 792
GlyphClass: 2
Flags: W
LayerCount: 2
Fore
SplineSet
418 757 m 0,0,1
 443 757 443 757 461 739 c 128,-1,2
 479 721 479 721 479 695 c 0,3,4
 479 670 479 670 461 652 c 128,-1,5
 443 634 443 634 417 634 c 0,6,7
 392 634 392 634 373.5 652 c 128,-1,8
 355 670 355 670 355 695 c 0,9,10
 355 721 355 721 373.5 739 c 128,-1,11
 392 757 392 757 418 757 c 0,0,1
797 450 m 1,12,-1
 38 450 l 1,13,-1
 38 508 l 1,14,-1
 797 508 l 1,15,-1
 797 450 l 1,12,-1
418 320 m 0,16,17
 443 320 443 320 461 301.5 c 128,-1,18
 479 283 479 283 479 257 c 0,19,20
 479 233 479 233 461 215 c 128,-1,21
 443 197 443 197 418 197 c 0,22,23
 392 197 392 197 373.5 215 c 128,-1,24
 355 233 355 233 355 257 c 0,25,26
 355 283 355 283 373.5 301.5 c 128,-1,27
 392 320 392 320 418 320 c 0,16,17
EndSplineSet
EndChar

StartChar: tm_visarga
Encoding: 2947 2947 49
Width: 1344
GlyphClass: 2
Flags: W
LayerCount: 2
Fore
SplineSet
342 18 m 0,0,1
 294 0 294 0 230 0 c 0,2,3
 198 0 198 0 179 4 c 128,-1,4
 160 8 160 8 138 18 c 2,5,-1
 100 42 l 1,6,-1
 70 78 l 2,7,8
 44 114 44 114 24 174 c 0,9,10
 18 202 18 202 14 231 c 128,-1,11
 10 260 10 260 10 296 c 0,12,13
 10 368 10 368 23 421 c 128,-1,14
 36 474 36 474 66 520 c 0,15,16
 90 558 90 558 130 582 c 128,-1,17
 170 606 170 606 220 606 c 0,18,19
 288 606 288 606 334 584 c 1,20,21
 386 566 386 566 422 524 c 128,-1,22
 458 482 458 482 479 423 c 128,-1,23
 500 364 500 364 500 296 c 0,24,25
 500 230 500 230 482 176 c 128,-1,26
 464 122 464 122 427 81 c 128,-1,27
 390 40 390 40 342 18 c 0,0,1
70 204 m 0,28,29
 78 170 78 170 100 136 c 0,30,31
 116 108 116 108 144 90 c 0,32,33
 166 80 166 80 200 76 c 0,34,35
 228 76 228 76 251 94 c 128,-1,36
 274 112 274 112 292 144 c 0,37,38
 302 162 302 162 306 173 c 128,-1,39
 310 184 310 184 319 219 c 128,-1,40
 328 254 328 254 329 274 c 128,-1,41
 330 294 330 294 330 306 c 0,42,43
 330 352 330 352 320 382 c 0,44,45
 312 418 312 418 292 447 c 128,-1,46
 272 476 272 476 248 489 c 128,-1,47
 224 502 224 502 190 506 c 0,48,49
 164 506 164 506 140 490 c 128,-1,50
 116 474 116 474 97 441 c 128,-1,51
 78 408 78 408 68 370 c 1,52,-1
 60 286 l 1,53,54
 60 240 60 240 70 204 c 0,28,29
1144 18 m 0,55,56
 1102 0 1102 0 1050 0 c 256,57,58
 998 0 998 0 956 17 c 128,-1,59
 914 34 914 34 876 78 c 0,60,61
 848 116 848 116 826 170 c 0,62,63
 818 196 818 196 814 223 c 128,-1,64
 810 250 810 250 810 286 c 0,65,66
 810 332 810 332 812 354 c 128,-1,67
 814 376 814 376 823 412 c 128,-1,68
 832 448 832 448 842 471 c 128,-1,69
 852 494 852 494 870 518 c 0,70,71
 900 560 900 560 943 583 c 128,-1,72
 986 606 986 606 1040 606 c 1,73,-1
 1090 600 l 1,74,-1
 1136 584 l 2,75,76
 1160 574 1160 574 1178 558 c 0,77,78
 1200 544 1200 544 1214 524 c 0,79,80
 1246 484 1246 484 1263 426 c 128,-1,81
 1280 368 1280 368 1280 306 c 0,82,83
 1280 256 1280 256 1278 235 c 128,-1,84
 1276 214 1276 214 1262 168 c 128,-1,85
 1248 122 1248 122 1218 80 c 128,-1,86
 1188 38 1188 38 1144 18 c 0,55,56
868 218 m 0,87,88
 878 182 878 182 896 153 c 128,-1,89
 914 124 914 124 934 111 c 128,-1,90
 954 98 954 98 980 96 c 0,91,92
 1002 96 1002 96 1021 109 c 128,-1,93
 1040 122 1040 122 1057 151 c 128,-1,94
 1074 180 1074 180 1082 214 c 1,95,-1
 1090 286 l 1,96,97
 1090 334 1090 334 1080 366 c 1,98,99
 1074 402 1074 402 1055 433 c 128,-1,100
 1036 464 1036 464 1017 478 c 128,-1,101
 998 492 998 492 970 496 c 0,102,103
 944 496 944 496 928 483 c 128,-1,104
 912 470 912 470 892 438 c 1,105,106
 878 408 878 408 868 372 c 1,107,-1
 860 296 l 1,108,109
 860 250 860 250 868 218 c 0,87,88
682 796 m 0,110,111
 636 776 636 776 580 776 c 0,112,113
 528 776 528 776 486 799 c 128,-1,114
 444 822 444 822 413 867 c 128,-1,115
 382 912 382 912 364 972 c 0,116,117
 358 1004 358 1004 354 1036 c 128,-1,118
 350 1068 350 1068 350 1106 c 0,119,120
 350 1172 350 1172 364 1222 c 128,-1,121
 378 1272 378 1272 410 1314 c 128,-1,122
 442 1356 442 1356 487 1376 c 128,-1,123
 532 1396 532 1396 580 1396 c 0,124,125
 640 1396 640 1396 682 1374 c 1,126,127
 726 1356 726 1356 760 1313 c 128,-1,128
 794 1270 794 1270 812 1214 c 128,-1,129
 830 1158 830 1158 830 1086 c 0,130,131
 830 1016 830 1016 813 960 c 128,-1,132
 796 904 796 904 763 862 c 128,-1,133
 730 820 730 820 682 796 c 0,110,111
574 880 m 256,134,135
 594 894 594 894 612 924 c 128,-1,136
 630 954 630 954 638 986 c 128,-1,137
 646 1018 646 1018 648 1032 c 128,-1,138
 650 1046 650 1046 650 1076 c 0,139,140
 650 1124 650 1124 640 1156 c 1,141,142
 634 1192 634 1192 615 1223 c 128,-1,143
 596 1254 596 1254 577 1268 c 128,-1,144
 558 1282 558 1282 530 1286 c 0,145,146
 504 1286 504 1286 480 1270 c 0,147,148
 456 1258 456 1258 438 1227 c 128,-1,149
 420 1196 420 1196 408 1160 c 1,150,-1
 400 1086 l 1,151,152
 400 1038 400 1038 408 1003 c 128,-1,153
 416 968 416 968 436 934 c 128,-1,154
 456 900 456 900 478 885 c 128,-1,155
 500 870 500 870 530 866 c 0,156,157
 554 866 554 866 574 880 c 256,134,135
EndSplineSet
EndChar

StartChar: tm_a
Encoding: 2949 2949 50
Width: 1962
GlyphClass: 2
Flags: W
LayerCount: 2
Fore
SplineSet
1530 -182 m 1,0,-1
 1530 -144 l 1,1,-1
 1560 -138 l 2,2,3
 1574 -132 1574 -132 1586 -116 c 128,-1,4
 1598 -100 1598 -100 1604 -82 c 2,5,-1
 1610 -44 l 1,6,-1
 1610 226 l 1,7,-1
 1460 226 l 1,8,9
 1418 136 1418 136 1343 61 c 128,-1,10
 1268 -14 1268 -14 1169 -65 c 128,-1,11
 1070 -116 1070 -116 942 -148 c 1,12,13
 816 -174 816 -174 690 -174 c 0,14,15
 544 -174 544 -174 422 -148 c 0,16,17
 360 -136 360 -136 307 -118 c 128,-1,18
 254 -100 254 -100 196 -72 c 0,19,20
 176 -62 176 -62 153 -48 c 128,-1,21
 130 -34 130 -34 110 -19 c 128,-1,22
 90 -4 90 -4 80 5 c 128,-1,23
 70 14 70 14 47 40 c 128,-1,24
 24 66 24 66 6 104 c 0,25,26
 -6 138 -6 138 -6 172 c 1,27,-1
 0 220 l 2,28,29
 6 240 6 240 23 258 c 128,-1,30
 40 276 40 276 58 284 c 128,-1,31
 76 292 76 292 110 296 c 1,32,-1
 1300 296 l 1,33,34
 1324 338 1324 338 1336 400 c 0,35,36
 1342 430 1342 430 1346 466 c 128,-1,37
 1350 502 1350 502 1350 546 c 0,38,39
 1350 614 1350 614 1332 673 c 128,-1,40
 1314 732 1314 732 1279 780 c 128,-1,41
 1244 828 1244 828 1202 852 c 128,-1,42
 1160 876 1160 876 1110 876 c 0,43,44
 1066 876 1066 876 1036 864 c 128,-1,45
 1006 852 1006 852 980 826 c 1,46,-1
 1020 832 l 1,47,48
 1064 832 1064 832 1100 813 c 128,-1,49
 1136 794 1136 794 1170 758 c 0,50,51
 1198 724 1198 724 1214 677 c 128,-1,52
 1230 630 1230 630 1230 576 c 0,53,54
 1230 538 1230 538 1228 522 c 128,-1,55
 1226 506 1226 506 1213 469 c 128,-1,56
 1200 432 1200 432 1166 392 c 0,57,58
 1150 374 1150 374 1135 362 c 128,-1,59
 1120 350 1120 350 1094 334 c 0,60,61
 1058 316 1058 316 1010 316 c 0,62,63
 968 316 968 316 932 334 c 128,-1,64
 896 352 896 352 868 392 c 0,65,66
 840 426 840 426 825 477 c 128,-1,67
 810 528 810 528 810 576 c 0,68,69
 810 658 810 658 830 722 c 128,-1,70
 850 786 850 786 894 840 c 128,-1,71
 938 894 938 894 999 920 c 128,-1,72
 1060 946 1060 946 1130 946 c 0,73,74
 1214 946 1214 946 1282 912 c 128,-1,75
 1350 878 1350 878 1406 808 c 0,76,77
 1462 744 1462 744 1491 656 c 128,-1,78
 1520 568 1520 568 1520 476 c 0,79,80
 1520 414 1520 414 1511 368 c 128,-1,81
 1502 322 1502 322 1480 276 c 1,82,-1
 1610 276 l 1,83,-1
 1610 726 l 1,84,-1
 1530 706 l 1,85,-1
 1530 746 l 1,86,-1
 1586 782 l 1,87,-1
 1632 818 l 1,88,-1
 1660 848 l 1,89,-1
 1670 876 l 1,90,-1
 1790 876 l 1,91,-1
 1790 -74 l 1,92,-1
 1796 -102 l 1,93,-1
 1814 -124 l 1,94,-1
 1840 -140 l 1,95,-1
 1870 -144 l 1,96,-1
 1870 -182 l 1,97,-1
 1530 -182 l 1,0,-1
394 -64 m 0,98,99
 436 -72 436 -72 488 -78 c 128,-1,100
 540 -84 540 -84 590 -84 c 0,101,102
 712 -84 712 -84 815 -64 c 128,-1,103
 918 -44 918 -44 1010 1 c 128,-1,104
 1102 46 1102 46 1168 102 c 1,105,106
 1230 160 1230 160 1280 236 c 1,107,-1
 100 236 l 2,108,109
 84 236 84 236 76 232 c 2,110,-1
 56 218 l 1,111,-1
 44 198 l 1,112,-1
 40 176 l 2,113,114
 40 158 40 158 52 132 c 128,-1,115
 64 106 64 106 88 82 c 2,116,-1
 142 36 l 1,117,-1
 212 -2 l 1,118,119
 296 -42 296 -42 394 -64 c 0,98,99
988 436 m 0,120,121
 1000 442 1000 442 1014 463 c 128,-1,122
 1028 484 1028 484 1034 512 c 2,123,-1
 1040 576 l 1,124,-1
 1034 646 l 2,125,126
 1028 676 1028 676 1016 698 c 128,-1,127
 1004 720 1004 720 988 733 c 128,-1,128
 972 746 972 746 950 746 c 0,129,130
 930 746 930 746 916 734 c 128,-1,131
 902 722 902 722 886 694 c 1,132,-1
 866 636 l 1,133,-1
 860 566 l 2,134,135
 860 526 860 526 864 506 c 2,136,-1
 882 462 l 1,137,138
 894 446 894 446 910 434 c 1,139,-1
 950 426 l 1,140,141
 972 426 972 426 988 436 c 0,120,121
EndSplineSet
EndChar

StartChar: tm_aa
Encoding: 2950 2950 51
Width: 2216
GlyphClass: 2
Flags: W
LayerCount: 2
Fore
SplineSet
1802 -470 m 0,0,1
 1748 -498 1748 -498 1677 -518 c 128,-1,2
 1606 -538 1606 -538 1528 -550 c 0,3,4
 1456 -558 1456 -558 1423 -559 c 128,-1,5
 1390 -560 1390 -560 1370 -560 c 0,6,7
 1280 -560 1280 -560 1198 -542 c 128,-1,8
 1116 -524 1116 -524 1040 -488 c 1,9,-1
 976 -452 l 1,10,-1
 930 -412 l 2,11,12
 912 -394 912 -394 903 -375 c 128,-1,13
 894 -356 894 -356 890 -330 c 0,14,15
 890 -306 890 -306 894 -292 c 2,16,-1
 912 -258 l 1,17,-1
 938 -236 l 2,18,19
 950 -230 950 -230 970 -230 c 2,20,-1
 1790 -232 l 1,21,-1
 1790 -282 l 1,22,-1
 1700 -282 l 1,23,-1
 1672 -286 l 1,24,-1
 1650 -304 l 1,25,-1
 1634 -330 l 1,26,-1
 1630 -360 l 1,27,-1
 1590 -362 l 1,28,29
 1590 -342 1590 -342 1582 -326 c 2,30,-1
 1564 -302 l 2,31,32
 1552 -290 1552 -290 1534 -284 c 2,33,-1
 1500 -280 l 1,34,-1
 1010 -282 l 1,35,-1
 982 -282 l 1,36,-1
 960 -292 l 1,37,-1
 944 -304 l 1,38,-1
 940 -320 l 2,39,40
 940 -332 940 -332 947 -348 c 128,-1,41
 954 -364 954 -364 974 -378 c 2,42,-1
 1012 -406 l 1,43,-1
 1060 -430 l 1,44,45
 1120 -454 1120 -454 1186 -466 c 0,46,47
 1220 -472 1220 -472 1253 -476 c 128,-1,48
 1286 -480 1286 -480 1320 -480 c 0,49,50
 1458 -480 1458 -480 1560 -446 c 1,51,52
 1668 -416 1668 -416 1748 -348 c 0,53,54
 1786 -318 1786 -318 1816 -281 c 128,-1,55
 1846 -244 1846 -244 1867 -199 c 128,-1,56
 1888 -154 1888 -154 1900 -100 c 0,57,58
 1906 -68 1906 -68 1908 -52 c 128,-1,59
 1910 -36 1910 -36 1910 0 c 0,60,61
 1910 46 1910 46 1902 80 c 0,62,63
 1896 120 1896 120 1880 150 c 1,64,65
 1868 182 1868 182 1850 197 c 128,-1,66
 1832 212 1832 212 1810 216 c 1,67,68
 1786 216 1786 216 1764 196 c 0,69,70
 1750 182 1750 182 1730 136 c 1,71,-1
 1730 -72 l 1,72,-1
 1736 -98 l 1,73,-1
 1754 -120 l 1,74,-1
 1780 -134 l 1,75,-1
 1810 -140 l 1,76,-1
 1810 -182 l 1,77,-1
 1470 -182 l 1,78,-1
 1470 -142 l 1,79,80
 1488 -142 1488 -142 1500 -132 c 1,81,82
 1514 -126 1514 -126 1526 -112 c 128,-1,83
 1538 -98 1538 -98 1544 -80 c 128,-1,84
 1550 -62 1550 -62 1550 -40 c 2,85,-1
 1550 226 l 1,86,-1
 1410 226 l 1,87,88
 1368 134 1368 134 1292 62 c 0,89,90
 1224 -2 1224 -2 1112 -62 c 0,91,92
 1008 -116 1008 -116 885 -143 c 128,-1,93
 762 -170 762 -170 630 -170 c 0,94,95
 484 -170 484 -170 362 -144 c 0,96,97
 300 -132 300 -132 247 -114 c 128,-1,98
 194 -96 194 -96 140 -70 c 128,-1,99
 86 -44 86 -44 50 -19 c 128,-1,100
 14 6 14 6 -12 40 c 0,101,102
 -22 52 -22 52 -33 70 c 128,-1,103
 -44 88 -44 88 -53 112 c 128,-1,104
 -62 136 -62 136 -66 172 c 0,105,106
 -66 198 -66 198 -56 218 c 0,107,108
 -50 238 -50 238 -30 258 c 2,109,-1
 6 286 l 2,110,111
 20 292 20 292 50 296 c 1,112,-1
 1240 296 l 1,113,114
 1264 338 1264 338 1276 400 c 0,115,116
 1282 430 1282 430 1286 466 c 128,-1,117
 1290 502 1290 502 1290 546 c 0,118,119
 1290 614 1290 614 1272 673 c 128,-1,120
 1254 732 1254 732 1219 780 c 128,-1,121
 1184 828 1184 828 1142 852 c 128,-1,122
 1100 876 1100 876 1050 876 c 0,123,124
 1006 876 1006 876 976 864 c 128,-1,125
 946 852 946 852 920 826 c 1,126,-1
 960 832 l 1,127,128
 1004 832 1004 832 1040 813 c 128,-1,129
 1076 794 1076 794 1110 758 c 0,130,131
 1138 724 1138 724 1154 677 c 128,-1,132
 1170 630 1170 630 1170 576 c 0,133,134
 1170 538 1170 538 1168 522 c 128,-1,135
 1166 506 1166 506 1153 469 c 128,-1,136
 1140 432 1140 432 1106 392 c 0,137,138
 1090 374 1090 374 1075 362 c 128,-1,139
 1060 350 1060 350 1034 334 c 0,140,141
 998 316 998 316 950 316 c 0,142,143
 908 316 908 316 872 334 c 128,-1,144
 836 352 836 352 808 392 c 0,145,146
 780 426 780 426 765 477 c 128,-1,147
 750 528 750 528 750 576 c 0,148,149
 750 658 750 658 770 722 c 128,-1,150
 790 786 790 786 834 840 c 128,-1,151
 878 894 878 894 939 920 c 128,-1,152
 1000 946 1000 946 1070 946 c 0,153,154
 1154 946 1154 946 1222 912 c 128,-1,155
 1290 878 1290 878 1346 808 c 0,156,157
 1402 744 1402 744 1431 656 c 128,-1,158
 1460 568 1460 568 1460 476 c 0,159,160
 1460 414 1460 414 1451 368 c 128,-1,161
 1442 322 1442 322 1420 276 c 1,162,-1
 1550 276 l 1,163,-1
 1550 706 l 1,164,-1
 1470 706 l 1,165,-1
 1470 746 l 1,166,167
 1500 750 1500 750 1529 760 c 128,-1,168
 1558 770 1558 770 1578 788 c 128,-1,169
 1598 806 1598 806 1609 828 c 128,-1,170
 1620 850 1620 850 1620 876 c 1,171,-1
 1730 876 l 1,172,-1
 1730 236 l 1,173,174
 1764 276 1764 276 1807 296 c 128,-1,175
 1850 316 1850 316 1890 316 c 0,176,177
 1938 316 1938 316 1976 294 c 128,-1,178
 2014 272 2014 272 2046 227 c 128,-1,179
 2078 182 2078 182 2094 125 c 128,-1,180
 2110 68 2110 68 2110 6 c 0,181,182
 2110 -30 2110 -30 2108 -48 c 128,-1,183
 2106 -66 2106 -66 2094 -118 c 128,-1,184
 2082 -170 2082 -170 2056 -220 c 0,185,186
 2032 -274 2032 -274 1992 -320 c 0,187,188
 1956 -366 1956 -366 1911 -402 c 128,-1,189
 1866 -438 1866 -438 1802 -470 c 0,0,1
334 -58 m 0,190,191
 432 -80 432 -80 530 -80 c 0,192,193
 656 -80 656 -80 757 -59 c 128,-1,194
 858 -38 858 -38 950 4 c 128,-1,195
 1042 46 1042 46 1108 102 c 1,196,197
 1170 160 1170 160 1220 236 c 1,198,-1
 40 236 l 2,199,200
 8 236 8 236 -2 220 c 1,201,202
 -16 206 -16 206 -16 176 c 0,203,204
 -16 160 -16 160 -12 152 c 1,205,206
 -12 140 -12 140 -4 130 c 2,207,-1
 8 106 l 2,208,209
 14 92 14 92 24 84 c 128,-1,210
 34 76 34 76 45 65 c 128,-1,211
 56 54 56 54 82 36 c 1,212,-1
 152 0 l 1,213,214
 192 -16 192 -16 233 -30 c 128,-1,215
 274 -44 274 -44 334 -58 c 0,190,191
928 436 m 0,216,217
 940 442 940 442 954 463 c 128,-1,218
 968 484 968 484 974 512 c 2,219,-1
 980 576 l 1,220,-1
 974 646 l 2,221,222
 968 676 968 676 956 698 c 128,-1,223
 944 720 944 720 928 733 c 128,-1,224
 912 746 912 746 890 746 c 0,225,226
 870 746 870 746 856 734 c 128,-1,227
 842 722 842 722 826 694 c 1,228,-1
 806 636 l 1,229,-1
 800 566 l 2,230,231
 800 526 800 526 804 506 c 2,232,-1
 822 462 l 1,233,234
 834 446 834 446 850 434 c 1,235,-1
 890 426 l 1,236,237
 912 426 912 426 928 436 c 0,216,217
EndSplineSet
EndChar

StartChar: tm_i
Encoding: 2951 2951 52
Width: 1590
GlyphClass: 2
Flags: W
LayerCount: 2
Fore
SplineSet
432 -514 m 0,0,1
 306 -540 306 -540 166 -540 c 0,2,3
 128 -540 128 -540 110 -538 c 128,-1,4
 92 -536 92 -536 62 -524 c 0,5,6
 22 -512 22 -512 -11 -484 c 128,-1,7
 -44 -456 -44 -456 -62 -418 c 128,-1,8
 -80 -380 -80 -380 -80 -330 c 0,9,10
 -80 -294 -80 -294 -77 -280 c 128,-1,11
 -74 -266 -74 -266 -61 -230 c 128,-1,12
 -48 -194 -48 -194 -14 -148 c 128,-1,13
 20 -102 20 -102 62 -64 c 0,14,15
 100 -34 100 -34 166 6 c 1,16,17
 88 120 88 120 47 261 c 128,-1,18
 6 402 6 402 6 566 c 0,19,20
 6 664 6 664 19 757 c 128,-1,21
 32 850 32 850 58 922 c 1,22,23
 82 1002 82 1002 119 1068 c 128,-1,24
 156 1134 156 1134 205 1189 c 128,-1,25
 254 1244 254 1244 315 1287 c 128,-1,26
 376 1330 376 1330 450 1358 c 128,-1,27
 524 1386 524 1386 607 1401 c 128,-1,28
 690 1416 690 1416 776 1416 c 0,29,30
 920 1416 920 1416 1037 1371 c 128,-1,31
 1154 1326 1154 1326 1258 1232 c 0,32,33
 1354 1146 1354 1146 1405 1029 c 128,-1,34
 1456 912 1456 912 1456 786 c 2,35,-1
 1456 -182 l 2,36,37
 1456 -206 1456 -206 1460 -218 c 2,38,-1
 1474 -250 l 1,39,-1
 1494 -272 l 1,40,-1
 1516 -280 l 1,41,-1
 1516 -342 l 1,42,43
 1476 -360 1476 -360 1458 -384 c 128,-1,44
 1440 -408 1440 -408 1436 -440 c 1,45,-1
 1436 -502 l 1,46,-1
 1396 -502 l 1,47,-1
 1396 656 l 2,48,49
 1396 780 1396 780 1350 889 c 128,-1,50
 1304 998 1304 998 1211 1090 c 128,-1,51
 1118 1182 1118 1182 1000 1230 c 0,52,53
 946 1252 946 1252 885 1264 c 128,-1,54
 824 1276 824 1276 756 1276 c 0,55,56
 610 1276 610 1276 488 1222 c 128,-1,57
 366 1168 366 1168 263 1060 c 128,-1,58
 160 952 160 952 108 819 c 128,-1,59
 56 686 56 686 56 536 c 256,60,61
 56 386 56 386 94 258 c 128,-1,62
 132 130 132 130 206 26 c 1,63,64
 314 90 314 90 467 123 c 128,-1,65
 620 156 620 156 806 156 c 1,66,-1
 894 150 l 2,67,68
 920 150 920 150 952 144 c 128,-1,69
 984 138 984 138 996 136 c 1,70,71
 1024 196 1024 196 1040 278 c 0,72,73
 1048 318 1048 318 1052 359 c 128,-1,74
 1056 400 1056 400 1056 456 c 0,75,76
 1056 542 1056 542 1035 609 c 128,-1,77
 1014 676 1014 676 971 734 c 128,-1,78
 928 792 928 792 873 824 c 128,-1,79
 818 856 818 856 756 856 c 0,80,81
 716 856 716 856 686 844 c 128,-1,82
 656 832 656 832 640 824 c 0,83,84
 624 812 624 812 616 806 c 2,85,-1
 640 812 l 1,86,-1
 676 816 l 1,87,88
 718 816 718 816 754 796 c 128,-1,89
 790 776 790 776 818 739 c 128,-1,90
 846 702 846 702 861 651 c 128,-1,91
 876 600 876 600 876 546 c 0,92,93
 876 508 876 508 874 491 c 128,-1,94
 872 474 872 474 859 436 c 128,-1,95
 846 398 846 398 812 354 c 0,96,97
 796 336 796 336 781 324 c 128,-1,98
 766 312 766 312 740 296 c 0,99,100
 700 276 700 276 656 276 c 0,101,102
 614 276 614 276 576 295 c 128,-1,103
 538 314 538 314 508 352 c 128,-1,104
 478 390 478 390 460 442 c 0,105,106
 454 468 454 468 450 492 c 128,-1,107
 446 516 446 516 446 546 c 0,108,109
 446 622 446 622 471 689 c 128,-1,110
 496 756 496 756 552 808 c 1,111,112
 602 862 602 862 668 889 c 128,-1,113
 734 916 734 916 806 916 c 0,114,115
 904 916 904 916 978 882 c 1,116,117
 1058 852 1058 852 1116 784 c 0,118,119
 1178 716 1178 716 1207 631 c 128,-1,120
 1236 546 1236 546 1236 436 c 0,121,122
 1236 328 1236 328 1217 243 c 128,-1,123
 1198 158 1198 158 1156 86 c 1,124,125
 1206 58 1206 58 1239 26 c 128,-1,126
 1272 -6 1272 -6 1304 -50 c 1,127,128
 1326 -90 1326 -90 1342 -136 c 0,129,130
 1348 -162 1348 -162 1352 -183 c 128,-1,131
 1356 -204 1356 -204 1356 -230 c 0,132,133
 1356 -296 1356 -296 1330 -349 c 128,-1,134
 1304 -402 1304 -402 1250 -448 c 128,-1,135
 1196 -494 1196 -494 1127 -517 c 128,-1,136
 1058 -540 1058 -540 986 -540 c 0,137,138
 880 -540 880 -540 793 -515 c 128,-1,139
 706 -490 706 -490 636 -440 c 1,140,141
 554 -490 554 -490 432 -514 c 0,0,1
-28 -390 m 256,142,143
 -14 -414 -14 -414 4 -431 c 128,-1,144
 22 -448 22 -448 54 -460 c 0,145,146
 74 -466 74 -466 116 -470 c 1,147,148
 254 -470 254 -470 356 -448 c 128,-1,149
 458 -426 458 -426 536 -380 c 1,150,151
 442 -326 442 -326 355 -240 c 128,-1,152
 268 -154 268 -154 186 -40 c 1,153,154
 132 -70 132 -70 90 -106 c 0,155,156
 72 -122 72 -122 52 -142 c 128,-1,157
 32 -162 32 -162 18 -182 c 2,158,-1
 -6 -222 l 1,159,-1
 -26 -262 l 1,160,-1
 -36 -300 l 1,161,-1
 -40 -340 l 2,162,163
 -42 -366 -42 -366 -28 -390 c 256,142,143
758 -410 m 1,164,-1
 796 -416 l 1,165,-1
 848 -418 l 1,166,-1
 916 -420 l 2,167,168
 954 -420 954 -420 970 -418 c 128,-1,169
 986 -416 986 -416 1016 -404 c 0,170,171
 1062 -390 1062 -390 1098 -359 c 128,-1,172
 1134 -328 1134 -328 1155 -286 c 128,-1,173
 1176 -244 1176 -244 1176 -200 c 0,174,175
 1176 -154 1176 -154 1157 -115 c 128,-1,176
 1138 -76 1138 -76 1096 -40 c 1,177,178
 1048 -140 1048 -140 960 -230 c 128,-1,179
 872 -320 872 -320 736 -400 c 1,180,-1
 758 -410 l 1,164,-1
396 -186 m 0,181,182
 488 -264 488 -264 616 -340 c 1,183,184
 710 -284 710 -284 789 -195 c 128,-1,185
 868 -106 868 -106 956 36 c 1,186,187
 910 64 910 64 836 80 c 0,188,189
 802 88 802 88 764 92 c 128,-1,190
 726 96 726 96 676 96 c 0,191,192
 602 96 602 96 543 90 c 128,-1,193
 484 84 484 84 424 68 c 0,194,195
 318 44 318 44 236 -10 c 1,196,197
 304 -104 304 -104 396 -186 c 0,181,182
648 370 m 0,198,199
 666 382 666 382 683 411 c 128,-1,200
 700 440 700 440 708 474 c 1,201,-1
 716 546 l 2,202,203
 716 564 716 564 716 584 c 1,204,205
 710 608 710 608 706 631 c 128,-1,206
 702 654 702 654 684 680 c 1,207,208
 670 708 670 708 651 720 c 128,-1,209
 632 732 632 732 606 736 c 0,210,211
 582 736 582 736 564 724 c 128,-1,212
 546 712 546 712 529 685 c 128,-1,213
 512 658 512 658 504 626 c 1,214,-1
 496 556 l 1,215,216
 496 510 496 510 503 477 c 128,-1,217
 510 444 510 444 527 414 c 128,-1,218
 544 384 544 384 561 372 c 128,-1,219
 578 360 578 360 606 356 c 0,220,221
 628 356 628 356 648 370 c 0,198,199
EndSplineSet
EndChar

StartChar: tm_ii
Encoding: 2952 2952 53
Width: 896
GlyphClass: 2
Flags: W
LayerCount: 2
Fore
SplineSet
-4 -2 m 1,0,-1
 -4 36 l 1,1,2
 18 40 18 40 34 50 c 2,3,-1
 66 74 l 1,4,-1
 86 108 l 1,5,-1
 94 146 l 1,6,-1
 94 676 l 1,7,-1
 34 676 l 1,8,-1
 34 726 l 1,9,10
 60 728 60 728 78 751 c 128,-1,11
 96 774 96 774 104 816 c 1,12,-1
 144 816 l 1,13,-1
 144 746 l 1,14,15
 182 790 182 790 232 813 c 128,-1,16
 282 836 282 836 344 836 c 0,17,18
 378 836 378 836 406 826 c 1,19,20
 436 820 436 820 463 801 c 128,-1,21
 490 782 490 782 510 758 c 2,22,-1
 544 706 l 1,23,24
 554 734 554 734 573 759 c 128,-1,25
 592 784 592 784 617 800 c 128,-1,26
 642 816 642 816 667 824 c 128,-1,27
 692 832 692 832 734 836 c 0,28,29
 758 836 758 836 778 829 c 128,-1,30
 798 822 798 822 817 806 c 128,-1,31
 836 790 836 790 843 773 c 128,-1,32
 850 756 850 756 854 726 c 0,33,34
 854 708 854 708 846 692 c 2,35,-1
 828 668 l 2,36,37
 816 656 816 656 798 650 c 2,38,-1
 764 646 l 2,39,40
 746 646 746 646 730 656 c 1,41,-1
 704 686 l 1,42,43
 724 686 724 686 732 694 c 128,-1,44
 740 702 740 702 744 726 c 0,45,46
 744 746 744 746 736 754 c 128,-1,47
 728 762 728 762 704 766 c 0,48,49
 682 766 682 766 656 754 c 128,-1,50
 630 742 630 742 611 717 c 128,-1,51
 592 692 592 692 582 666 c 1,52,-1
 574 606 l 1,53,-1
 574 156 l 2,54,55
 574 108 574 108 592 78 c 128,-1,56
 610 48 610 48 654 36 c 1,57,-1
 654 -2 l 1,58,-1
 294 -2 l 1,59,-1
 294 46 l 1,60,61
 314 48 314 48 334 60 c 2,62,-1
 366 84 l 1,63,-1
 386 118 l 1,64,-1
 394 156 l 1,65,-1
 394 586 l 2,66,67
 394 616 394 616 384 638 c 0,68,69
 378 660 378 660 359 683 c 128,-1,70
 340 706 340 706 322 714 c 128,-1,71
 304 722 304 722 274 726 c 1,72,73
 234 726 234 726 198 708 c 0,74,75
 166 688 166 688 144 656 c 1,76,-1
 144 136 l 1,77,-1
 146 102 l 1,78,-1
 158 74 l 1,79,-1
 172 54 l 1,80,-1
 194 46 l 1,81,-1
 194 -2 l 1,82,-1
 -4 -2 l 1,0,-1
366 360 m 0,83,84
 360 330 360 330 344 307 c 128,-1,85
 328 284 328 284 308 270 c 128,-1,86
 288 256 288 256 264 256 c 256,87,88
 240 256 240 256 222 267 c 128,-1,89
 204 278 204 278 187 303 c 128,-1,90
 170 328 170 328 162 354 c 1,91,-1
 154 416 l 1,92,93
 154 452 154 452 161 477 c 128,-1,94
 168 502 168 502 184 526 c 128,-1,95
 200 550 200 550 219 563 c 128,-1,96
 238 576 238 576 264 576 c 0,97,98
 284 576 284 576 305 565 c 128,-1,99
 326 554 326 554 342 532 c 128,-1,100
 358 510 358 510 366 482 c 2,101,-1
 374 426 l 1,102,103
 374 386 374 386 366 360 c 0,83,84
648 268 m 0,104,105
 636 278 636 278 620 306 c 1,106,-1
 600 360 l 1,107,-1
 594 426 l 1,108,-1
 600 478 l 2,109,110
 606 504 606 504 622 525 c 128,-1,111
 638 546 638 546 653 554 c 128,-1,112
 668 562 668 562 694 566 c 0,113,114
 714 566 714 566 731 555 c 128,-1,115
 748 544 748 544 762 521 c 128,-1,116
 776 498 776 498 786 466 c 1,117,-1
 794 406 l 1,118,119
 794 374 794 374 787 349 c 128,-1,120
 780 324 780 324 765 304 c 128,-1,121
 750 284 750 284 726 266 c 0,122,123
 714 260 714 260 684 256 c 0,124,125
 666 256 666 256 648 268 c 0,104,105
EndSplineSet
EndChar

StartChar: tm_u
Encoding: 2953 2953 54
Width: 2112
GlyphClass: 2
Flags: W
LayerCount: 2
Fore
SplineSet
152 -2 m 2,0,1
 120 -2 120 -2 99 5 c 128,-1,2
 78 12 78 12 55 29 c 128,-1,3
 32 46 32 46 24 61 c 128,-1,4
 16 76 16 76 12 106 c 0,5,6
 12 134 12 134 21 157 c 128,-1,7
 30 180 30 180 46 196 c 128,-1,8
 62 212 62 212 86 226 c 0,9,10
 102 232 102 232 132 236 c 1,11,-1
 392 236 l 2,12,13
 434 236 434 236 470 256 c 128,-1,14
 506 276 506 276 540 322 c 0,15,16
 566 360 566 360 586 420 c 0,17,18
 594 448 594 448 598 474 c 128,-1,19
 602 500 602 500 602 536 c 0,20,21
 602 594 602 594 583 642 c 128,-1,22
 564 690 564 690 527 732 c 128,-1,23
 490 774 490 774 442 795 c 128,-1,24
 394 816 394 816 342 816 c 0,25,26
 284 816 284 816 238 794 c 1,27,28
 194 778 194 778 150 734 c 1,29,30
 118 696 118 696 92 642 c 0,31,32
 84 622 84 622 78 593 c 128,-1,33
 72 564 72 564 72 536 c 2,34,-1
 78 474 l 2,35,36
 84 444 84 444 100 424 c 1,37,38
 112 400 112 400 132 386 c 2,39,-1
 172 366 l 1,40,-1
 142 434 l 1,41,42
 132 474 132 474 132 506 c 0,43,44
 132 558 132 558 142 590 c 128,-1,45
 152 622 152 622 177 658 c 128,-1,46
 202 694 202 694 229 708 c 128,-1,47
 256 722 256 722 292 726 c 0,48,49
 320 726 320 726 331 724 c 128,-1,50
 342 722 342 722 371 708 c 128,-1,51
 400 694 400 694 427 661 c 128,-1,52
 454 628 454 628 468 588 c 128,-1,53
 482 548 482 548 482 506 c 0,54,55
 482 454 482 454 467 416 c 128,-1,56
 452 378 452 378 421 346 c 128,-1,57
 390 314 390 314 346 292 c 0,58,59
 308 276 308 276 262 276 c 0,60,61
 214 276 214 276 170 294 c 128,-1,62
 126 312 126 312 94 351 c 128,-1,63
 62 390 62 390 46 438 c 0,64,65
 40 464 40 464 36 490 c 128,-1,66
 32 516 32 516 32 546 c 0,67,68
 32 620 32 620 58 678 c 0,69,70
 82 740 82 740 134 789 c 128,-1,71
 186 838 186 838 249 862 c 128,-1,72
 312 886 312 886 382 886 c 0,73,74
 466 886 466 886 532 860 c 0,75,76
 568 848 568 848 598 830 c 128,-1,77
 628 812 628 812 658 784 c 0,78,79
 714 738 714 738 743 673 c 128,-1,80
 772 608 772 608 772 536 c 0,81,82
 772 488 772 488 770 465 c 128,-1,83
 768 442 768 442 756 402 c 0,84,85
 742 342 742 342 708 294 c 0,86,87
 680 248 680 248 640 222 c 128,-1,88
 600 196 600 196 552 196 c 2,89,-1
 292 196 l 1,90,-1
 248 190 l 1,91,-1
 214 172 l 1,92,-1
 190 146 l 1,93,-1
 182 116 l 1,94,-1
 188 84 l 2,95,96
 194 70 194 70 210 58 c 128,-1,97
 226 46 226 46 244 40 c 1,98,-1
 282 36 l 1,99,-1
 1792 36 l 2,100,101
 1818 36 1818 36 1832 40 c 2,102,-1
 1866 58 l 2,103,104
 1882 68 1882 68 1891 83 c 128,-1,105
 1900 98 1900 98 1902 116 c 1,106,-1
 1942 116 l 1,107,-1
 1946 88 l 1,108,-1
 1962 64 l 2,109,110
 1972 50 1972 50 1984 46 c 2,111,-1
 2012 36 l 1,112,-1
 2012 -2 l 1,113,-1
 152 -2 l 2,0,1
252 384 m 0,114,115
 270 396 270 396 284 424 c 2,116,-1
 304 478 l 1,117,-1
 312 546 l 2,118,119
 312 574 312 574 308 591 c 128,-1,120
 304 608 304 608 294 624 c 0,121,122
 288 640 288 640 274 648 c 2,123,-1
 252 656 l 1,124,125
 236 656 236 656 220 644 c 1,126,-1
 194 612 l 2,127,128
 182 594 182 594 176 564 c 2,129,-1
 172 506 l 2,130,131
 172 464 172 464 181 433 c 128,-1,132
 190 402 190 402 212 366 c 1,133,134
 230 368 230 368 252 384 c 0,114,115
EndSplineSet
EndChar

StartChar: tm_uu
Encoding: 2954 2954 55
Width: 2070
GlyphClass: 2
Flags: W
LayerCount: 2
Fore
SplineSet
112 -2 m 2,0,1
 80 -2 80 -2 58 5 c 128,-1,2
 36 12 36 12 17 28 c 128,-1,3
 -2 44 -2 44 -11 60 c 128,-1,4
 -20 76 -20 76 -24 106 c 0,5,6
 -24 136 -24 136 -14 156 c 1,7,8
 -8 180 -8 180 6 196 c 128,-1,9
 20 212 20 212 44 226 c 0,10,11
 58 232 58 232 92 236 c 1,12,-1
 352 236 l 2,13,14
 394 236 394 236 430 256 c 128,-1,15
 466 276 466 276 500 322 c 0,16,17
 526 360 526 360 546 420 c 0,18,19
 554 448 554 448 558 474 c 128,-1,20
 562 500 562 500 562 536 c 0,21,22
 562 594 562 594 543 642 c 128,-1,23
 524 690 524 690 487 732 c 128,-1,24
 450 774 450 774 402 795 c 128,-1,25
 354 816 354 816 302 816 c 0,26,27
 246 816 246 816 205 796 c 128,-1,28
 164 776 164 776 124 734 c 0,29,30
 88 692 88 692 70 643 c 128,-1,31
 52 594 52 594 52 536 c 0,32,33
 52 496 52 496 56 474 c 2,34,-1
 74 422 l 2,35,36
 82 400 82 400 98 384 c 0,37,38
 114 372 114 372 132 366 c 1,39,-1
 102 434 l 1,40,41
 92 474 92 474 92 506 c 0,42,43
 92 558 92 558 102 590 c 128,-1,44
 112 622 112 622 137 658 c 128,-1,45
 162 694 162 694 189 708 c 128,-1,46
 216 722 216 722 252 726 c 0,47,48
 280 726 280 726 291 724 c 128,-1,49
 302 722 302 722 331 708 c 128,-1,50
 360 694 360 694 387 661 c 128,-1,51
 414 628 414 628 428 588 c 128,-1,52
 442 548 442 548 442 506 c 0,53,54
 442 454 442 454 426 414 c 128,-1,55
 410 374 410 374 381 344 c 128,-1,56
 352 314 352 314 312 292 c 1,57,58
 274 276 274 276 232 276 c 0,59,60
 184 276 184 276 144 294 c 128,-1,61
 104 312 104 312 74 349 c 128,-1,62
 44 386 44 386 26 438 c 0,63,64
 20 464 20 464 16 490 c 128,-1,65
 12 516 12 516 12 546 c 0,66,67
 12 618 12 618 36 677 c 128,-1,68
 60 736 60 736 109 787 c 128,-1,69
 158 838 158 838 219 862 c 128,-1,70
 280 886 280 886 342 886 c 0,71,72
 426 886 426 886 492 860 c 0,73,74
 528 848 528 848 558 830 c 128,-1,75
 588 812 588 812 618 784 c 0,76,77
 674 738 674 738 703 673 c 128,-1,78
 732 608 732 608 732 536 c 0,79,80
 732 488 732 488 730 465 c 128,-1,81
 728 442 728 442 716 402 c 0,82,83
 702 342 702 342 668 294 c 0,84,85
 640 248 640 248 600 222 c 128,-1,86
 560 196 560 196 512 196 c 2,87,-1
 252 196 l 1,88,-1
 208 190 l 1,89,-1
 174 172 l 1,90,-1
 150 146 l 1,91,-1
 142 116 l 1,92,-1
 148 84 l 2,93,94
 154 70 154 70 170 58 c 128,-1,95
 186 46 186 46 204 40 c 1,96,-1
 242 36 l 1,97,-1
 1752 36 l 2,98,99
 1778 36 1778 36 1792 40 c 2,100,-1
 1826 58 l 2,101,102
 1842 68 1842 68 1851 83 c 128,-1,103
 1860 98 1860 98 1862 116 c 1,104,-1
 1902 116 l 1,105,-1
 1906 88 l 1,106,-1
 1922 64 l 2,107,108
 1932 50 1932 50 1944 46 c 2,109,-1
 1972 36 l 1,110,-1
 1972 -2 l 1,111,-1
 112 -2 l 2,0,1
142 434 m 0,112,113
 150 402 150 402 172 366 c 1,114,115
 190 368 190 368 210 382 c 128,-1,116
 230 396 230 396 244 424 c 2,117,-1
 264 478 l 1,118,-1
 272 546 l 2,119,120
 272 574 272 574 268 591 c 128,-1,121
 264 608 264 608 254 624 c 0,122,123
 248 640 248 640 234 648 c 2,124,-1
 212 656 l 1,125,126
 196 656 196 656 180 644 c 1,127,-1
 154 612 l 2,128,129
 142 594 142 594 136 564 c 2,130,-1
 132 506 l 2,131,132
 132 464 132 464 142 434 c 0,112,113
1168 340 m 0,133,134
 1156 306 1156 306 1130 272 c 128,-1,135
 1104 238 1104 238 1072 222 c 128,-1,136
 1040 206 1040 206 1002 206 c 0,137,138
 950 206 950 206 908 229 c 128,-1,139
 866 252 866 252 835 297 c 128,-1,140
 804 342 804 342 786 402 c 0,141,142
 780 434 780 434 776 466 c 128,-1,143
 772 498 772 498 772 536 c 0,144,145
 772 614 772 614 791 674 c 128,-1,146
 810 734 810 734 849 779 c 128,-1,147
 888 824 888 824 945 850 c 128,-1,148
 1002 876 1002 876 1072 876 c 0,149,150
 1126 876 1126 876 1162 866 c 1,151,152
 1206 860 1206 860 1239 842 c 128,-1,153
 1272 824 1272 824 1296 800 c 128,-1,154
 1320 776 1320 776 1332 746 c 1,155,156
 1340 772 1340 772 1358 797 c 128,-1,157
 1376 822 1376 822 1399 839 c 128,-1,158
 1422 856 1422 856 1445 864 c 128,-1,159
 1468 872 1468 872 1502 876 c 1,160,-1
 1552 870 l 1,161,-1
 1596 852 l 1,162,-1
 1630 824 l 1,163,-1
 1652 786 l 1,164,-1
 1686 824 l 1,165,-1
 1728 852 l 1,166,-1
 1778 870 l 1,167,-1
 1832 876 l 1,168,-1
 1866 870 l 1,169,-1
 1896 852 l 1,170,-1
 1914 826 l 1,171,-1
 1922 796 l 1,172,-1
 1916 760 l 2,173,174
 1914 746 1914 746 1902 732 c 2,175,-1
 1880 712 l 2,176,177
 1868 706 1868 706 1852 706 c 2,178,-1
 1824 710 l 1,179,-1
 1802 724 l 1,180,-1
 1786 744 l 1,181,-1
 1782 766 l 2,182,183
 1782 778 1782 778 1790 788 c 128,-1,184
 1798 798 1798 798 1812 806 c 1,185,-1
 1782 816 l 1,186,187
 1762 816 1762 816 1743 807 c 128,-1,188
 1724 798 1724 798 1707 779 c 128,-1,189
 1690 760 1690 760 1680 732 c 1,190,-1
 1672 686 l 1,191,-1
 1672 316 l 2,192,193
 1672 284 1672 284 1686 268 c 128,-1,194
 1700 252 1700 252 1732 246 c 1,195,-1
 1732 216 l 1,196,-1
 1472 216 l 1,197,-1
 1472 256 l 1,198,199
 1484 256 1484 256 1494 264 c 2,200,-1
 1514 282 l 1,201,-1
 1528 308 l 1,202,-1
 1532 336 l 1,203,-1
 1532 716 l 1,204,-1
 1526 746 l 1,205,-1
 1508 772 l 1,206,-1
 1482 790 l 1,207,-1
 1452 796 l 2,208,209
 1432 796 1432 796 1420 786 c 0,210,211
 1408 780 1408 780 1395 760 c 128,-1,212
 1382 740 1382 740 1376 720 c 1,213,-1
 1372 676 l 1,214,-1
 1372 326 l 2,215,216
 1372 294 1372 294 1386 278 c 128,-1,217
 1400 262 1400 262 1432 256 c 1,218,-1
 1432 216 l 1,219,-1
 1172 216 l 1,220,-1
 1172 256 l 1,221,222
 1184 256 1184 256 1194 264 c 2,223,-1
 1214 282 l 1,224,-1
 1228 308 l 1,225,-1
 1232 336 l 1,226,-1
 1232 636 l 2,227,228
 1232 662 1232 662 1229 674 c 128,-1,229
 1226 686 1226 686 1216 709 c 128,-1,230
 1206 732 1206 732 1174 764 c 1,231,232
 1146 786 1146 786 1108 801 c 128,-1,233
 1070 816 1070 816 1032 816 c 0,234,235
 984 816 984 816 947 795 c 128,-1,236
 910 774 910 774 877 730 c 128,-1,237
 844 686 844 686 828 636 c 0,238,239
 820 610 820 610 816 586 c 128,-1,240
 812 562 812 562 812 526 c 2,241,-1
 818 438 l 2,242,243
 824 396 824 396 838 364 c 2,244,-1
 868 308 l 1,245,246
 886 288 886 288 912 276 c 1,247,248
 888 308 888 308 875 345 c 128,-1,249
 862 382 862 382 862 426 c 0,250,251
 862 472 862 472 874 507 c 128,-1,252
 886 542 886 542 907 569 c 128,-1,253
 928 596 928 596 954 611 c 128,-1,254
 980 626 980 626 1012 626 c 0,255,256
 1052 626 1052 626 1078 610 c 1,257,258
 1110 598 1110 598 1133 567 c 128,-1,259
 1156 536 1156 536 1168 500 c 0,260,261
 1174 482 1174 482 1178 465 c 128,-1,262
 1182 448 1182 448 1182 426 c 0,263,264
 1182 380 1182 380 1168 340 c 0,133,134
990 280 m 0,265,266
 1000 290 1000 290 1012 318 c 1,267,-1
 1026 372 l 1,268,-1
 1032 436 l 2,269,270
 1032 466 1032 466 1028 480 c 0,271,272
 1026 500 1026 500 1014 520 c 1,273,274
 1008 538 1008 538 994 546 c 0,275,276
 988 554 988 554 972 556 c 0,277,278
 960 556 960 556 947 549 c 128,-1,279
 934 542 934 542 922 520 c 2,280,-1
 906 480 l 1,281,-1
 902 436 l 1,282,283
 902 380 902 380 917 337 c 128,-1,284
 932 294 932 294 962 266 c 1,285,286
 976 266 976 266 990 280 c 0,265,266
EndSplineSet
EndChar

StartChar: tm_e
Encoding: 2958 2958 56
Width: 1230
GlyphClass: 2
Flags: W
LayerCount: 2
Fore
SplineSet
642 4 m 1,0,-1
 642 44 l 1,1,2
 658 44 658 44 671 51 c 128,-1,3
 684 58 684 58 698 78 c 1,4,-1
 716 116 l 1,5,-1
 722 164 l 1,6,-1
 722 504 l 2,7,8
 722 554 722 554 699 598 c 128,-1,9
 676 642 676 642 626 681 c 128,-1,10
 576 720 576 720 519 737 c 128,-1,11
 462 754 462 754 392 754 c 0,12,13
 312 754 312 754 251 728 c 128,-1,14
 190 702 190 702 146 654 c 128,-1,15
 102 606 102 606 74 534 c 1,16,17
 52 464 52 464 52 384 c 0,18,19
 52 324 52 324 63 277 c 128,-1,20
 74 230 74 230 95 191 c 128,-1,21
 116 152 116 152 144 122 c 1,22,23
 172 100 172 100 212 84 c 1,24,25
 184 112 184 112 166 160 c 0,26,27
 160 182 160 182 156 208 c 128,-1,28
 152 234 152 234 152 264 c 0,29,30
 152 314 152 314 165 356 c 128,-1,31
 178 398 178 398 205 431 c 128,-1,32
 232 464 232 464 268 484 c 128,-1,33
 304 504 304 504 342 504 c 256,34,35
 380 504 380 504 417 487 c 128,-1,36
 454 470 454 470 482 436 c 1,37,38
 512 408 512 408 526 362 c 0,39,40
 542 320 542 320 542 274 c 256,41,42
 542 228 542 228 540 209 c 128,-1,43
 538 190 538 190 524 147 c 128,-1,44
 510 104 510 104 479 67 c 128,-1,45
 448 30 448 30 400 6 c 0,46,47
 358 -12 358 -12 302 -12 c 0,48,49
 240 -12 240 -12 188 16 c 128,-1,50
 136 44 136 44 90 100 c 1,51,52
 48 158 48 158 25 227 c 128,-1,53
 2 296 2 296 2 374 c 0,54,55
 2 488 2 488 33 571 c 128,-1,56
 64 654 64 654 132 720 c 0,57,58
 196 778 196 778 291 811 c 128,-1,59
 386 844 386 844 502 844 c 0,60,61
 570 844 570 844 616 834 c 0,62,63
 670 826 670 826 718 804 c 0,64,65
 758 788 758 788 800 756 c 0,66,67
 836 730 836 730 862 694 c 1,68,69
 872 730 872 730 891 756 c 128,-1,70
 910 782 910 782 935 802 c 128,-1,71
 960 822 960 822 985 831 c 128,-1,72
 1010 840 1010 840 1052 844 c 0,73,74
 1076 844 1076 844 1096 837 c 128,-1,75
 1116 830 1116 830 1135 814 c 128,-1,76
 1154 798 1154 798 1161 781 c 128,-1,77
 1168 764 1168 764 1172 734 c 1,78,-1
 1166 702 l 1,79,-1
 1148 676 l 1,80,-1
 1122 658 l 1,81,-1
 1092 654 l 1,82,-1
 1068 656 l 1,83,-1
 1048 666 l 1,84,-1
 1036 678 l 1,85,-1
 1032 694 l 1,86,-1
 1034 702 l 2,87,88
 1038 712 1038 712 1042 714 c 2,89,-1
 1048 724 l 1,90,-1
 1052 734 l 1,91,92
 1052 748 1052 748 1038 756 c 1,93,-1
 1002 764 l 2,94,95
 986 764 986 764 968 753 c 128,-1,96
 950 742 950 742 930 716 c 1,97,-1
 908 664 l 1,98,-1
 902 604 l 1,99,-1
 902 124 l 2,100,101
 902 102 902 102 906 92 c 2,102,-1
 924 66 l 1,103,-1
 950 48 l 1,104,-1
 982 44 l 1,105,-1
 982 4 l 1,106,-1
 642 4 l 1,0,-1
344 164 m 0,107,108
 372 214 372 214 372 274 c 0,109,110
 372 306 372 306 364 328 c 2,111,-1
 346 374 l 1,112,113
 334 392 334 392 319 401 c 128,-1,114
 304 410 304 410 282 414 c 0,115,116
 264 414 264 414 249 404 c 128,-1,117
 234 394 234 394 218 370 c 1,118,-1
 198 320 l 1,119,-1
 192 264 l 2,120,121
 192 244 192 244 193 221 c 128,-1,122
 194 198 194 198 210 159 c 128,-1,123
 226 120 226 120 262 84 c 1,124,125
 314 112 314 112 344 164 c 0,107,108
EndSplineSet
EndChar

StartChar: tm_ee
Encoding: 2959 2959 57
Width: 1228
GlyphClass: 2
Flags: W
LayerCount: 2
Fore
SplineSet
762 -184 m 0,0,1
 744 -220 744 -220 715 -245 c 128,-1,2
 686 -270 686 -270 644 -286 c 0,3,4
 626 -292 626 -292 609 -296 c 128,-1,5
 592 -300 592 -300 570 -300 c 0,6,7
 530 -300 530 -300 492 -288 c 128,-1,8
 454 -276 454 -276 423 -253 c 128,-1,9
 392 -230 392 -230 376 -201 c 128,-1,10
 360 -172 360 -172 360 -140 c 0,11,12
 360 -114 360 -114 367 -93 c 128,-1,13
 374 -72 374 -72 392 -54 c 0,14,15
 406 -36 406 -36 426 -28 c 1,16,-1
 470 -20 l 1,17,-1
 502 -22 l 1,18,-1
 528 -34 l 1,19,-1
 544 -48 l 2,20,21
 550 -58 550 -58 550 -70 c 0,22,23
 550 -94 550 -94 543 -108 c 128,-1,24
 536 -122 536 -122 520 -130 c 1,25,-1
 498 -154 l 1,26,-1
 490 -180 l 1,27,-1
 496 -204 l 1,28,-1
 514 -224 l 1,29,-1
 542 -236 l 1,30,-1
 580 -240 l 2,31,32
 612 -240 612 -240 638 -222 c 128,-1,33
 664 -204 664 -204 683 -170 c 128,-1,34
 702 -136 702 -136 710 -87 c 128,-1,35
 718 -38 718 -38 719 -10 c 128,-1,36
 720 18 720 18 720 36 c 1,37,-1
 640 36 l 1,38,-1
 640 76 l 1,39,40
 656 76 656 76 669 83 c 128,-1,41
 682 90 682 90 696 110 c 1,42,-1
 714 148 l 1,43,-1
 720 196 l 1,44,-1
 720 536 l 2,45,46
 720 586 720 586 697 630 c 128,-1,47
 674 674 674 674 624 713 c 128,-1,48
 574 752 574 752 517 769 c 128,-1,49
 460 786 460 786 390 786 c 0,50,51
 310 786 310 786 249 760 c 128,-1,52
 188 734 188 734 144 686 c 128,-1,53
 100 638 100 638 72 566 c 1,54,55
 50 496 50 496 50 416 c 0,56,57
 50 356 50 356 61 309 c 128,-1,58
 72 262 72 262 93 223 c 128,-1,59
 114 184 114 184 142 154 c 1,60,61
 170 132 170 132 210 116 c 1,62,63
 182 144 182 144 164 192 c 0,64,65
 158 214 158 214 154 240 c 128,-1,66
 150 266 150 266 150 296 c 0,67,68
 150 346 150 346 163 388 c 128,-1,69
 176 430 176 430 203 463 c 128,-1,70
 230 496 230 496 266 516 c 128,-1,71
 302 536 302 536 340 536 c 256,72,73
 378 536 378 536 415 519 c 128,-1,74
 452 502 452 502 480 468 c 1,75,76
 510 440 510 440 524 394 c 0,77,78
 540 352 540 352 540 306 c 0,79,80
 540 244 540 244 521 194 c 128,-1,81
 502 144 502 144 467 103 c 128,-1,82
 432 62 432 62 380 36 c 1,83,84
 330 16 330 16 280 16 c 0,85,86
 220 16 220 16 171 45 c 128,-1,87
 122 74 122 74 82 129 c 128,-1,88
 42 184 42 184 20 256 c 0,89,90
 12 286 12 286 6 327 c 128,-1,91
 0 368 0 368 0 406 c 0,92,93
 0 520 0 520 31 603 c 128,-1,94
 62 686 62 686 130 752 c 0,95,96
 194 810 194 810 289 843 c 128,-1,97
 384 876 384 876 500 876 c 0,98,99
 568 876 568 876 614 866 c 0,100,101
 668 858 668 858 716 836 c 0,102,103
 756 820 756 820 798 788 c 0,104,105
 834 762 834 762 860 726 c 1,106,107
 870 762 870 762 889 788 c 128,-1,108
 908 814 908 814 933 834 c 128,-1,109
 958 854 958 854 983 863 c 128,-1,110
 1008 872 1008 872 1050 876 c 0,111,112
 1074 876 1074 876 1094 869 c 128,-1,113
 1114 862 1114 862 1133 846 c 128,-1,114
 1152 830 1152 830 1159 813 c 128,-1,115
 1166 796 1166 796 1170 766 c 1,116,-1
 1164 734 l 1,117,-1
 1146 708 l 1,118,-1
 1120 690 l 1,119,-1
 1090 686 l 1,120,-1
 1066 688 l 1,121,-1
 1046 698 l 1,122,-1
 1034 710 l 1,123,-1
 1030 726 l 1,124,-1
 1032 734 l 2,125,126
 1036 744 1036 744 1040 746 c 2,127,-1
 1046 756 l 1,128,-1
 1050 766 l 1,129,130
 1050 780 1050 780 1036 788 c 1,131,-1
 1000 796 l 2,132,133
 984 796 984 796 966 785 c 128,-1,134
 948 774 948 774 928 748 c 1,135,-1
 906 696 l 1,136,-1
 900 636 l 1,137,-1
 900 156 l 2,138,139
 900 134 900 134 904 124 c 2,140,-1
 916 98 l 1,141,-1
 936 80 l 1,142,-1
 960 76 l 1,143,-1
 960 36 l 1,144,-1
 910 36 l 2,145,146
 890 36 890 36 873 27 c 128,-1,147
 856 18 856 18 837 -4 c 128,-1,148
 818 -26 818 -26 806 -52 c 1,149,-1
 790 -110 l 2,150,151
 786 -138 786 -138 782 -149 c 128,-1,152
 778 -160 778 -160 762 -184 c 0,0,1
342 196 m 0,153,154
 370 246 370 246 370 306 c 0,155,156
 370 338 370 338 362 360 c 2,157,-1
 344 406 l 1,158,159
 332 424 332 424 317 433 c 128,-1,160
 302 442 302 442 280 446 c 0,161,162
 262 446 262 446 247 436 c 128,-1,163
 232 426 232 426 216 402 c 1,164,-1
 196 352 l 1,165,-1
 190 296 l 2,166,167
 190 276 190 276 191 253 c 128,-1,168
 192 230 192 230 208 191 c 128,-1,169
 224 152 224 152 260 116 c 1,170,171
 312 144 312 144 342 196 c 0,153,154
EndSplineSet
EndChar

StartChar: tm_ai
Encoding: 2960 2960 58
Width: 1290
GlyphClass: 2
Flags: W
LayerCount: 2
Fore
SplineSet
560 -460 m 256,0,1
 528 -492 528 -492 490 -514 c 0,2,3
 476 -522 476 -522 454 -531 c 128,-1,4
 432 -540 432 -540 397 -550 c 128,-1,5
 362 -560 362 -560 310 -560 c 0,6,7
 234 -560 234 -560 178 -532 c 1,8,9
 118 -508 118 -508 70 -455 c 128,-1,10
 22 -402 22 -402 -2 -340 c 128,-1,11
 -26 -278 -26 -278 -26 -200 c 0,12,13
 -26 -130 -26 -130 -2 -66 c 128,-1,14
 22 -2 22 -2 72 44 c 0,15,16
 122 94 122 94 186 120 c 128,-1,17
 250 146 250 146 320 146 c 2,18,-1
 770 146 l 2,19,20
 834 146 834 146 884 172 c 0,21,22
 910 184 910 184 932 202 c 128,-1,23
 954 220 954 220 974 248 c 0,24,25
 1008 296 1008 296 1030 368 c 0,26,27
 1050 444 1050 444 1050 526 c 0,28,29
 1050 580 1050 580 1039 630 c 128,-1,30
 1028 680 1028 680 1007 717 c 128,-1,31
 986 754 986 754 960 773 c 128,-1,32
 934 792 934 792 900 796 c 0,33,34
 870 796 870 796 844 783 c 128,-1,35
 818 770 818 770 797 744 c 128,-1,36
 776 718 776 718 760 678 c 0,37,38
 750 644 750 644 750 606 c 2,39,-1
 750 386 l 1,40,-1
 756 342 l 1,41,-1
 774 308 l 1,42,-1
 800 284 l 1,43,-1
 830 276 l 1,44,-1
 830 236 l 1,45,-1
 510 236 l 1,46,-1
 510 276 l 1,47,-1
 540 282 l 2,48,49
 554 288 554 288 566 304 c 128,-1,50
 578 320 578 320 584 338 c 2,51,-1
 590 376 l 1,52,-1
 590 536 l 2,53,54
 590 592 590 592 568 636 c 1,55,56
 550 682 550 682 509 718 c 128,-1,57
 468 754 468 754 416 776 c 0,58,59
 396 784 396 784 367 790 c 128,-1,60
 338 796 338 796 310 796 c 0,61,62
 244 796 244 796 192 777 c 128,-1,63
 140 758 140 758 101 721 c 128,-1,64
 62 684 62 684 41 630 c 128,-1,65
 20 576 20 576 20 516 c 0,66,67
 20 470 20 470 33 423 c 128,-1,68
 46 376 46 376 72 344 c 0,69,70
 94 312 94 312 128 294 c 128,-1,71
 162 276 162 276 200 276 c 1,72,73
 160 304 160 304 132 360 c 1,74,75
 110 414 110 414 110 486 c 0,76,77
 110 528 110 528 123 563 c 128,-1,78
 136 598 136 598 165 627 c 128,-1,79
 194 656 194 656 229 671 c 128,-1,80
 264 686 264 686 300 686 c 0,81,82
 326 686 326 686 338 683 c 128,-1,83
 350 680 350 680 373 670 c 128,-1,84
 396 660 396 660 428 628 c 1,85,86
 450 600 450 600 465 562 c 128,-1,87
 480 524 480 524 480 486 c 0,88,89
 480 434 480 434 464 385 c 128,-1,90
 448 336 448 336 412 294 c 0,91,92
 384 260 384 260 339 238 c 128,-1,93
 294 216 294 216 250 216 c 0,94,95
 186 216 186 216 134 236 c 0,96,97
 90 256 90 256 46 302 c 1,98,99
 10 346 10 346 -8 404 c 128,-1,100
 -26 462 -26 462 -26 536 c 0,101,102
 -26 612 -26 612 -2 676 c 128,-1,103
 22 740 22 740 72 784 c 128,-1,104
 122 828 122 828 189 852 c 128,-1,105
 256 876 256 876 340 876 c 0,106,107
 412 876 412 876 470 862 c 0,108,109
 534 850 534 850 584 825 c 128,-1,110
 634 800 634 800 668 765 c 128,-1,111
 702 730 702 730 720 686 c 1,112,113
 736 730 736 730 760 762 c 0,114,115
 784 800 784 800 817 823 c 128,-1,116
 850 846 850 846 886 862 c 0,117,118
 928 876 928 876 960 876 c 0,119,120
 1012 876 1012 876 1055 851 c 128,-1,121
 1098 826 1098 826 1135 775 c 128,-1,122
 1172 724 1172 724 1191 660 c 128,-1,123
 1210 596 1210 596 1210 526 c 1,124,-1
 1204 436 l 1,125,-1
 1186 354 l 2,126,127
 1180 336 1180 336 1174 320 c 128,-1,128
 1168 304 1168 304 1156 279 c 128,-1,129
 1144 254 1144 254 1120 224 c 0,130,131
 1080 172 1080 172 1014 142 c 0,132,133
 948 116 948 116 870 116 c 2,134,-1
 390 116 l 2,135,136
 336 116 336 116 291 91 c 128,-1,137
 246 66 246 66 209 21 c 128,-1,138
 172 -24 172 -24 148 -88 c 1,139,140
 130 -148 130 -148 130 -220 c 0,141,142
 130 -258 130 -258 132 -276 c 128,-1,143
 134 -294 134 -294 147 -333 c 128,-1,144
 160 -372 160 -372 193 -415 c 128,-1,145
 226 -458 226 -458 265 -479 c 128,-1,146
 304 -500 304 -500 350 -500 c 256,147,148
 396 -500 396 -500 442 -481 c 128,-1,149
 488 -462 488 -462 520 -430 c 0,150,151
 548 -398 548 -398 572 -352 c 0,152,153
 590 -310 590 -310 590 -260 c 2,154,-1
 590 -122 l 1,155,-1
 584 -72 l 1,156,-1
 566 -34 l 2,157,158
 554 -16 554 -16 540 -8 c 1,159,-1
 510 0 l 1,160,-1
 510 36 l 1,161,-1
 830 36 l 1,162,-1
 830 -2 l 1,163,164
 812 -2 812 -2 798 -10 c 1,165,-1
 772 -38 l 1,166,-1
 754 -76 l 1,167,-1
 750 -120 l 1,168,-1
 750 -282 l 2,169,170
 750 -322 750 -322 763 -357 c 128,-1,171
 776 -392 776 -392 805 -421 c 128,-1,172
 834 -450 834 -450 869 -465 c 128,-1,173
 904 -480 904 -480 940 -480 c 0,174,175
 986 -480 986 -480 1028 -462 c 0,176,177
 1070 -448 1070 -448 1102 -412 c 0,178,179
 1134 -382 1134 -382 1152 -340 c 128,-1,180
 1170 -298 1170 -298 1170 -250 c 0,181,182
 1170 -232 1170 -232 1170 -214 c 1,183,184
 1164 -196 1164 -196 1160 -178 c 128,-1,185
 1156 -160 1156 -160 1140 -136 c 0,186,187
 1128 -112 1128 -112 1112 -103 c 128,-1,188
 1096 -94 1096 -94 1070 -90 c 1,189,-1
 1042 -94 l 1,190,-1
 1020 -108 l 1,191,-1
 1004 -128 l 1,192,-1
 1000 -150 l 1,193,194
 1000 -182 1000 -182 1011 -203 c 128,-1,195
 1022 -224 1022 -224 1050 -240 c 1,196,-1
 1040 -272 l 1,197,198
 1008 -262 1008 -262 989 -249 c 128,-1,199
 970 -236 970 -236 946 -210 c 0,200,201
 932 -194 932 -194 918 -162 c 1,202,-1
 910 -110 l 1,203,204
 910 -78 910 -78 920 -52 c 0,205,206
 934 -24 934 -24 955 -5 c 128,-1,207
 976 14 976 14 1002 25 c 128,-1,208
 1028 36 1028 36 1060 36 c 0,209,210
 1090 36 1090 36 1122 18 c 128,-1,211
 1154 0 1154 0 1179 -33 c 128,-1,212
 1204 -66 1204 -66 1216 -108 c 0,213,214
 1222 -132 1222 -132 1226 -152 c 128,-1,215
 1230 -172 1230 -172 1230 -200 c 0,216,217
 1230 -270 1230 -270 1206 -335 c 128,-1,218
 1182 -400 1182 -400 1135 -453 c 128,-1,219
 1088 -506 1088 -506 1032 -533 c 128,-1,220
 976 -560 976 -560 910 -560 c 0,221,222
 858 -560 858 -560 807 -548 c 128,-1,223
 756 -536 756 -536 719 -514 c 128,-1,224
 682 -492 682 -492 650 -460 c 0,225,226
 628 -434 628 -434 610 -390 c 1,227,228
 592 -428 592 -428 560 -460 c 256,0,1
272 334 m 2,229,230
 290 352 290 352 303 376 c 128,-1,231
 316 400 316 400 322 424 c 2,232,-1
 330 476 l 1,233,234
 330 504 330 504 322 526 c 2,235,-1
 304 568 l 2,236,237
 294 582 294 582 274 596 c 0,238,239
 262 602 262 602 240 606 c 0,240,241
 220 606 220 606 205 598 c 128,-1,242
 190 590 190 590 176 570 c 2,243,-1
 156 530 l 1,244,-1
 150 486 l 1,245,246
 150 448 150 448 154 428 c 2,247,-1
 172 374 l 1,248,-1
 196 328 l 1,249,-1
 230 296 l 1,250,-1
 272 334 l 2,229,230
EndSplineSet
EndChar

StartChar: tm_o
Encoding: 2962 2962 59
Width: 1256
GlyphClass: 2
Flags: W
LayerCount: 2
Fore
SplineSet
538 -530 m 0,0,1
 464 -550 464 -550 388 -550 c 0,2,3
 304 -550 304 -550 244 -528 c 1,4,5
 182 -510 182 -510 133 -467 c 128,-1,6
 84 -424 84 -424 61 -369 c 128,-1,7
 38 -314 38 -314 38 -250 c 0,8,9
 38 -202 38 -202 48 -168 c 128,-1,10
 58 -134 58 -134 64 -122 c 128,-1,11
 70 -110 70 -110 92 -83 c 128,-1,12
 114 -56 114 -56 147 -38 c 128,-1,13
 180 -20 180 -20 218 -20 c 0,14,15
 242 -20 242 -20 262 -27 c 128,-1,16
 282 -34 282 -34 301 -51 c 128,-1,17
 320 -68 320 -68 329 -87 c 128,-1,18
 338 -106 338 -106 338 -130 c 0,19,20
 338 -148 338 -148 330 -162 c 0,21,22
 324 -180 324 -180 308 -192 c 0,23,24
 298 -204 298 -204 276 -212 c 2,25,-1
 238 -220 l 1,26,-1
 238 -172 l 1,27,28
 256 -172 256 -172 267 -161 c 128,-1,29
 278 -150 278 -150 278 -130 c 0,30,31
 278 -116 278 -116 274 -108 c 2,32,-1
 264 -94 l 1,33,-1
 246 -82 l 1,34,-1
 228 -80 l 2,35,36
 194 -80 194 -80 174 -90 c 128,-1,37
 154 -100 154 -100 128 -126 c 1,38,39
 108 -152 108 -152 100 -175 c 128,-1,40
 92 -198 92 -198 88 -240 c 0,41,42
 88 -280 88 -280 90 -297 c 128,-1,43
 92 -314 92 -314 107 -350 c 128,-1,44
 122 -386 122 -386 156 -420 c 128,-1,45
 190 -454 190 -454 239 -472 c 128,-1,46
 288 -490 288 -490 348 -490 c 0,47,48
 400 -490 400 -490 439 -475 c 128,-1,49
 478 -460 478 -460 512 -426 c 0,50,51
 544 -398 544 -398 561 -357 c 128,-1,52
 578 -316 578 -316 578 -270 c 0,53,54
 578 -228 578 -228 590 -191 c 128,-1,55
 602 -154 602 -154 628 -126 c 0,56,57
 650 -98 650 -98 686 -74 c 0,58,59
 720 -56 720 -56 758 -50 c 1,60,61
 724 -34 724 -34 691 -8 c 128,-1,62
 658 18 658 18 634 53 c 128,-1,63
 610 88 610 88 600 124 c 128,-1,64
 590 160 590 160 589 178 c 128,-1,65
 588 196 588 196 588 206 c 0,66,67
 588 250 588 250 606 293 c 128,-1,68
 624 336 624 336 660 382 c 0,69,70
 680 404 680 404 698 420 c 128,-1,71
 716 436 716 436 741 453 c 128,-1,72
 766 470 766 470 787 480 c 128,-1,73
 808 490 808 490 848 506 c 1,74,-1
 868 466 l 1,75,76
 806 422 806 422 777 373 c 128,-1,77
 748 324 748 324 748 266 c 0,78,79
 748 232 748 232 756 204 c 128,-1,80
 764 176 764 176 786 152 c 0,81,82
 804 128 804 128 828 116 c 0,83,84
 844 110 844 110 878 106 c 1,85,86
 914 106 914 106 939 122 c 128,-1,87
 964 138 964 138 992 176 c 0,88,89
 1010 204 1010 204 1024 249 c 128,-1,90
 1038 294 1038 294 1038 346 c 0,91,92
 1038 466 1038 466 1004 552 c 1,93,94
 974 642 974 642 906 704 c 0,95,96
 880 728 880 728 840 751 c 128,-1,97
 800 774 800 774 746 792 c 128,-1,98
 692 810 692 810 636 818 c 1,99,-1
 518 826 l 1,100,101
 404 826 404 826 316 797 c 128,-1,102
 228 768 228 768 154 706 c 0,103,104
 88 646 88 646 53 566 c 128,-1,105
 18 486 18 486 18 386 c 0,106,107
 18 322 18 322 31 273 c 128,-1,108
 44 224 44 224 73 182 c 128,-1,109
 102 140 102 140 140 116 c 1,110,111
 180 96 180 96 218 96 c 1,112,113
 180 132 180 132 159 187 c 128,-1,114
 138 242 138 242 138 306 c 0,115,116
 138 352 138 352 151 388 c 128,-1,117
 164 424 164 424 196 456 c 0,118,119
 222 486 222 486 260 501 c 128,-1,120
 298 516 298 516 338 516 c 0,121,122
 372 516 372 516 408 498 c 0,123,124
 438 480 438 480 466 446 c 0,125,126
 488 414 488 414 504 368 c 0,127,128
 510 344 510 344 514 324 c 128,-1,129
 518 304 518 304 518 276 c 0,130,131
 518 224 518 224 499 180 c 128,-1,132
 480 136 480 136 443 99 c 128,-1,133
 406 62 406 62 359 44 c 128,-1,134
 312 26 312 26 258 26 c 0,135,136
 202 26 202 26 150 50 c 0,137,138
 126 62 126 62 104 80 c 128,-1,139
 82 98 82 98 60 126 c 0,140,141
 22 178 22 178 0 240 c 0,142,143
 -18 300 -18 300 -18 376 c 0,144,145
 -18 440 -18 440 -8 488 c 1,146,147
 -2 542 -2 542 17 594 c 128,-1,148
 36 646 36 646 63 688 c 128,-1,149
 90 730 90 730 126 760 c 0,150,151
 196 826 196 826 301 861 c 128,-1,152
 406 896 406 896 538 896 c 0,153,154
 690 896 690 896 814 859 c 128,-1,155
 938 822 938 822 1024 754 c 0,156,157
 1064 722 1064 722 1096 676 c 0,158,159
 1108 658 1108 658 1123 633 c 128,-1,160
 1138 608 1138 608 1152 580 c 0,161,162
 1158 564 1158 564 1168 534 c 128,-1,163
 1178 504 1178 504 1188 461 c 128,-1,164
 1198 418 1198 418 1198 356 c 0,165,166
 1198 288 1198 288 1176 232 c 0,167,168
 1158 178 1158 178 1116 130 c 128,-1,169
 1074 82 1074 82 1024 59 c 128,-1,170
 974 36 974 36 918 36 c 0,171,172
 874 36 874 36 838 51 c 128,-1,173
 802 66 802 66 771 97 c 128,-1,174
 740 128 740 128 722 170 c 0,175,176
 716 190 716 190 712 211 c 128,-1,177
 708 232 708 232 708 256 c 0,178,179
 708 300 708 300 723 340 c 128,-1,180
 738 380 738 380 768 416 c 1,181,-1
 712 374 l 1,182,183
 690 352 690 352 673 323 c 128,-1,184
 656 294 656 294 646 260 c 1,185,-1
 638 196 l 1,186,187
 638 138 638 138 660 95 c 128,-1,188
 682 52 682 52 728 12 c 1,189,190
 770 -18 770 -18 829 -39 c 128,-1,191
 888 -60 888 -60 948 -60 c 2,192,-1
 1098 -62 l 1,193,-1
 1098 -102 l 1,194,-1
 918 -102 l 2,195,196
 882 -102 882 -102 854 -113 c 128,-1,197
 826 -124 826 -124 803 -151 c 128,-1,198
 780 -178 780 -178 769 -211 c 128,-1,199
 758 -244 758 -244 758 -280 c 0,200,201
 758 -342 758 -342 733 -389 c 128,-1,202
 708 -436 708 -436 656 -476 c 0,203,204
 614 -508 614 -508 538 -530 c 0,0,1
322 184 m 0,205,206
 348 230 348 230 348 276 c 1,207,-1
 342 332 l 1,208,-1
 324 382 l 1,209,210
 312 402 312 402 299 414 c 128,-1,211
 286 426 286 426 268 426 c 0,212,213
 248 426 248 426 234 418 c 128,-1,214
 220 410 220 410 206 390 c 128,-1,215
 192 370 192 370 184 340 c 1,216,-1
 178 286 l 2,217,218
 178 258 178 258 180 244 c 128,-1,219
 182 230 182 230 193 203 c 128,-1,220
 204 176 204 176 215 158 c 128,-1,221
 226 140 226 140 248 106 c 1,222,223
 294 140 294 140 322 184 c 0,205,206
EndSplineSet
EndChar

StartChar: tm_oo
Encoding: 2963 2963 60
Width: 1256
GlyphClass: 2
Flags: W
LayerCount: 2
Fore
SplineSet
544 -530 m 0,0,1
 514 -538 514 -538 476 -544 c 128,-1,2
 438 -550 438 -550 398 -550 c 0,3,4
 314 -550 314 -550 252 -528 c 128,-1,5
 190 -506 190 -506 142 -464 c 128,-1,6
 94 -422 94 -422 71 -366 c 128,-1,7
 48 -310 48 -310 48 -240 c 0,8,9
 48 -194 48 -194 61 -157 c 128,-1,10
 74 -120 74 -120 104 -86 c 128,-1,11
 134 -52 134 -52 171 -36 c 128,-1,12
 208 -20 208 -20 248 -20 c 0,13,14
 282 -20 282 -20 305 -31 c 128,-1,15
 328 -42 328 -42 352 -66 c 0,16,17
 370 -88 370 -88 386 -118 c 0,18,19
 398 -148 398 -148 398 -180 c 0,20,21
 398 -218 398 -218 386 -251 c 128,-1,22
 374 -284 374 -284 349 -313 c 128,-1,23
 324 -342 324 -342 299 -354 c 128,-1,24
 274 -366 274 -366 238 -370 c 0,25,26
 212 -370 212 -370 195 -362 c 128,-1,27
 178 -354 178 -354 161 -334 c 128,-1,28
 144 -314 144 -314 136 -294 c 1,29,-1
 128 -250 l 1,30,31
 128 -210 128 -210 145 -184 c 128,-1,32
 162 -158 162 -158 198 -140 c 1,33,-1
 198 -172 l 1,34,-1
 202 -198 l 1,35,-1
 216 -220 l 1,36,-1
 236 -234 l 2,37,38
 246 -240 246 -240 258 -240 c 2,39,-1
 280 -234 l 1,40,-1
 300 -216 l 1,41,-1
 314 -190 l 1,42,-1
 318 -160 l 1,43,-1
 312 -122 l 1,44,-1
 294 -88 l 1,45,-1
 268 -66 l 1,46,-1
 238 -60 l 1,47,48
 208 -60 208 -60 182 -73 c 128,-1,49
 156 -86 156 -86 135 -112 c 128,-1,50
 114 -138 114 -138 98 -178 c 1,51,52
 88 -214 88 -214 88 -250 c 0,53,54
 88 -302 88 -302 106 -346 c 128,-1,55
 124 -390 124 -390 161 -423 c 128,-1,56
 198 -456 198 -456 250 -474 c 0,57,58
 276 -482 276 -482 300 -486 c 128,-1,59
 324 -490 324 -490 358 -490 c 0,60,61
 408 -490 408 -490 442 -474 c 0,62,63
 482 -460 482 -460 513 -428 c 128,-1,64
 544 -396 544 -396 561 -356 c 128,-1,65
 578 -316 578 -316 578 -270 c 0,66,67
 578 -228 578 -228 590 -191 c 128,-1,68
 602 -154 602 -154 628 -126 c 0,69,70
 650 -98 650 -98 686 -74 c 0,71,72
 720 -56 720 -56 758 -50 c 1,73,74
 724 -34 724 -34 691 -8 c 128,-1,75
 658 18 658 18 634 53 c 128,-1,76
 610 88 610 88 600 124 c 128,-1,77
 590 160 590 160 589 178 c 128,-1,78
 588 196 588 196 588 206 c 0,79,80
 588 250 588 250 606 293 c 128,-1,81
 624 336 624 336 660 382 c 0,82,83
 680 404 680 404 698 420 c 128,-1,84
 716 436 716 436 741 453 c 128,-1,85
 766 470 766 470 787 480 c 128,-1,86
 808 490 808 490 848 506 c 1,87,-1
 868 466 l 1,88,89
 806 422 806 422 777 373 c 128,-1,90
 748 324 748 324 748 266 c 0,91,92
 748 230 748 230 759 202 c 128,-1,93
 770 174 770 174 792 151 c 128,-1,94
 814 128 814 128 840 117 c 128,-1,95
 866 106 866 106 898 106 c 256,96,97
 930 106 930 106 952 123 c 128,-1,98
 974 140 974 140 998 174 c 1,99,100
 1016 208 1016 208 1027 253 c 128,-1,101
 1038 298 1038 298 1038 346 c 0,102,103
 1038 466 1038 466 1004 552 c 1,104,105
 974 642 974 642 906 704 c 0,106,107
 880 728 880 728 840 751 c 128,-1,108
 800 774 800 774 746 792 c 128,-1,109
 692 810 692 810 636 818 c 1,110,-1
 518 826 l 1,111,112
 404 826 404 826 316 797 c 128,-1,113
 228 768 228 768 154 706 c 0,114,115
 88 646 88 646 53 566 c 128,-1,116
 18 486 18 486 18 386 c 0,117,118
 18 322 18 322 31 273 c 128,-1,119
 44 224 44 224 73 182 c 128,-1,120
 102 140 102 140 140 116 c 1,121,122
 180 96 180 96 218 96 c 1,123,124
 180 132 180 132 159 187 c 128,-1,125
 138 242 138 242 138 306 c 0,126,127
 138 348 138 348 150 387 c 128,-1,128
 162 426 162 426 190 456 c 0,129,130
 214 486 214 486 247 501 c 128,-1,131
 280 516 280 516 318 516 c 0,132,133
 358 516 358 516 395 497 c 128,-1,134
 432 478 432 478 460 444 c 128,-1,135
 488 410 488 410 502 368 c 0,136,137
 510 346 510 346 514 326 c 128,-1,138
 518 306 518 306 518 276 c 0,139,140
 518 224 518 224 499 180 c 128,-1,141
 480 136 480 136 443 99 c 128,-1,142
 406 62 406 62 359 44 c 128,-1,143
 312 26 312 26 258 26 c 0,144,145
 202 26 202 26 150 50 c 0,146,147
 126 62 126 62 104 80 c 128,-1,148
 82 98 82 98 60 126 c 0,149,150
 22 178 22 178 0 240 c 0,151,152
 -18 300 -18 300 -18 376 c 0,153,154
 -18 440 -18 440 -8 488 c 1,155,156
 -2 542 -2 542 17 594 c 128,-1,157
 36 646 36 646 63 688 c 128,-1,158
 90 730 90 730 126 760 c 0,159,160
 196 826 196 826 301 861 c 128,-1,161
 406 896 406 896 538 896 c 0,162,163
 690 896 690 896 814 859 c 128,-1,164
 938 822 938 822 1024 754 c 0,165,166
 1064 722 1064 722 1096 676 c 0,167,168
 1108 658 1108 658 1123 633 c 128,-1,169
 1138 608 1138 608 1152 580 c 0,170,171
 1158 564 1158 564 1168 534 c 128,-1,172
 1178 504 1178 504 1188 461 c 128,-1,173
 1198 418 1198 418 1198 356 c 0,174,175
 1198 290 1198 290 1179 233 c 128,-1,176
 1160 176 1160 176 1123 129 c 128,-1,177
 1086 82 1086 82 1038 59 c 128,-1,178
 990 36 990 36 938 36 c 256,179,180
 886 36 886 36 848 51 c 128,-1,181
 810 66 810 66 777 98 c 128,-1,182
 744 130 744 130 724 170 c 1,183,184
 708 212 708 212 708 256 c 256,185,186
 708 300 708 300 723 340 c 128,-1,187
 738 380 738 380 768 416 c 1,188,-1
 712 374 l 1,189,190
 690 352 690 352 673 323 c 128,-1,191
 656 294 656 294 646 260 c 1,192,-1
 638 196 l 1,193,194
 638 138 638 138 660 95 c 128,-1,195
 682 52 682 52 728 12 c 1,196,197
 770 -18 770 -18 829 -39 c 128,-1,198
 888 -60 888 -60 948 -60 c 2,199,-1
 1098 -62 l 1,200,-1
 1098 -102 l 1,201,-1
 918 -102 l 2,202,203
 882 -102 882 -102 854 -113 c 128,-1,204
 826 -124 826 -124 803 -151 c 128,-1,205
 780 -178 780 -178 769 -211 c 128,-1,206
 758 -244 758 -244 758 -280 c 0,207,208
 758 -340 758 -340 733 -388 c 128,-1,209
 708 -436 708 -436 663 -472 c 128,-1,210
 618 -508 618 -508 544 -530 c 0,0,1
322 184 m 0,211,212
 348 230 348 230 348 276 c 1,213,-1
 342 332 l 1,214,-1
 324 382 l 1,215,216
 312 402 312 402 299 414 c 128,-1,217
 286 426 286 426 268 426 c 0,218,219
 248 426 248 426 234 418 c 128,-1,220
 220 410 220 410 206 390 c 128,-1,221
 192 370 192 370 184 340 c 1,222,-1
 178 286 l 2,223,224
 178 258 178 258 180 244 c 128,-1,225
 182 230 182 230 193 203 c 128,-1,226
 204 176 204 176 215 158 c 128,-1,227
 226 140 226 140 248 106 c 1,228,229
 294 140 294 140 322 184 c 0,211,212
EndSplineSet
EndChar

StartChar: tm_au
Encoding: 2964 2964 61
Width: 2669
GlyphClass: 2
Flags: W
LayerCount: 2
Fore
SplineSet
1624 18 m 0,0,1
 1588 0 1588 0 1540 0 c 0,2,3
 1474 0 1474 0 1422 25 c 128,-1,4
 1370 50 1370 50 1330 108 c 0,5,6
 1312 134 1312 134 1299 163 c 128,-1,7
 1286 192 1286 192 1272 234 c 0,8,9
 1254 306 1254 306 1254 396 c 0,10,11
 1254 498 1254 498 1279 576 c 128,-1,12
 1304 654 1304 654 1359 715 c 128,-1,13
 1414 776 1414 776 1486 806 c 128,-1,14
 1558 836 1558 836 1650 836 c 0,15,16
 1708 836 1708 836 1755 826 c 128,-1,17
 1802 816 1802 816 1847 797 c 128,-1,18
 1892 778 1892 778 1922 752 c 0,19,20
 1952 730 1952 730 1980 696 c 1,21,-1
 2010 752 l 1,22,-1
 2054 798 l 2,23,24
 2070 810 2070 810 2084 816 c 128,-1,25
 2098 822 2098 822 2113 827 c 128,-1,26
 2128 832 2128 832 2170 836 c 0,27,28
 2184 836 2184 836 2195 836 c 128,-1,29
 2206 836 2206 836 2230 828 c 0,30,31
 2260 822 2260 822 2283 810 c 128,-1,32
 2306 798 2306 798 2324 778 c 128,-1,33
 2342 758 2342 758 2350 736 c 1,34,-1
 2380 776 l 1,35,-1
 2420 808 l 1,36,-1
 2468 828 l 1,37,-1
 2520 836 l 2,38,39
 2542 836 2542 836 2560 828 c 0,40,41
 2582 822 2582 822 2596 806 c 1,42,43
 2612 794 2612 794 2619 778 c 128,-1,44
 2626 762 2626 762 2630 736 c 0,45,46
 2630 710 2630 710 2622 692 c 2,47,-1
 2604 658 l 1,48,49
 2592 644 2592 644 2574 634 c 1,50,-1
 2540 626 l 1,51,-1
 2512 630 l 1,52,-1
 2490 644 l 1,53,-1
 2474 664 l 1,54,-1
 2470 686 l 1,55,-1
 2472 694 l 2,56,57
 2476 704 2476 704 2480 706 c 2,58,-1
 2494 724 l 1,59,-1
 2500 736 l 1,60,61
 2500 750 2500 750 2490 758 c 2,62,-1
 2470 766 l 1,63,64
 2450 766 2450 766 2431 753 c 128,-1,65
 2412 740 2412 740 2398 714 c 2,66,-1
 2376 656 l 1,67,-1
 2370 586 l 1,68,-1
 2370 116 l 2,69,70
 2370 94 2370 94 2374 84 c 2,71,-1
 2386 58 l 1,72,-1
 2406 40 l 1,73,-1
 2430 36 l 1,74,-1
 2430 -2 l 1,75,-1
 2110 -2 l 1,76,-1
 2110 36 l 1,77,78
 2130 36 2130 36 2142 46 c 2,79,-1
 2168 70 l 1,80,-1
 2184 104 l 1,81,-1
 2190 146 l 1,82,-1
 2190 646 l 1,83,-1
 2184 690 l 2,84,85
 2182 708 2182 708 2171 724 c 128,-1,86
 2160 740 2160 740 2148 748 c 1,87,-1
 2120 756 l 1,88,89
 2102 756 2102 756 2085 749 c 128,-1,90
 2068 742 2068 742 2057 729 c 128,-1,91
 2046 716 2046 716 2038 697 c 128,-1,92
 2030 678 2030 678 2030 656 c 2,93,-1
 2030 116 l 2,94,95
 2030 94 2030 94 2034 84 c 2,96,-1
 2046 58 l 1,97,-1
 2066 40 l 1,98,-1
 2090 36 l 1,99,-1
 2090 -2 l 1,100,-1
 1770 -2 l 1,101,-1
 1770 36 l 1,102,103
 1790 36 1790 36 1802 46 c 1,104,105
 1816 52 1816 52 1828 68 c 2,106,-1
 1844 98 l 1,107,-1
 1850 136 l 1,108,-1
 1850 576 l 1,109,110
 1832 612 1832 612 1802 643 c 128,-1,111
 1772 674 1772 674 1737 694 c 128,-1,112
 1702 714 1702 714 1664 724 c 128,-1,113
 1626 734 1626 734 1608 735 c 128,-1,114
 1590 736 1590 736 1580 736 c 0,115,116
 1514 736 1514 736 1461 712 c 128,-1,117
 1408 688 1408 688 1368 642 c 1,118,119
 1336 598 1336 598 1310 532 c 1,120,121
 1290 466 1290 466 1290 396 c 0,122,123
 1290 368 1290 368 1292 338 c 128,-1,124
 1294 308 1294 308 1300 281 c 128,-1,125
 1306 254 1306 254 1314 230 c 128,-1,126
 1322 206 1322 206 1334 182 c 0,127,128
 1354 142 1354 142 1382 114 c 0,129,130
 1404 92 1404 92 1440 86 c 1,131,132
 1412 120 1412 120 1394 174 c 0,133,134
 1388 202 1388 202 1384 231 c 128,-1,135
 1380 260 1380 260 1380 296 c 0,136,137
 1380 340 1380 340 1393 381 c 128,-1,138
 1406 422 1406 422 1432 453 c 128,-1,139
 1458 484 1458 484 1490 500 c 128,-1,140
 1522 516 1522 516 1560 516 c 256,141,142
 1598 516 1598 516 1631 500 c 128,-1,143
 1664 484 1664 484 1693 449 c 128,-1,144
 1722 414 1722 414 1736 372 c 0,145,146
 1742 352 1742 352 1746 331 c 128,-1,147
 1750 310 1750 310 1750 286 c 0,148,149
 1750 240 1750 240 1748 221 c 128,-1,150
 1746 202 1746 202 1734 168 c 0,151,152
 1722 118 1722 118 1692 76 c 0,153,154
 1664 42 1664 42 1624 18 c 0,0,1
1434 174 m 0,155,156
 1450 122 1450 122 1480 86 c 1,157,158
 1502 92 1502 92 1524 110 c 128,-1,159
 1546 128 1546 128 1559 151 c 128,-1,160
 1572 174 1572 174 1582 214 c 1,161,-1
 1590 286 l 1,162,-1
 1584 342 l 1,163,-1
 1566 392 l 1,164,165
 1554 412 1554 412 1541 424 c 128,-1,166
 1528 436 1528 436 1510 436 c 0,167,168
 1490 436 1490 436 1476 428 c 128,-1,169
 1462 420 1462 420 1448 400 c 128,-1,170
 1434 380 1434 380 1426 350 c 1,171,-1
 1420 296 l 1,172,173
 1420 228 1420 228 1434 174 c 0,155,156
538 -530 m 0,174,175
 464 -550 464 -550 388 -550 c 0,176,177
 304 -550 304 -550 244 -528 c 1,178,179
 182 -510 182 -510 133 -467 c 128,-1,180
 84 -424 84 -424 61 -369 c 128,-1,181
 38 -314 38 -314 38 -250 c 0,182,183
 38 -202 38 -202 48 -168 c 128,-1,184
 58 -134 58 -134 64 -122 c 128,-1,185
 70 -110 70 -110 92 -83 c 128,-1,186
 114 -56 114 -56 147 -38 c 128,-1,187
 180 -20 180 -20 218 -20 c 0,188,189
 242 -20 242 -20 262 -27 c 128,-1,190
 282 -34 282 -34 301 -51 c 128,-1,191
 320 -68 320 -68 329 -87 c 128,-1,192
 338 -106 338 -106 338 -130 c 0,193,194
 338 -148 338 -148 330 -162 c 0,195,196
 324 -180 324 -180 308 -192 c 0,197,198
 298 -204 298 -204 276 -212 c 2,199,-1
 238 -220 l 1,200,-1
 238 -172 l 1,201,202
 256 -172 256 -172 267 -161 c 128,-1,203
 278 -150 278 -150 278 -130 c 0,204,205
 278 -116 278 -116 274 -108 c 2,206,-1
 264 -94 l 1,207,-1
 246 -82 l 1,208,-1
 228 -80 l 2,209,210
 194 -80 194 -80 174 -90 c 128,-1,211
 154 -100 154 -100 128 -126 c 1,212,213
 108 -152 108 -152 100 -175 c 128,-1,214
 92 -198 92 -198 88 -240 c 0,215,216
 88 -280 88 -280 90 -297 c 128,-1,217
 92 -314 92 -314 107 -350 c 128,-1,218
 122 -386 122 -386 156 -420 c 128,-1,219
 190 -454 190 -454 239 -472 c 128,-1,220
 288 -490 288 -490 348 -490 c 0,221,222
 400 -490 400 -490 439 -475 c 128,-1,223
 478 -460 478 -460 512 -426 c 0,224,225
 544 -398 544 -398 561 -357 c 128,-1,226
 578 -316 578 -316 578 -270 c 0,227,228
 578 -228 578 -228 590 -191 c 128,-1,229
 602 -154 602 -154 628 -126 c 0,230,231
 650 -98 650 -98 686 -74 c 0,232,233
 720 -56 720 -56 758 -50 c 1,234,235
 724 -34 724 -34 691 -8 c 128,-1,236
 658 18 658 18 634 53 c 128,-1,237
 610 88 610 88 600 124 c 128,-1,238
 590 160 590 160 589 178 c 128,-1,239
 588 196 588 196 588 206 c 0,240,241
 588 250 588 250 606 293 c 128,-1,242
 624 336 624 336 660 382 c 0,243,244
 680 404 680 404 698 420 c 128,-1,245
 716 436 716 436 741 453 c 128,-1,246
 766 470 766 470 787 480 c 128,-1,247
 808 490 808 490 848 506 c 1,248,-1
 868 466 l 1,249,250
 806 422 806 422 777 373 c 128,-1,251
 748 324 748 324 748 266 c 0,252,253
 748 232 748 232 756 204 c 128,-1,254
 764 176 764 176 786 152 c 0,255,256
 804 128 804 128 828 116 c 0,257,258
 844 110 844 110 878 106 c 1,259,260
 914 106 914 106 939 122 c 128,-1,261
 964 138 964 138 992 176 c 0,262,263
 1010 204 1010 204 1024 249 c 128,-1,264
 1038 294 1038 294 1038 346 c 0,265,266
 1038 466 1038 466 1004 552 c 1,267,268
 974 642 974 642 906 704 c 0,269,270
 880 728 880 728 840 751 c 128,-1,271
 800 774 800 774 746 792 c 128,-1,272
 692 810 692 810 636 818 c 1,273,-1
 518 826 l 1,274,275
 404 826 404 826 316 797 c 128,-1,276
 228 768 228 768 154 706 c 0,277,278
 88 646 88 646 53 566 c 128,-1,279
 18 486 18 486 18 386 c 0,280,281
 18 322 18 322 31 273 c 128,-1,282
 44 224 44 224 73 182 c 128,-1,283
 102 140 102 140 140 116 c 1,284,285
 180 96 180 96 218 96 c 1,286,287
 180 132 180 132 159 187 c 128,-1,288
 138 242 138 242 138 306 c 0,289,290
 138 352 138 352 151 388 c 128,-1,291
 164 424 164 424 196 456 c 0,292,293
 222 486 222 486 260 501 c 128,-1,294
 298 516 298 516 338 516 c 0,295,296
 372 516 372 516 408 498 c 0,297,298
 438 480 438 480 466 446 c 0,299,300
 488 414 488 414 504 368 c 0,301,302
 510 344 510 344 514 324 c 128,-1,303
 518 304 518 304 518 276 c 0,304,305
 518 224 518 224 499 180 c 128,-1,306
 480 136 480 136 443 99 c 128,-1,307
 406 62 406 62 359 44 c 128,-1,308
 312 26 312 26 258 26 c 0,309,310
 202 26 202 26 150 50 c 0,311,312
 126 62 126 62 104 80 c 128,-1,313
 82 98 82 98 60 126 c 0,314,315
 22 178 22 178 0 240 c 0,316,317
 -18 300 -18 300 -18 376 c 0,318,319
 -18 440 -18 440 -8 488 c 1,320,321
 -2 542 -2 542 17 594 c 128,-1,322
 36 646 36 646 63 688 c 128,-1,323
 90 730 90 730 126 760 c 0,324,325
 196 826 196 826 301 861 c 128,-1,326
 406 896 406 896 538 896 c 0,327,328
 690 896 690 896 814 859 c 128,-1,329
 938 822 938 822 1024 754 c 0,330,331
 1064 722 1064 722 1096 676 c 0,332,333
 1108 658 1108 658 1123 633 c 128,-1,334
 1138 608 1138 608 1152 580 c 0,335,336
 1158 564 1158 564 1168 534 c 128,-1,337
 1178 504 1178 504 1188 461 c 128,-1,338
 1198 418 1198 418 1198 356 c 0,339,340
 1198 288 1198 288 1176 232 c 0,341,342
 1158 178 1158 178 1116 130 c 128,-1,343
 1074 82 1074 82 1024 59 c 128,-1,344
 974 36 974 36 918 36 c 0,345,346
 874 36 874 36 838 51 c 128,-1,347
 802 66 802 66 771 97 c 128,-1,348
 740 128 740 128 722 170 c 0,349,350
 716 190 716 190 712 211 c 128,-1,351
 708 232 708 232 708 256 c 0,352,353
 708 300 708 300 723 340 c 128,-1,354
 738 380 738 380 768 416 c 1,355,-1
 712 374 l 1,356,357
 690 352 690 352 673 323 c 128,-1,358
 656 294 656 294 646 260 c 1,359,-1
 638 196 l 1,360,361
 638 138 638 138 660 95 c 128,-1,362
 682 52 682 52 728 12 c 1,363,364
 770 -18 770 -18 829 -39 c 128,-1,365
 888 -60 888 -60 948 -60 c 2,366,-1
 1098 -62 l 1,367,-1
 1098 -102 l 1,368,-1
 918 -102 l 2,369,370
 882 -102 882 -102 854 -113 c 128,-1,371
 826 -124 826 -124 803 -151 c 128,-1,372
 780 -178 780 -178 769 -211 c 128,-1,373
 758 -244 758 -244 758 -280 c 0,374,375
 758 -342 758 -342 733 -389 c 128,-1,376
 708 -436 708 -436 656 -476 c 0,377,378
 614 -508 614 -508 538 -530 c 0,174,175
322 184 m 0,379,380
 348 230 348 230 348 276 c 1,381,-1
 342 332 l 1,382,-1
 324 382 l 1,383,384
 312 402 312 402 299 414 c 128,-1,385
 286 426 286 426 268 426 c 0,386,387
 248 426 248 426 234 418 c 128,-1,388
 220 410 220 410 206 390 c 128,-1,389
 192 370 192 370 184 340 c 1,390,-1
 178 286 l 2,391,392
 178 258 178 258 180 244 c 128,-1,393
 182 230 182 230 193 203 c 128,-1,394
 204 176 204 176 215 158 c 128,-1,395
 226 140 226 140 248 106 c 1,396,397
 294 140 294 140 322 184 c 0,379,380
EndSplineSet
EndChar

StartChar: tm_ka
Encoding: 2965 2965 62
Width: 1072
GlyphClass: 2
Flags: W
LayerCount: 2
Fore
SplineSet
342 -2 m 2,0,1
 266 -2 266 -2 210 20 c 1,2,3
 150 38 150 38 101 81 c 128,-1,4
 52 124 52 124 27 175 c 128,-1,5
 2 226 2 226 2 286 c 0,6,7
 2 320 2 320 12 342 c 0,8,9
 20 368 20 368 40 390 c 128,-1,10
 60 412 60 412 85 424 c 128,-1,11
 110 436 110 436 142 436 c 2,12,-1
 242 436 l 1,13,-1
 242 656 l 1,14,-1
 172 656 l 1,15,-1
 172 696 l 1,16,17
 202 700 202 700 221 730 c 128,-1,18
 240 760 240 760 252 816 c 1,19,-1
 292 816 l 1,20,-1
 292 756 l 1,21,22
 322 796 322 796 367 816 c 128,-1,23
 412 836 412 836 462 836 c 0,24,25
 492 836 492 836 517 826 c 128,-1,26
 542 816 542 816 562 799 c 128,-1,27
 582 782 582 782 601 755 c 128,-1,28
 620 728 620 728 632 696 c 1,29,-1
 668 752 l 2,30,31
 686 776 686 776 710 795 c 128,-1,32
 734 814 734 814 764 825 c 128,-1,33
 794 836 794 836 805 836 c 128,-1,34
 816 836 816 836 822 836 c 0,35,36
 844 836 844 836 862 828 c 0,37,38
 884 822 884 822 898 806 c 1,39,40
 914 794 914 794 921 778 c 128,-1,41
 928 762 928 762 932 736 c 1,42,-1
 926 698 l 1,43,-1
 908 664 l 1,44,-1
 882 642 l 1,45,-1
 852 636 l 1,46,-1
 824 640 l 1,47,-1
 802 654 l 1,48,-1
 786 674 l 1,49,-1
 782 696 l 1,50,-1
 784 710 l 1,51,-1
 792 726 l 1,52,53
 792 740 792 740 784 748 c 1,54,-1
 762 756 l 1,55,56
 742 756 742 756 725 748 c 128,-1,57
 708 740 708 740 690 720 c 1,58,-1
 668 680 l 1,59,-1
 662 636 l 1,60,-1
 662 436 l 1,61,-1
 802 436 l 2,62,63
 852 436 852 436 886 420 c 0,64,65
 926 406 926 406 957 374 c 128,-1,66
 988 342 988 342 1005 302 c 128,-1,67
 1022 262 1022 262 1022 216 c 0,68,69
 1022 166 1022 166 1008 130 c 128,-1,70
 994 94 994 94 966 64 c 128,-1,71
 938 34 938 34 898 14 c 1,72,73
 860 0 860 0 822 0 c 2,74,-1
 792 -2 l 1,75,-1
 792 36 l 1,76,77
 804 40 804 40 815 52 c 128,-1,78
 826 64 826 64 836 90 c 2,79,-1
 848 138 l 1,80,-1
 852 196 l 2,81,82
 852 234 852 234 840 270 c 128,-1,83
 828 306 828 306 804 336 c 128,-1,84
 780 366 780 366 753 381 c 128,-1,85
 726 396 726 396 692 396 c 2,86,-1
 662 396 l 1,87,-1
 662 116 l 2,88,89
 662 94 662 94 666 84 c 2,90,-1
 684 58 l 1,91,-1
 710 40 l 1,92,-1
 742 36 l 1,93,-1
 742 -2 l 1,94,-1
 342 -2 l 2,0,1
70 194 m 0,95,96
 88 160 88 160 124 126 c 0,97,98
 156 100 156 100 204 80 c 0,99,100
 228 74 228 74 251 70 c 128,-1,101
 274 66 274 66 302 66 c 0,102,103
 338 66 338 66 368 78 c 128,-1,104
 398 90 398 90 430 122 c 0,105,106
 452 148 452 148 467 185 c 128,-1,107
 482 222 482 222 482 256 c 2,108,-1
 482 396 l 1,109,-1
 162 396 l 2,110,111
 136 396 136 396 119 388 c 128,-1,112
 102 380 102 380 85 360 c 128,-1,113
 68 340 68 340 60 320 c 1,114,-1
 52 276 l 1,115,116
 52 236 52 236 70 194 c 0,95,96
282 436 m 1,117,-1
 482 436 l 1,118,-1
 482 646 l 1,119,-1
 476 680 l 1,120,-1
 458 710 l 1,121,-1
 432 728 l 1,122,-1
 402 736 l 1,123,124
 374 736 374 736 353 726 c 128,-1,125
 332 716 332 716 316 699 c 128,-1,126
 300 682 300 682 290 656 c 1,127,-1
 282 606 l 1,128,-1
 282 436 l 1,117,-1
EndSplineSet
EndChar

StartChar: tm_nga
Encoding: 2969 2969 63
Width: 1304
GlyphClass: 2
Flags: W
LayerCount: 2
Fore
SplineSet
-36 -2 m 1,0,-1
 -36 36 l 1,1,2
 -14 36 -14 36 2 43 c 128,-1,3
 18 50 18 50 34 68 c 1,4,-1
 54 102 l 1,5,-1
 62 146 l 1,6,-1
 62 696 l 1,7,-1
 -16 696 l 1,8,-1
 -16 726 l 1,9,10
 2 726 2 726 18 734 c 128,-1,11
 34 742 34 742 46 756 c 2,12,-1
 64 788 l 1,13,-1
 72 826 l 1,14,-1
 102 826 l 1,15,-1
 102 746 l 1,16,17
 114 766 114 766 134 784 c 2,18,-1
 176 812 l 2,19,20
 198 824 198 824 222 830 c 2,21,-1
 272 836 l 1,22,23
 338 836 338 836 385 811 c 128,-1,24
 432 786 432 786 462 736 c 1,25,26
 492 790 492 790 532 818 c 128,-1,27
 572 846 572 846 622 846 c 0,28,29
 650 846 650 846 673 839 c 128,-1,30
 696 832 696 832 714 816 c 0,31,32
 730 806 730 806 742 784 c 0,33,34
 748 772 748 772 752 746 c 0,35,36
 752 726 752 726 744 710 c 2,37,-1
 726 682 l 1,38,-1
 696 662 l 1,39,-1
 662 656 l 2,40,41
 640 656 640 656 630 660 c 2,42,-1
 604 672 l 1,43,-1
 586 692 l 1,44,-1
 582 716 l 1,45,-1
 584 724 l 1,46,-1
 596 736 l 1,47,-1
 608 746 l 1,48,-1
 612 756 l 1,49,-1
 608 764 l 1,50,-1
 602 776 l 1,51,52
 578 776 578 776 554 764 c 1,53,-1
 516 728 l 1,54,55
 498 704 498 704 490 676 c 1,56,-1
 482 616 l 1,57,-1
 482 476 l 1,58,59
 506 506 506 506 540 521 c 128,-1,60
 574 536 574 536 612 536 c 0,61,62
 660 536 660 536 703 518 c 128,-1,63
 746 500 746 500 777 466 c 128,-1,64
 808 432 808 432 826 388 c 0,65,66
 834 366 834 366 838 346 c 128,-1,67
 842 326 842 326 842 296 c 0,68,69
 842 206 842 206 821 145 c 128,-1,70
 800 84 800 84 752 36 c 1,71,-1
 932 36 l 2,72,73
 946 36 946 36 958 42 c 128,-1,74
 970 48 970 48 982 68 c 2,75,-1
 996 102 l 1,76,-1
 1002 146 l 1,77,-1
 1002 676 l 1,78,-1
 922 676 l 1,79,-1
 922 716 l 1,80,-1
 970 722 l 1,81,82
 994 730 994 730 1013 745 c 128,-1,83
 1032 760 1032 760 1040 775 c 128,-1,84
 1048 790 1048 790 1052 816 c 1,85,-1
 1182 816 l 1,86,-1
 1182 106 l 1,87,-1
 1186 78 l 1,88,-1
 1200 56 l 1,89,-1
 1220 40 l 1,90,-1
 1242 36 l 1,91,-1
 1242 -2 l 1,92,-1
 322 -2 l 1,93,-1
 322 36 l 1,94,-1
 472 36 l 2,95,96
 512 36 512 36 549 54 c 128,-1,97
 586 72 586 72 620 108 c 0,98,99
 646 140 646 140 666 188 c 0,100,101
 674 212 674 212 678 234 c 128,-1,102
 682 256 682 256 682 286 c 0,103,104
 682 326 682 326 674 352 c 0,105,106
 668 382 668 382 656 406 c 128,-1,107
 644 430 644 430 628 442 c 128,-1,108
 612 454 612 454 592 456 c 1,109,-1
 554 450 l 2,110,111
 538 446 538 446 522 436 c 128,-1,112
 506 426 506 426 496 414 c 2,113,-1
 482 386 l 1,114,-1
 482 216 l 2,115,116
 482 194 482 194 486 184 c 2,117,-1
 498 158 l 1,118,-1
 518 140 l 1,119,-1
 542 136 l 1,120,-1
 542 96 l 1,121,-1
 222 96 l 1,122,-1
 222 136 l 1,123,124
 238 136 238 136 251 143 c 128,-1,125
 264 150 264 150 278 170 c 1,126,-1
 296 208 l 1,127,-1
 302 256 l 1,128,-1
 302 656 l 2,129,130
 302 678 302 678 295 695 c 128,-1,131
 288 712 288 712 272 726 c 0,132,133
 262 738 262 738 240 748 c 1,134,-1
 202 756 l 2,135,136
 186 756 186 756 168 745 c 128,-1,137
 150 734 150 734 130 708 c 1,138,-1
 108 656 l 1,139,-1
 102 596 l 1,140,-1
 102 116 l 2,141,142
 102 94 102 94 106 84 c 2,143,-1
 118 58 l 1,144,-1
 138 40 l 1,145,-1
 162 36 l 1,146,-1
 162 -2 l 1,147,-1
 -36 -2 l 1,0,-1
EndSplineSet
EndChar

StartChar: tm_ca
Encoding: 2970 2970 64
Width: 1052
GlyphClass: 2
Flags: W
LayerCount: 2
Fore
SplineSet
282 -2 m 2,0,1
 206 -2 206 -2 150 20 c 1,2,3
 88 38 88 38 44 80 c 128,-1,4
 0 122 0 122 -28 174 c 0,5,6
 -34 188 -34 188 -44 219 c 128,-1,7
 -54 250 -54 250 -54 286 c 0,8,9
 -54 320 -54 320 -44 342 c 0,10,11
 -36 368 -36 368 -17 390 c 128,-1,12
 2 412 2 412 27 424 c 128,-1,13
 52 436 52 436 82 436 c 2,14,-1
 182 436 l 1,15,-1
 182 656 l 1,16,-1
 112 656 l 1,17,-1
 112 696 l 1,18,19
 142 700 142 700 161 730 c 128,-1,20
 180 760 180 760 192 816 c 1,21,-1
 232 816 l 1,22,-1
 232 746 l 1,23,24
 266 790 266 790 310 813 c 128,-1,25
 354 836 354 836 402 836 c 0,26,27
 432 836 432 836 454 826 c 1,28,29
 478 820 478 820 504 800 c 0,30,31
 524 786 524 786 542 762 c 128,-1,32
 560 738 560 738 572 706 c 1,33,34
 602 770 602 770 651 803 c 128,-1,35
 700 836 700 836 762 836 c 0,36,37
 784 836 784 836 802 828 c 0,38,39
 824 822 824 822 838 806 c 1,40,41
 854 794 854 794 861 778 c 128,-1,42
 868 762 868 762 872 736 c 1,43,-1
 866 696 l 2,44,45
 862 678 862 678 852 664 c 2,46,-1
 830 642 l 1,47,48
 818 636 818 636 802 636 c 0,49,50
 780 636 780 636 770 640 c 2,51,-1
 744 652 l 1,52,-1
 726 672 l 1,53,-1
 722 696 l 1,54,-1
 724 710 l 1,55,-1
 732 726 l 1,56,57
 732 740 732 740 724 748 c 1,58,-1
 702 756 l 1,59,60
 682 756 682 756 665 748 c 128,-1,61
 648 740 648 740 630 720 c 1,62,-1
 608 680 l 1,63,-1
 602 636 l 1,64,-1
 602 436 l 1,65,-1
 1002 436 l 1,66,-1
 1002 396 l 1,67,-1
 602 396 l 1,68,-1
 602 116 l 2,69,70
 602 94 602 94 606 84 c 2,71,-1
 624 58 l 1,72,-1
 650 40 l 1,73,-1
 682 36 l 1,74,-1
 682 -2 l 1,75,-1
 282 -2 l 2,0,1
12 194 m 0,76,77
 30 160 30 160 66 126 c 0,78,79
 98 100 98 100 146 80 c 1,80,81
 196 66 196 66 242 66 c 0,82,83
 278 66 278 66 308 78 c 128,-1,84
 338 90 338 90 370 122 c 0,85,86
 392 148 392 148 407 185 c 128,-1,87
 422 222 422 222 422 256 c 2,88,-1
 422 396 l 1,89,-1
 102 396 l 2,90,91
 76 396 76 396 59 388 c 128,-1,92
 42 380 42 380 24 360 c 1,93,-1
 2 320 l 1,94,-1
 -4 276 l 2,95,96
 -6 238 -6 238 12 194 c 0,76,77
222 436 m 1,97,-1
 422 436 l 1,98,-1
 422 646 l 1,99,-1
 416 680 l 1,100,-1
 398 710 l 1,101,-1
 372 728 l 1,102,-1
 342 736 l 1,103,104
 314 736 314 736 293 726 c 128,-1,105
 272 716 272 716 256 699 c 128,-1,106
 240 682 240 682 230 656 c 1,107,-1
 222 606 l 1,108,-1
 222 436 l 1,97,-1
EndSplineSet
EndChar

StartChar: tm_ja
Encoding: 2972 2972 65
Width: 1270
GlyphClass: 2
Flags: W
LayerCount: 2
Fore
SplineSet
578 -410 m 0,0,1
 552 -454 552 -454 513 -487 c 128,-1,2
 474 -520 474 -520 428 -540 c 128,-1,3
 382 -560 382 -560 330 -560 c 0,4,5
 254 -560 254 -560 192 -532 c 0,6,7
 130 -508 130 -508 76 -454 c 0,8,9
 28 -402 28 -402 1 -336 c 128,-1,10
 -26 -270 -26 -270 -26 -200 c 256,11,12
 -26 -130 -26 -130 -2 -66 c 128,-1,13
 22 -2 22 -2 72 44 c 0,14,15
 122 94 122 94 186 120 c 128,-1,16
 250 146 250 146 320 146 c 2,17,-1
 770 146 l 2,18,19
 834 146 834 146 884 172 c 0,20,21
 910 184 910 184 932 202 c 128,-1,22
 954 220 954 220 974 248 c 0,23,24
 1008 296 1008 296 1030 368 c 0,25,26
 1050 444 1050 444 1050 526 c 0,27,28
 1050 580 1050 580 1039 630 c 128,-1,29
 1028 680 1028 680 1007 717 c 128,-1,30
 986 754 986 754 960 773 c 128,-1,31
 934 792 934 792 900 796 c 0,32,33
 870 796 870 796 844 783 c 128,-1,34
 818 770 818 770 797 744 c 128,-1,35
 776 718 776 718 760 678 c 0,36,37
 750 644 750 644 750 606 c 2,38,-1
 750 386 l 1,39,-1
 756 342 l 1,40,-1
 774 308 l 1,41,-1
 800 284 l 1,42,-1
 830 276 l 1,43,-1
 830 236 l 1,44,-1
 510 236 l 1,45,-1
 510 276 l 1,46,-1
 540 282 l 2,47,48
 554 288 554 288 566 304 c 128,-1,49
 578 320 578 320 584 338 c 2,50,-1
 590 376 l 1,51,-1
 590 536 l 2,52,53
 590 592 590 592 568 636 c 1,54,55
 550 682 550 682 509 718 c 128,-1,56
 468 754 468 754 416 776 c 0,57,58
 396 784 396 784 367 790 c 128,-1,59
 338 796 338 796 310 796 c 0,60,61
 244 796 244 796 192 777 c 128,-1,62
 140 758 140 758 101 721 c 128,-1,63
 62 684 62 684 41 630 c 128,-1,64
 20 576 20 576 20 516 c 0,65,66
 20 470 20 470 33 423 c 128,-1,67
 46 376 46 376 72 344 c 0,68,69
 94 312 94 312 128 294 c 128,-1,70
 162 276 162 276 200 276 c 1,71,72
 160 304 160 304 132 360 c 1,73,74
 110 414 110 414 110 486 c 0,75,76
 110 528 110 528 123 563 c 128,-1,77
 136 598 136 598 165 627 c 128,-1,78
 194 656 194 656 229 671 c 128,-1,79
 264 686 264 686 300 686 c 0,80,81
 326 686 326 686 338 683 c 128,-1,82
 350 680 350 680 373 670 c 128,-1,83
 396 660 396 660 428 628 c 1,84,85
 450 600 450 600 465 562 c 128,-1,86
 480 524 480 524 480 486 c 0,87,88
 480 434 480 434 464 385 c 128,-1,89
 448 336 448 336 412 294 c 0,90,91
 384 260 384 260 339 238 c 128,-1,92
 294 216 294 216 250 216 c 0,93,94
 186 216 186 216 134 236 c 0,95,96
 90 256 90 256 46 302 c 1,97,98
 10 346 10 346 -8 404 c 128,-1,99
 -26 462 -26 462 -26 536 c 0,100,101
 -26 612 -26 612 -2 676 c 128,-1,102
 22 740 22 740 72 784 c 128,-1,103
 122 828 122 828 189 852 c 128,-1,104
 256 876 256 876 340 876 c 0,105,106
 412 876 412 876 470 862 c 0,107,108
 534 850 534 850 584 825 c 128,-1,109
 634 800 634 800 668 765 c 128,-1,110
 702 730 702 730 720 686 c 1,111,112
 736 730 736 730 760 762 c 0,113,114
 784 800 784 800 817 823 c 128,-1,115
 850 846 850 846 886 862 c 0,116,117
 928 876 928 876 960 876 c 0,118,119
 1012 876 1012 876 1055 851 c 128,-1,120
 1098 826 1098 826 1135 775 c 128,-1,121
 1172 724 1172 724 1191 660 c 128,-1,122
 1210 596 1210 596 1210 526 c 1,123,-1
 1204 436 l 1,124,-1
 1186 354 l 2,125,126
 1180 336 1180 336 1174 320 c 128,-1,127
 1168 304 1168 304 1156 279 c 128,-1,128
 1144 254 1144 254 1120 224 c 0,129,130
 1080 172 1080 172 1014 142 c 0,131,132
 948 116 948 116 870 116 c 2,133,-1
 390 116 l 2,134,135
 336 116 336 116 290 90 c 0,136,137
 264 76 264 76 246 60 c 128,-1,138
 228 44 228 44 206 14 c 0,139,140
 174 -30 174 -30 148 -96 c 1,141,142
 130 -156 130 -156 130 -230 c 0,143,144
 130 -268 130 -268 132 -286 c 128,-1,145
 134 -304 134 -304 147 -343 c 128,-1,146
 160 -382 160 -382 194 -422 c 0,147,148
 222 -460 222 -460 264 -480 c 0,149,150
 282 -488 282 -488 304 -494 c 128,-1,151
 326 -500 326 -500 350 -500 c 0,152,153
 394 -500 394 -500 430 -479 c 128,-1,154
 466 -458 466 -458 506 -410 c 0,155,156
 520 -392 520 -392 535 -366 c 128,-1,157
 550 -340 550 -340 564 -308 c 0,158,159
 588 -250 588 -250 600 -180 c 1,160,161
 618 -128 618 -128 649 -83 c 128,-1,162
 680 -38 680 -38 721 -8 c 128,-1,163
 762 22 762 22 813 39 c 128,-1,164
 864 56 864 56 910 56 c 0,165,166
 972 56 972 56 1025 37 c 128,-1,167
 1078 18 1078 18 1121 -21 c 128,-1,168
 1164 -60 1164 -60 1188 -106 c 0,169,170
 1210 -156 1210 -156 1210 -210 c 0,171,172
 1210 -300 1210 -300 1188 -364 c 128,-1,173
 1166 -428 1166 -428 1120 -474 c 1,174,175
 1078 -524 1078 -524 1014 -546 c 0,176,177
 954 -570 954 -570 870 -570 c 0,178,179
 814 -570 814 -570 770 -551 c 128,-1,180
 726 -532 726 -532 690 -490 c 1,181,-1
 730 -452 l 1,182,183
 746 -480 746 -480 778 -495 c 128,-1,184
 810 -510 810 -510 860 -510 c 0,185,186
 900 -510 900 -510 935 -492 c 128,-1,187
 970 -474 970 -474 998 -438 c 0,188,189
 1020 -404 1020 -404 1036 -352 c 0,190,191
 1042 -326 1042 -326 1046 -300 c 128,-1,192
 1050 -274 1050 -274 1050 -240 c 0,193,194
 1050 -190 1050 -190 1037 -146 c 128,-1,195
 1024 -102 1024 -102 1000 -69 c 128,-1,196
 976 -36 976 -36 942 -18 c 128,-1,197
 908 0 908 0 870 0 c 0,198,199
 826 0 826 0 786 -20 c 0,200,201
 750 -42 750 -42 713 -86 c 128,-1,202
 676 -130 676 -130 654 -186 c 0,203,204
 646 -208 646 -208 637 -238 c 128,-1,205
 628 -268 628 -268 618 -316 c 128,-1,206
 608 -364 608 -364 578 -410 c 0,0,1
154 428 m 2,207,-1
 172 374 l 1,208,-1
 196 328 l 1,209,-1
 230 296 l 1,210,-1
 272 334 l 2,211,212
 290 352 290 352 303 376 c 128,-1,213
 316 400 316 400 322 424 c 2,214,-1
 330 476 l 1,215,216
 330 504 330 504 322 526 c 2,217,-1
 304 568 l 2,218,219
 294 582 294 582 274 596 c 0,220,221
 262 602 262 602 240 606 c 0,222,223
 220 606 220 606 205 598 c 128,-1,224
 190 590 190 590 176 570 c 2,225,-1
 156 530 l 1,226,-1
 150 486 l 1,227,228
 150 448 150 448 154 428 c 2,207,-1
EndSplineSet
EndChar

StartChar: tm_nya
Encoding: 2974 2974 66
Width: 1566
GlyphClass: 2
Flags: W
LayerCount: 2
Fore
SplineSet
882 -2 m 1,0,-1
 882 36 l 1,1,2
 898 36 898 36 911 43 c 128,-1,3
 924 50 924 50 938 70 c 1,4,-1
 956 108 l 1,5,-1
 962 156 l 1,6,-1
 962 496 l 2,7,8
 962 546 962 546 939 590 c 128,-1,9
 916 634 916 634 866 673 c 128,-1,10
 816 712 816 712 759 729 c 128,-1,11
 702 746 702 746 632 746 c 0,12,13
 552 746 552 746 491 720 c 128,-1,14
 430 694 430 694 386 646 c 128,-1,15
 342 598 342 598 314 526 c 1,16,17
 292 456 292 456 292 376 c 0,18,19
 292 310 292 310 303 264 c 128,-1,20
 314 218 314 218 337 173 c 128,-1,21
 360 128 360 128 389 105 c 128,-1,22
 418 82 418 82 452 76 c 1,23,24
 424 104 424 104 406 156 c 1,25,26
 392 212 392 212 392 276 c 0,27,28
 392 324 392 324 406 360 c 0,29,30
 418 400 418 400 447 431 c 128,-1,31
 476 462 476 462 511 479 c 128,-1,32
 546 496 546 496 582 496 c 0,33,34
 620 496 620 496 657 479 c 128,-1,35
 694 462 694 462 722 428 c 1,36,37
 752 400 752 400 766 354 c 0,38,39
 782 312 782 312 782 266 c 256,40,41
 782 220 782 220 780 201 c 128,-1,42
 778 182 778 182 764 138 c 128,-1,43
 750 94 750 94 720 57 c 128,-1,44
 690 20 690 20 645 0 c 128,-1,45
 600 -20 600 -20 552 -20 c 0,46,47
 482 -20 482 -20 431 7 c 128,-1,48
 380 34 380 34 332 94 c 0,49,50
 292 150 292 150 264 222 c 1,51,52
 242 294 242 294 242 376 c 0,53,54
 242 484 242 484 272 571 c 128,-1,55
 302 658 302 658 366 717 c 128,-1,56
 430 776 430 776 515 806 c 128,-1,57
 600 836 600 836 712 836 c 0,58,59
 744 836 744 836 776 834 c 128,-1,60
 808 832 808 832 852 825 c 128,-1,61
 896 818 896 818 948 796 c 0,62,63
 1000 778 1000 778 1038 748 c 0,64,65
 1070 724 1070 724 1102 686 c 1,66,67
 1112 722 1112 722 1131 748 c 128,-1,68
 1150 774 1150 774 1175 794 c 128,-1,69
 1200 814 1200 814 1225 823 c 128,-1,70
 1250 832 1250 832 1292 836 c 0,71,72
 1316 836 1316 836 1336 829 c 128,-1,73
 1356 822 1356 822 1375 806 c 128,-1,74
 1394 790 1394 790 1401 773 c 128,-1,75
 1408 756 1408 756 1412 726 c 1,76,-1
 1406 694 l 1,77,-1
 1388 668 l 1,78,-1
 1362 650 l 1,79,-1
 1332 646 l 1,80,-1
 1308 648 l 1,81,-1
 1288 658 l 1,82,-1
 1276 670 l 1,83,-1
 1272 686 l 1,84,-1
 1274 694 l 2,85,86
 1278 704 1278 704 1282 706 c 2,87,-1
 1288 716 l 1,88,-1
 1292 726 l 1,89,90
 1292 740 1292 740 1278 748 c 1,91,-1
 1242 756 l 2,92,93
 1226 756 1226 756 1208 745 c 128,-1,94
 1190 734 1190 734 1170 708 c 1,95,-1
 1148 656 l 1,96,-1
 1142 596 l 1,97,-1
 1142 256 l 1,98,99
 1158 286 1158 286 1192 308 c 0,100,101
 1226 326 1226 326 1272 326 c 0,102,103
 1320 326 1320 326 1358 304 c 128,-1,104
 1396 282 1396 282 1428 237 c 128,-1,105
 1460 192 1460 192 1476 135 c 128,-1,106
 1492 78 1492 78 1492 16 c 0,107,108
 1492 -114 1492 -114 1447 -214 c 128,-1,109
 1402 -314 1402 -314 1312 -388 c 128,-1,110
 1222 -462 1222 -462 1087 -501 c 128,-1,111
 952 -540 952 -540 792 -540 c 0,112,113
 608 -540 608 -540 462 -486 c 128,-1,114
 316 -432 316 -432 212 -325 c 128,-1,115
 108 -218 108 -218 55 -67 c 128,-1,116
 2 84 2 84 2 276 c 0,117,118
 2 362 2 362 5 395 c 128,-1,119
 8 428 8 428 18 484 c 0,120,121
 36 580 36 580 72 658 c 0,122,123
 104 736 104 736 148 776 c 128,-1,124
 192 816 192 816 242 816 c 0,125,126
 266 816 266 816 285 809 c 128,-1,127
 304 802 304 802 322 786 c 1,128,129
 296 776 296 776 278 759 c 128,-1,130
 260 742 260 742 246 718 c 2,131,-1
 224 666 l 1,132,-1
 212 606 l 1,133,134
 182 606 182 606 148 582 c 1,135,136
 122 558 122 558 98 511 c 128,-1,137
 74 464 74 464 64 411 c 128,-1,138
 54 358 54 358 53 330 c 128,-1,139
 52 302 52 302 52 286 c 0,140,141
 52 106 52 106 99 -23 c 128,-1,142
 146 -152 146 -152 242 -248 c 0,143,144
 286 -292 286 -292 342 -327 c 128,-1,145
 398 -362 398 -362 470 -388 c 128,-1,146
 542 -414 542 -414 616 -426 c 0,147,148
 654 -432 654 -432 693 -436 c 128,-1,149
 732 -440 732 -440 772 -440 c 0,150,151
 900 -440 900 -440 998 -407 c 128,-1,152
 1096 -374 1096 -374 1170 -307 c 128,-1,153
 1244 -240 1244 -240 1283 -148 c 128,-1,154
 1322 -56 1322 -56 1322 46 c 0,155,156
 1322 62 1322 62 1322 80 c 1,157,158
 1316 104 1316 104 1312 128 c 128,-1,159
 1308 152 1308 152 1292 178 c 1,160,161
 1280 206 1280 206 1262 219 c 128,-1,162
 1244 232 1244 232 1222 236 c 1,163,164
 1198 236 1198 236 1179 223 c 128,-1,165
 1160 210 1160 210 1142 186 c 1,166,-1
 1142 116 l 2,167,168
 1142 94 1142 94 1146 84 c 2,169,-1
 1164 58 l 1,170,-1
 1190 40 l 1,171,-1
 1222 36 l 1,172,-1
 1222 -2 l 1,173,-1
 882 -2 l 1,0,-1
458 154 m 0,174,175
 476 112 476 112 512 76 c 1,176,177
 564 104 564 104 593 155 c 128,-1,178
 622 206 622 206 622 266 c 0,179,180
 622 298 622 298 614 320 c 2,181,-1
 596 366 l 1,182,183
 584 384 584 384 569 393 c 128,-1,184
 554 402 554 402 532 406 c 0,185,186
 514 406 514 406 499 396 c 128,-1,187
 484 386 484 386 468 362 c 1,188,-1
 448 312 l 1,189,-1
 442 256 l 2,190,191
 442 236 442 236 443 213 c 128,-1,192
 444 190 444 190 458 154 c 0,174,175
EndSplineSet
EndChar

StartChar: tm_tta
Encoding: 2975 2975 67
Width: 1446
GlyphClass: 2
Flags: W
LayerCount: 2
Fore
SplineSet
-20 -2 m 1,0,-1
 -20 36 l 1,1,2
 -6 36 -6 36 7 43 c 128,-1,3
 20 50 20 50 34 70 c 1,4,-1
 52 108 l 1,5,-1
 58 156 l 1,6,-1
 58 676 l 1,7,-1
 -20 666 l 1,8,-1
 -20 716 l 1,9,-1
 32 722 l 2,10,11
 58 728 58 728 78 744 c 128,-1,12
 98 760 98 760 106 775 c 128,-1,13
 114 790 114 790 118 816 c 1,14,-1
 238 816 l 1,15,-1
 238 166 l 2,16,17
 238 140 238 140 245 115 c 128,-1,18
 252 90 252 90 268 74 c 2,19,-1
 300 44 l 1,20,-1
 338 36 l 1,21,-1
 1258 36 l 2,22,23
 1290 36 1290 36 1310 48 c 128,-1,24
 1330 60 1330 60 1338 86 c 1,25,-1
 1338 136 l 1,26,-1
 1378 136 l 1,27,-1
 1378 76 l 1,28,-1
 1372 44 l 1,29,-1
 1354 20 l 2,30,31
 1344 10 1344 10 1328 4 c 2,32,-1
 1298 0 l 1,33,-1
 -20 -2 l 1,0,-1
EndSplineSet
EndChar

StartChar: tm_nna
Encoding: 2979 2979 68
Width: 2122
GlyphClass: 2
Flags: W
LayerCount: 2
Fore
SplineSet
396 36 m 0,0,1
 350 16 350 16 302 16 c 0,2,3
 284 16 284 16 266 16 c 1,4,5
 246 22 246 22 238 24 c 0,6,7
 204 32 204 32 178 46 c 2,8,-1
 126 82 l 1,9,10
 102 104 102 104 84 130 c 0,11,12
 42 184 42 184 22 265 c 128,-1,13
 2 346 2 346 2 436 c 0,14,15
 2 538 2 538 33 617 c 128,-1,16
 64 696 64 696 128 757 c 128,-1,17
 192 818 192 818 276 847 c 128,-1,18
 360 876 360 876 472 876 c 0,19,20
 556 876 556 876 630 857 c 128,-1,21
 704 838 704 838 762 806 c 1,22,23
 806 836 806 836 866 856 c 128,-1,24
 926 876 926 876 992 876 c 0,25,26
 1016 876 1016 876 1045 875 c 128,-1,27
 1074 874 1074 874 1114 860 c 1,28,29
 1164 848 1164 848 1202 816 c 1,30,31
 1236 844 1236 844 1292 860 c 0,32,33
 1320 868 1320 868 1349 872 c 128,-1,34
 1378 876 1378 876 1422 876 c 0,35,36
 1476 876 1476 876 1519 866 c 128,-1,37
 1562 856 1562 856 1598 834 c 1,38,39
 1636 816 1636 816 1668 784 c 128,-1,40
 1700 752 1700 752 1722 716 c 1,41,42
 1758 796 1758 796 1808 836 c 128,-1,43
 1858 876 1858 876 1912 876 c 0,44,45
 1936 876 1936 876 1954 869 c 128,-1,46
 1972 862 1972 862 1989 846 c 128,-1,47
 2006 830 2006 830 2014 808 c 2,48,-1
 2022 766 l 1,49,-1
 2016 722 l 1,50,-1
 1998 688 l 1,51,-1
 1972 664 l 1,52,-1
 1942 656 l 1,53,54
 1920 656 1920 656 1910 660 c 2,55,-1
 1884 672 l 1,56,-1
 1866 692 l 1,57,-1
 1862 716 l 1,58,-1
 1864 724 l 2,59,60
 1868 734 1868 734 1872 736 c 2,61,-1
 1878 746 l 1,62,-1
 1882 756 l 1,63,64
 1880 768 1880 768 1874 772 c 128,-1,65
 1868 776 1868 776 1862 776 c 0,66,67
 1842 776 1842 776 1825 768 c 128,-1,68
 1808 760 1808 760 1790 740 c 1,69,-1
 1768 700 l 1,70,-1
 1762 656 l 1,71,-1
 1762 196 l 1,72,-1
 1768 152 l 1,73,-1
 1786 118 l 1,74,-1
 1812 94 l 1,75,-1
 1842 86 l 1,76,-1
 1842 36 l 1,77,-1
 1502 36 l 1,78,-1
 1502 76 l 1,79,80
 1520 76 1520 76 1534 83 c 128,-1,81
 1548 90 1548 90 1560 106 c 1,82,-1
 1576 142 l 1,83,-1
 1582 186 l 1,84,-1
 1582 596 l 2,85,86
 1582 646 1582 646 1566 680 c 1,87,88
 1554 720 1554 720 1524 751 c 128,-1,89
 1494 782 1494 782 1458 800 c 0,90,91
 1434 810 1434 810 1420 813 c 128,-1,92
 1406 816 1406 816 1382 816 c 0,93,94
 1328 816 1328 816 1299 807 c 128,-1,95
 1270 798 1270 798 1252 776 c 1,96,97
 1296 740 1296 740 1332 689 c 128,-1,98
 1368 638 1368 638 1392 584 c 128,-1,99
 1416 530 1416 530 1428 464 c 0,100,101
 1434 432 1434 432 1438 402 c 128,-1,102
 1442 372 1442 372 1442 336 c 0,103,104
 1442 286 1442 286 1440 265 c 128,-1,105
 1438 244 1438 244 1426 206 c 0,106,107
 1414 150 1414 150 1384 104 c 1,108,-1
 1354 68 l 1,109,-1
 1316 40 l 2,110,111
 1298 28 1298 28 1274 22 c 2,112,-1
 1232 16 l 1,113,-1
 1190 22 l 1,114,-1
 1148 42 l 1,115,-1
 1110 72 l 2,116,117
 1090 92 1090 92 1080 112 c 0,118,119
 1052 156 1052 156 1036 222 c 0,120,121
 1030 256 1030 256 1026 290 c 128,-1,122
 1022 324 1022 324 1022 366 c 2,123,-1
 1028 476 l 2,124,125
 1034 538 1034 538 1050 578 c 0,126,127
 1054 598 1054 598 1063 622 c 128,-1,128
 1072 646 1072 646 1084 664 c 0,129,130
 1106 704 1106 704 1132 736 c 1,131,132
 1092 776 1092 776 1044 796 c 0,133,134
 1022 804 1022 804 995 810 c 128,-1,135
 968 816 968 816 942 816 c 0,136,137
 882 816 882 816 851 807 c 128,-1,138
 820 798 820 798 802 776 c 1,139,140
 844 746 844 746 875 705 c 128,-1,141
 906 664 906 664 932 606 c 128,-1,142
 958 548 958 548 970 487 c 128,-1,143
 982 426 982 426 982 356 c 0,144,145
 982 274 982 274 969 214 c 128,-1,146
 956 154 956 154 930 108 c 1,147,-1
 902 68 l 1,148,-1
 870 40 l 1,149,-1
 832 22 l 1,150,-1
 792 16 l 1,151,152
 740 16 740 16 703 37 c 128,-1,153
 666 58 666 58 635 102 c 128,-1,154
 604 146 604 146 586 210 c 0,155,156
 580 242 580 242 576 274 c 128,-1,157
 572 306 572 306 572 346 c 2,158,-1
 578 474 l 2,159,160
 584 540 584 540 600 582 c 1,161,162
 612 632 612 632 634 671 c 128,-1,163
 656 710 656 710 682 736 c 1,164,165
 642 776 642 776 583 796 c 128,-1,166
 524 816 524 816 452 816 c 0,167,168
 358 816 358 816 288 788 c 1,169,170
 216 764 216 764 162 710 c 128,-1,171
 108 656 108 656 78 584 c 1,172,173
 52 510 52 510 52 426 c 0,174,175
 52 400 52 400 54 374 c 128,-1,176
 56 348 56 348 65 311 c 128,-1,177
 74 274 74 274 93 237 c 128,-1,178
 112 200 112 200 142 170 c 0,179,180
 166 150 166 150 202 136 c 1,181,182
 176 170 176 170 156 232 c 0,183,184
 150 262 150 262 146 290 c 128,-1,185
 142 318 142 318 142 356 c 0,186,187
 142 404 142 404 156 440 c 0,188,189
 168 480 168 480 197 511 c 128,-1,190
 226 542 226 542 261 559 c 128,-1,191
 296 576 296 576 332 576 c 0,192,193
 374 576 374 576 408 556 c 0,194,195
 446 538 446 538 474 501 c 128,-1,196
 502 464 502 464 517 416 c 128,-1,197
 532 368 532 368 532 316 c 0,198,199
 532 272 532 272 530 251 c 128,-1,200
 528 230 528 230 514 183 c 128,-1,201
 500 136 500 136 470 96 c 128,-1,202
 440 56 440 56 396 36 c 0,0,1
630 284 m 0,203,204
 636 236 636 236 652 206 c 0,205,206
 668 168 668 168 684 152 c 0,207,208
 700 140 700 140 722 136 c 0,209,210
 738 136 738 136 755 149 c 128,-1,211
 772 162 772 162 785 188 c 128,-1,212
 798 214 798 214 804 246 c 2,213,-1
 812 316 l 1,214,215
 812 380 812 380 806 435 c 128,-1,216
 800 490 800 490 786 540 c 0,217,218
 762 638 762 638 712 696 c 1,219,220
 672 644 672 644 644 562 c 1,221,222
 622 480 622 480 622 376 c 0,223,224
 622 352 622 352 622 337 c 128,-1,225
 622 322 622 322 630 284 c 0,203,204
1216 152 m 0,226,227
 1232 170 1232 170 1245 205 c 128,-1,228
 1258 240 1258 240 1264 282 c 2,229,-1
 1272 376 l 1,230,231
 1272 476 1272 476 1244 555 c 128,-1,232
 1216 634 1216 634 1162 696 c 1,233,234
 1118 640 1118 640 1086 552 c 1,235,236
 1062 470 1062 470 1062 366 c 0,237,238
 1062 314 1062 314 1070 276 c 128,-1,239
 1078 238 1078 238 1080 233 c 128,-1,240
 1082 228 1082 228 1099 200 c 128,-1,241
 1116 172 1116 172 1136 152 c 1,242,243
 1158 136 1158 136 1182 136 c 0,244,245
 1200 136 1200 136 1216 152 c 0,226,227
206 232 m 0,246,247
 222 188 222 188 252 156 c 1,248,249
 270 160 270 160 284 172 c 128,-1,250
 298 184 298 184 316 216 c 0,251,252
 328 244 328 244 334 276 c 2,253,-1
 342 346 l 1,254,-1
 336 392 l 2,255,256
 334 412 334 412 323 430 c 128,-1,257
 312 448 312 448 301 455 c 128,-1,258
 290 462 290 462 272 466 c 1,259,260
 252 466 252 466 240 456 c 0,261,262
 228 450 228 450 215 430 c 128,-1,263
 202 410 202 410 196 390 c 1,264,-1
 192 346 l 1,265,266
 192 276 192 276 206 232 c 0,246,247
EndSplineSet
EndChar

StartChar: tm_ta
Encoding: 2980 2980 69
Width: 1054
GlyphClass: 2
Flags: W
LayerCount: 2
Fore
SplineSet
210 18 m 0,0,1
 152 36 152 36 103 76 c 128,-1,2
 54 116 54 116 28 166 c 128,-1,3
 2 216 2 216 2 276 c 0,4,5
 2 312 2 312 13 339 c 128,-1,6
 24 366 24 366 46 390 c 0,7,8
 62 406 62 406 90 421 c 128,-1,9
 118 436 118 436 152 436 c 2,10,-1
 242 436 l 1,11,-1
 242 656 l 1,12,-1
 172 656 l 1,13,-1
 172 696 l 1,14,15
 202 700 202 700 221 730 c 128,-1,16
 240 760 240 760 252 816 c 1,17,-1
 292 816 l 1,18,-1
 292 736 l 1,19,20
 332 782 332 782 376 810 c 0,21,22
 388 816 388 816 412 826 c 128,-1,23
 436 836 436 836 462 836 c 0,24,25
 492 836 492 836 514 826 c 0,26,27
 536 820 536 820 564 802 c 0,28,29
 586 784 586 784 603 765 c 128,-1,30
 620 746 620 746 632 716 c 1,31,32
 644 744 644 744 663 765 c 128,-1,33
 682 786 682 786 708 802 c 128,-1,34
 734 818 734 818 764 827 c 128,-1,35
 794 836 794 836 822 836 c 0,36,37
 844 836 844 836 862 828 c 0,38,39
 884 822 884 822 898 806 c 1,40,41
 914 794 914 794 921 778 c 128,-1,42
 928 762 928 762 932 736 c 1,43,-1
 926 698 l 1,44,-1
 908 664 l 1,45,-1
 882 642 l 1,46,-1
 852 636 l 1,47,-1
 824 640 l 1,48,-1
 802 654 l 1,49,-1
 786 674 l 1,50,-1
 782 696 l 1,51,-1
 784 710 l 1,52,-1
 792 726 l 1,53,54
 792 740 792 740 784 748 c 1,55,-1
 762 756 l 1,56,57
 742 756 742 756 725 748 c 128,-1,58
 708 740 708 740 690 720 c 1,59,-1
 668 680 l 1,60,-1
 662 636 l 1,61,-1
 662 436 l 1,62,-1
 762 436 l 2,63,64
 812 436 812 436 855 414 c 128,-1,65
 898 392 898 392 930 353 c 128,-1,66
 962 314 962 314 982 260 c 128,-1,67
 1002 206 1002 206 1002 146 c 0,68,69
 1002 78 1002 78 983 26 c 128,-1,70
 964 -26 964 -26 922 -70 c 1,71,72
 886 -114 886 -114 836 -137 c 128,-1,73
 786 -160 786 -160 732 -160 c 2,74,-1
 292 -162 l 1,75,-1
 228 -168 l 2,76,77
 202 -174 202 -174 177 -191 c 128,-1,78
 152 -208 152 -208 144 -224 c 128,-1,79
 136 -240 136 -240 132 -270 c 1,80,-1
 134 -290 l 1,81,-1
 146 -308 l 1,82,-1
 164 -324 l 1,83,-1
 192 -332 l 2,84,85
 208 -336 208 -336 224 -346 c 128,-1,86
 240 -356 240 -356 254 -372 c 2,87,-1
 274 -404 l 1,88,-1
 282 -440 l 1,89,90
 282 -466 282 -466 273 -487 c 128,-1,91
 264 -508 264 -508 245 -525 c 128,-1,92
 226 -542 226 -542 206 -549 c 128,-1,93
 186 -556 186 -556 152 -560 c 0,94,95
 130 -560 130 -560 120 -558 c 128,-1,96
 110 -556 110 -556 87 -544 c 128,-1,97
 64 -532 64 -532 42 -503 c 128,-1,98
 20 -474 20 -474 8 -436 c 128,-1,99
 -4 -398 -4 -398 -4 -360 c 0,100,101
 -4 -314 -4 -314 14 -266 c 0,102,103
 32 -226 32 -226 74 -190 c 128,-1,104
 116 -154 116 -154 167 -137 c 128,-1,105
 218 -120 218 -120 272 -120 c 2,106,-1
 632 -122 l 2,107,108
 652 -122 652 -122 670 -114 c 2,109,-1
 708 -98 l 1,110,-1
 742 -72 l 1,111,-1
 770 -40 l 1,112,113
 792 -6 792 -6 808 50 c 0,114,115
 814 76 814 76 818 104 c 128,-1,116
 822 132 822 132 822 166 c 0,117,118
 822 212 822 212 810 253 c 128,-1,119
 798 294 798 294 774 328 c 128,-1,120
 750 362 750 362 722 378 c 0,121,122
 698 396 698 396 662 396 c 1,123,-1
 662 116 l 2,124,125
 662 94 662 94 666 84 c 2,126,-1
 684 58 l 1,127,-1
 710 40 l 1,128,-1
 742 36 l 1,129,-1
 742 -2 l 1,130,-1
 342 -2 l 2,131,132
 268 -2 268 -2 210 18 c 0,0,1
70 194 m 0,133,134
 88 160 88 160 124 126 c 0,135,136
 156 100 156 100 204 80 c 0,137,138
 228 74 228 74 251 70 c 128,-1,139
 274 66 274 66 302 66 c 0,140,141
 338 66 338 66 368 78 c 128,-1,142
 398 90 398 90 430 122 c 0,143,144
 452 148 452 148 467 185 c 128,-1,145
 482 222 482 222 482 256 c 2,146,-1
 482 396 l 1,147,-1
 162 396 l 2,148,149
 136 396 136 396 119 388 c 128,-1,150
 102 380 102 380 85 360 c 128,-1,151
 68 340 68 340 60 320 c 1,152,-1
 52 276 l 1,153,154
 52 236 52 236 70 194 c 0,133,134
282 436 m 1,155,-1
 482 436 l 1,156,-1
 482 646 l 1,157,-1
 476 680 l 1,158,-1
 458 710 l 1,159,-1
 432 728 l 1,160,-1
 402 736 l 1,161,162
 374 736 374 736 353 726 c 128,-1,163
 332 716 332 716 316 699 c 128,-1,164
 300 682 300 682 290 656 c 1,165,-1
 282 606 l 1,166,-1
 282 436 l 1,155,-1
EndSplineSet
EndChar

StartChar: tm_na
Encoding: 2984 2984 70
Width: 966
GlyphClass: 2
Flags: W
LayerCount: 2
Fore
SplineSet
-38 -2 m 1,0,-1
 -38 36 l 1,1,2
 -16 36 -16 36 0 43 c 128,-1,3
 16 50 16 50 32 68 c 1,4,-1
 52 102 l 1,5,-1
 60 146 l 1,6,-1
 60 696 l 1,7,-1
 -18 696 l 1,8,-1
 -18 726 l 1,9,10
 0 726 0 726 16 734 c 128,-1,11
 32 742 32 742 44 756 c 2,12,-1
 62 782 l 1,13,-1
 70 816 l 1,14,-1
 100 816 l 1,15,-1
 100 746 l 1,16,17
 112 766 112 766 132 784 c 2,18,-1
 174 812 l 2,19,20
 196 824 196 824 220 830 c 2,21,-1
 270 836 l 1,22,23
 336 836 336 836 383 811 c 128,-1,24
 430 786 430 786 460 736 c 1,25,26
 488 788 488 788 533 817 c 128,-1,27
 578 846 578 846 630 846 c 0,28,29
 656 846 656 846 674 838 c 0,30,31
 696 832 696 832 714 816 c 0,32,33
 732 804 732 804 739 788 c 128,-1,34
 746 772 746 772 750 746 c 0,35,36
 750 726 750 726 742 710 c 2,37,-1
 724 682 l 1,38,-1
 694 662 l 1,39,-1
 660 656 l 2,40,41
 638 656 638 656 628 660 c 2,42,-1
 602 672 l 1,43,-1
 584 692 l 1,44,-1
 580 716 l 1,45,-1
 582 724 l 1,46,-1
 594 736 l 1,47,-1
 606 746 l 1,48,-1
 610 756 l 1,49,-1
 606 764 l 1,50,-1
 600 776 l 1,51,52
 576 776 576 776 552 764 c 1,53,-1
 514 728 l 1,54,55
 496 704 496 704 488 676 c 1,56,-1
 480 616 l 1,57,-1
 480 476 l 1,58,59
 502 504 502 504 552 520 c 0,60,61
 576 528 576 528 603 532 c 128,-1,62
 630 536 630 536 670 536 c 0,63,64
 724 536 724 536 767 514 c 128,-1,65
 810 492 810 492 847 449 c 128,-1,66
 884 406 884 406 902 354 c 128,-1,67
 920 302 920 302 920 246 c 0,68,69
 920 158 920 158 896 86 c 128,-1,70
 872 14 872 14 822 -48 c 128,-1,71
 772 -110 772 -110 714 -140 c 128,-1,72
 656 -170 656 -170 590 -170 c 2,73,-1
 170 -172 l 1,74,-1
 112 -178 l 2,75,76
 88 -184 88 -184 66 -200 c 128,-1,77
 44 -216 44 -216 30 -236 c 0,78,79
 24 -250 24 -250 20 -280 c 1,80,-1
 22 -294 l 1,81,-1
 36 -308 l 1,82,-1
 56 -316 l 1,83,-1
 80 -320 l 1,84,-1
 118 -326 l 2,85,86
 136 -332 136 -332 150 -347 c 128,-1,87
 164 -362 164 -362 172 -382 c 2,88,-1
 180 -420 l 1,89,90
 180 -446 180 -446 170 -464 c 1,91,92
 164 -484 164 -484 145 -503 c 128,-1,93
 126 -522 126 -522 108 -529 c 128,-1,94
 90 -536 90 -536 60 -540 c 1,95,96
 28 -540 28 -540 2 -527 c 128,-1,97
 -24 -514 -24 -514 -50 -488 c 0,98,99
 -68 -466 -68 -466 -82 -433 c 128,-1,100
 -96 -400 -96 -400 -96 -360 c 0,101,102
 -96 -312 -96 -312 -77 -268 c 128,-1,103
 -58 -224 -58 -224 -18 -190 c 1,104,105
 18 -154 18 -154 66 -136 c 0,106,107
 92 -128 92 -128 114 -124 c 128,-1,108
 136 -120 136 -120 170 -120 c 2,109,-1
 430 -122 l 2,110,111
 496 -122 496 -122 550 -94 c 0,112,113
 604 -70 604 -70 649 -21 c 128,-1,114
 694 28 694 28 717 91 c 128,-1,115
 740 154 740 154 740 226 c 0,116,117
 740 274 740 274 729 316 c 128,-1,118
 718 358 718 358 697 390 c 128,-1,119
 676 422 676 422 651 437 c 128,-1,120
 626 452 626 452 590 456 c 1,121,-1
 552 450 l 2,122,123
 536 446 536 446 520 436 c 128,-1,124
 504 426 504 426 494 414 c 2,125,-1
 480 386 l 1,126,-1
 480 136 l 2,127,128
 480 112 480 112 484 98 c 2,129,-1
 502 68 l 1,130,-1
 528 46 l 1,131,-1
 560 36 l 1,132,-1
 560 -2 l 1,133,-1
 220 -2 l 1,134,-1
 220 36 l 1,135,136
 236 36 236 36 249 43 c 128,-1,137
 262 50 262 50 276 70 c 1,138,-1
 294 108 l 1,139,-1
 300 156 l 1,140,-1
 300 656 l 2,141,142
 300 678 300 678 293 695 c 128,-1,143
 286 712 286 712 270 726 c 0,144,145
 260 738 260 738 238 748 c 1,146,-1
 200 756 l 2,147,148
 184 756 184 756 166 745 c 128,-1,149
 148 734 148 734 128 708 c 1,150,-1
 106 656 l 1,151,-1
 100 596 l 1,152,-1
 100 116 l 2,153,154
 100 94 100 94 104 84 c 2,155,-1
 116 58 l 1,156,-1
 136 40 l 1,157,-1
 160 36 l 1,158,-1
 160 -2 l 1,159,-1
 -38 -2 l 1,0,-1
EndSplineSet
EndChar

StartChar: tm_nnna
Encoding: 2985 2985 71
Width: 1660
GlyphClass: 2
Flags: W
LayerCount: 2
Fore
SplineSet
484 156 m 0,0,1
 466 108 466 108 431 69 c 128,-1,2
 396 30 396 30 354 8 c 0,3,4
 312 -10 312 -10 262 -10 c 0,5,6
 196 -10 196 -10 146 12 c 0,7,8
 100 36 100 36 58 86 c 0,9,10
 24 132 24 132 2 202 c 0,11,12
 -6 236 -6 236 -10 271 c 128,-1,13
 -14 306 -14 306 -14 356 c 0,14,15
 -14 468 -14 468 14 554 c 128,-1,16
 42 640 42 640 103 705 c 128,-1,17
 164 770 164 770 241 803 c 128,-1,18
 318 836 318 836 412 836 c 0,19,20
 540 836 540 836 616 823 c 128,-1,21
 692 810 692 810 732 786 c 1,22,23
 754 810 754 810 816 823 c 128,-1,24
 878 836 878 836 962 836 c 0,25,26
 1064 836 1064 836 1140 798 c 0,27,28
 1220 762 1220 762 1272 686 c 1,29,-1
 1316 748 l 1,30,-1
 1366 796 l 1,31,-1
 1392 812 l 1,32,-1
 1420 826 l 1,33,-1
 1444 832 l 1,34,-1
 1472 836 l 2,35,36
 1496 836 1496 836 1514 829 c 128,-1,37
 1532 822 1532 822 1549 806 c 128,-1,38
 1566 790 1566 790 1574 768 c 2,39,-1
 1582 726 l 1,40,41
 1582 700 1582 700 1574 682 c 2,42,-1
 1556 648 l 1,43,44
 1544 634 1544 634 1526 624 c 1,45,-1
 1492 616 l 1,46,-1
 1464 618 l 1,47,-1
 1442 630 l 1,48,-1
 1426 644 l 1,49,-1
 1422 666 l 1,50,-1
 1424 676 l 1,51,-1
 1432 692 l 1,52,-1
 1438 706 l 1,53,-1
 1442 716 l 1,54,55
 1440 728 1440 728 1434 732 c 128,-1,56
 1428 736 1428 736 1422 736 c 0,57,58
 1396 736 1396 736 1375 723 c 128,-1,59
 1354 710 1354 710 1336 686 c 128,-1,60
 1318 662 1318 662 1310 626 c 2,61,-1
 1302 556 l 1,62,-1
 1302 116 l 2,63,64
 1302 96 1302 96 1306 86 c 2,65,-1
 1324 62 l 2,66,67
 1334 50 1334 50 1348 44 c 2,68,-1
 1382 36 l 1,69,-1
 1382 -2 l 1,70,-1
 1042 -2 l 1,71,-1
 1042 36 l 1,72,73
 1062 36 1062 36 1074 46 c 2,74,-1
 1100 70 l 1,75,-1
 1116 104 l 1,76,-1
 1122 146 l 1,77,-1
 1122 576 l 2,78,79
 1122 620 1122 620 1106 652 c 0,80,81
 1092 688 1092 688 1060 717 c 128,-1,82
 1028 746 1028 746 986 760 c 0,83,84
 948 776 948 776 902 776 c 0,85,86
 862 776 862 776 836 769 c 128,-1,87
 810 762 810 762 792 746 c 1,88,89
 838 716 838 716 873 671 c 128,-1,90
 908 626 908 626 932 570 c 128,-1,91
 956 514 956 514 968 452 c 0,92,93
 974 420 974 420 978 390 c 128,-1,94
 982 360 982 360 982 326 c 0,95,96
 982 260 982 260 979 237 c 128,-1,97
 976 214 976 214 966 174 c 0,98,99
 954 108 954 108 922 58 c 0,100,101
 910 32 910 32 890 16 c 1,102,103
 874 -2 874 -2 854 -14 c 128,-1,104
 834 -26 834 -26 808 -32 c 2,105,-1
 762 -40 l 1,106,107
 722 -40 722 -40 680 -16 c 0,108,109
 644 8 644 8 615 52 c 128,-1,110
 586 96 586 96 566 162 c 0,111,112
 560 194 560 194 556 226 c 128,-1,113
 552 258 552 258 552 296 c 0,114,115
 552 434 552 434 578 532 c 128,-1,116
 604 630 604 630 662 696 c 1,117,118
 628 736 628 736 565 756 c 128,-1,119
 502 776 502 776 422 776 c 0,120,121
 378 776 378 776 340 768 c 0,122,123
 324 766 324 766 304 760 c 128,-1,124
 284 754 284 754 258 745 c 128,-1,125
 232 736 232 736 197 713 c 128,-1,126
 162 690 162 690 138 664 c 0,127,128
 84 610 84 610 58 533 c 128,-1,129
 32 456 32 456 32 366 c 0,130,131
 32 338 32 338 34 308 c 128,-1,132
 36 278 36 278 42 250 c 0,133,134
 56 194 56 194 75 154 c 128,-1,135
 94 114 94 114 122 86 c 0,136,137
 150 62 150 62 182 56 c 1,138,139
 156 98 156 98 136 166 c 0,140,141
 130 196 130 196 126 228 c 128,-1,142
 122 260 122 260 122 296 c 0,143,144
 122 340 122 340 135 381 c 128,-1,145
 148 422 148 422 174 453 c 128,-1,146
 200 484 200 484 232 500 c 128,-1,147
 264 516 264 516 302 516 c 0,148,149
 342 516 342 516 377 497 c 128,-1,150
 412 478 412 478 441 443 c 128,-1,151
 470 408 470 408 486 363 c 128,-1,152
 502 318 502 318 502 266 c 0,153,154
 502 208 502 208 484 156 c 0,0,1
186 156 m 0,155,156
 202 106 202 106 232 76 c 1,157,158
 276 100 276 100 300 152 c 0,159,160
 310 174 310 174 316 205 c 128,-1,161
 322 236 322 236 322 276 c 1,162,-1
 316 334 l 2,163,164
 312 364 312 364 302 384 c 128,-1,165
 292 404 292 404 280 415 c 128,-1,166
 268 426 268 426 252 426 c 256,167,168
 236 426 236 426 220 414 c 1,169,-1
 194 382 l 2,170,171
 182 364 182 364 176 334 c 2,172,-1
 172 276 l 1,173,174
 172 204 172 204 186 156 c 0,155,156
608 216 m 2,175,176
 614 172 614 172 630 141 c 128,-1,177
 646 110 646 110 664 92 c 0,178,179
 680 80 680 80 702 76 c 0,180,181
 724 76 724 76 741 90 c 128,-1,182
 758 104 758 104 771 132 c 128,-1,183
 784 160 784 160 794 204 c 1,184,-1
 802 286 l 1,185,186
 802 402 802 402 776 492 c 0,187,188
 752 586 752 586 702 656 c 1,189,190
 656 598 656 598 626 508 c 0,191,192
 602 424 602 424 602 306 c 1,193,-1
 608 216 l 2,175,176
EndSplineSet
EndChar

StartChar: tm_pa
Encoding: 2986 2986 72
Width: 1104
GlyphClass: 2
Flags: W
LayerCount: 2
Fore
SplineSet
-26 -2 m 1,0,-1
 -26 36 l 1,1,2
 -8 36 -8 36 6 44 c 128,-1,3
 20 52 20 52 30 66 c 2,4,-1
 46 102 l 1,5,-1
 52 146 l 1,6,-1
 52 676 l 1,7,-1
 -26 676 l 1,8,-1
 -26 716 l 1,9,-1
 26 722 l 2,10,11
 52 728 52 728 72 744 c 128,-1,12
 92 760 92 760 100 775 c 128,-1,13
 108 790 108 790 112 816 c 1,14,-1
 232 816 l 1,15,-1
 232 146 l 2,16,17
 232 120 232 120 240 102 c 128,-1,18
 248 84 248 84 268 68 c 2,19,-1
 306 44 l 1,20,-1
 352 36 l 1,21,-1
 672 36 l 2,22,23
 696 36 696 36 716 44 c 128,-1,24
 736 52 736 52 755 72 c 128,-1,25
 774 92 774 92 781 112 c 128,-1,26
 788 132 788 132 792 166 c 1,27,-1
 792 656 l 1,28,-1
 712 656 l 1,29,-1
 712 696 l 1,30,31
 738 696 738 696 757 703 c 128,-1,32
 776 710 776 710 795 729 c 128,-1,33
 814 748 814 748 821 765 c 128,-1,34
 828 782 828 782 832 816 c 1,35,-1
 972 816 l 1,36,-1
 972 156 l 1,37,-1
 978 108 l 1,38,-1
 996 70 l 2,39,40
 1008 52 1008 52 1022 44 c 1,41,-1
 1052 36 l 1,42,-1
 1052 -2 l 1,43,-1
 -26 -2 l 1,0,-1
EndSplineSet
EndChar

StartChar: tm_ma
Encoding: 2990 2990 73
Width: 1248
GlyphClass: 2
Flags: W
LayerCount: 2
Fore
SplineSet
-28 -2 m 1,0,-1
 -28 46 l 1,1,-1
 2 52 l 1,2,3
 16 60 16 60 27 75 c 128,-1,4
 38 90 38 90 44 108 c 2,5,-1
 50 146 l 1,6,-1
 50 656 l 1,7,-1
 -8 656 l 1,8,-1
 -8 706 l 1,9,10
 20 706 20 706 43 713 c 128,-1,11
 66 720 66 720 87 738 c 128,-1,12
 108 756 108 756 117 773 c 128,-1,13
 126 790 126 790 130 816 c 1,14,-1
 230 816 l 1,15,-1
 230 166 l 2,16,17
 230 140 230 140 237 115 c 128,-1,18
 244 90 244 90 260 74 c 2,19,-1
 292 44 l 1,20,-1
 330 36 l 1,21,-1
 590 36 l 1,22,-1
 590 646 l 2,23,24
 590 682 590 682 603 713 c 128,-1,25
 616 744 616 744 645 771 c 128,-1,26
 674 798 674 798 714 812 c 128,-1,27
 754 826 754 826 790 826 c 0,28,29
 860 826 860 826 927 780 c 128,-1,30
 994 734 994 734 1058 643 c 128,-1,31
 1122 552 1122 552 1156 453 c 128,-1,32
 1190 354 1190 354 1190 256 c 0,33,34
 1190 198 1190 198 1177 155 c 128,-1,35
 1164 112 1164 112 1140 74 c 128,-1,36
 1116 36 1116 36 1084 16 c 0,37,38
 1068 8 1068 8 1054 4 c 128,-1,39
 1040 0 1040 0 1020 0 c 2,40,-1
 -28 -2 l 1,0,-1
770 36 m 1,41,-1
 990 36 l 2,42,43
 1020 36 1020 36 1046 49 c 128,-1,44
 1072 62 1072 62 1094 91 c 128,-1,45
 1116 120 1116 120 1128 157 c 128,-1,46
 1140 194 1140 194 1140 236 c 0,47,48
 1140 328 1140 328 1114 412 c 0,49,50
 1090 500 1090 500 1040 580 c 1,51,-1
 990 648 l 2,52,53
 972 670 972 670 966 676 c 0,54,55
 946 692 946 692 936 700 c 0,56,57
 914 716 914 716 885 731 c 128,-1,58
 856 746 856 746 830 746 c 1,59,-1
 806 740 l 1,60,-1
 786 722 l 1,61,-1
 774 696 l 1,62,-1
 770 666 l 1,63,-1
 770 36 l 1,41,-1
EndSplineSet
EndChar

StartChar: tm_ya
Encoding: 2991 2991 74
Width: 1294
GlyphClass: 2
Flags: W
LayerCount: 2
Fore
SplineSet
294 -2 m 1,0,-1
 294 26 l 1,1,-1
 256 18 l 1,2,-1
 214 16 l 2,3,4
 178 16 178 16 148 28 c 128,-1,5
 118 40 118 40 86 72 c 0,6,7
 66 96 66 96 46 134 c 1,8,9
 34 168 34 168 34 206 c 2,10,-1
 34 676 l 1,11,-1
 -44 676 l 1,12,-1
 -44 716 l 1,13,-1
 8 722 l 2,14,15
 34 728 34 728 54 744 c 128,-1,16
 74 760 74 760 82 775 c 128,-1,17
 90 790 90 790 94 816 c 1,18,-1
 214 816 l 1,19,-1
 214 206 l 2,20,21
 214 184 214 184 218 172 c 2,22,-1
 234 148 l 2,23,24
 244 134 244 134 256 130 c 2,25,-1
 284 126 l 2,26,27
 306 126 306 126 324 137 c 128,-1,28
 342 148 342 148 359 173 c 128,-1,29
 376 198 376 198 383 221 c 128,-1,30
 390 244 390 244 394 286 c 1,31,-1
 394 656 l 1,32,-1
 334 656 l 1,33,-1
 334 696 l 1,34,-1
 386 708 l 2,35,36
 412 718 412 718 430 735 c 128,-1,37
 448 752 448 752 459 770 c 128,-1,38
 470 788 470 788 474 816 c 1,39,-1
 574 816 l 1,40,-1
 574 116 l 2,41,42
 574 98 574 98 582 83 c 128,-1,43
 590 68 590 68 605 57 c 128,-1,44
 620 46 620 46 640 40 c 1,45,-1
 684 36 l 1,46,-1
 894 36 l 2,47,48
 916 36 916 36 933 43 c 128,-1,49
 950 50 950 50 966 68 c 1,50,-1
 986 102 l 1,51,-1
 994 146 l 1,52,-1
 994 656 l 1,53,-1
 934 656 l 1,54,-1
 934 706 l 1,55,56
 966 706 966 706 991 713 c 128,-1,57
 1016 720 1016 720 1040 736 c 128,-1,58
 1064 752 1064 752 1076 769 c 128,-1,59
 1088 786 1088 786 1094 816 c 1,60,-1
 1174 816 l 1,61,-1
 1174 126 l 2,62,63
 1174 104 1174 104 1178 94 c 2,64,-1
 1190 68 l 1,65,-1
 1210 50 l 1,66,-1
 1234 46 l 1,67,-1
 1234 -2 l 1,68,-1
 294 -2 l 1,0,-1
EndSplineSet
EndChar

StartChar: tm_ra
Encoding: 2992 2992 75
Width: 836
GlyphClass: 2
Flags: W
LayerCount: 2
Fore
SplineSet
508 116 m 2,0,1
 508 94 508 94 512 84 c 2,2,-1
 524 58 l 1,3,-1
 544 40 l 1,4,-1
 568 36 l 1,5,-1
 568 -4 l 1,6,-1
 518 -4 l 2,7,8
 498 -4 498 -4 481 -13 c 128,-1,9
 464 -22 464 -22 445 -44 c 128,-1,10
 426 -66 426 -66 414 -92 c 1,11,-1
 398 -150 l 2,12,13
 394 -178 394 -178 390 -189 c 128,-1,14
 386 -200 386 -200 370 -224 c 0,15,16
 352 -260 352 -260 323 -285 c 128,-1,17
 294 -310 294 -310 252 -326 c 0,18,19
 234 -332 234 -332 217 -336 c 128,-1,20
 200 -340 200 -340 178 -340 c 0,21,22
 138 -340 138 -340 100 -328 c 128,-1,23
 62 -316 62 -316 31 -293 c 128,-1,24
 0 -270 0 -270 -16 -241 c 128,-1,25
 -32 -212 -32 -212 -32 -180 c 0,26,27
 -32 -154 -32 -154 -25 -133 c 128,-1,28
 -18 -112 -18 -112 0 -94 c 0,29,30
 14 -76 14 -76 34 -68 c 1,31,-1
 78 -60 l 1,32,-1
 110 -62 l 1,33,-1
 136 -74 l 1,34,-1
 152 -88 l 2,35,36
 158 -98 158 -98 158 -110 c 0,37,38
 158 -134 158 -134 151 -148 c 128,-1,39
 144 -162 144 -162 128 -170 c 1,40,-1
 106 -194 l 1,41,-1
 98 -220 l 1,42,-1
 104 -244 l 1,43,-1
 122 -264 l 1,44,-1
 150 -276 l 1,45,-1
 188 -280 l 2,46,47
 220 -280 220 -280 246 -262 c 128,-1,48
 272 -244 272 -244 291 -210 c 128,-1,49
 310 -176 310 -176 318 -127 c 128,-1,50
 326 -78 326 -78 327 -50 c 128,-1,51
 328 -22 328 -22 328 -4 c 1,52,-1
 248 -4 l 1,53,-1
 248 36 l 1,54,55
 264 36 264 36 277 43 c 128,-1,56
 290 50 290 50 304 70 c 1,57,-1
 322 108 l 1,58,-1
 328 156 l 1,59,-1
 328 596 l 2,60,61
 328 624 328 624 321 646 c 128,-1,62
 314 668 314 668 299 685 c 128,-1,63
 284 702 284 702 260 716 c 0,64,65
 248 722 248 722 218 726 c 1,66,67
 182 726 182 726 154 708 c 128,-1,68
 126 690 126 690 108 656 c 1,69,-1
 108 146 l 2,70,71
 108 120 108 120 113 103 c 128,-1,72
 118 86 118 86 128 74 c 2,73,-1
 150 52 l 1,74,75
 162 46 162 46 178 46 c 1,76,-1
 178 -2 l 1,77,-1
 -20 -2 l 1,78,-1
 -20 36 l 1,79,80
 -2 40 -2 40 10 48 c 2,81,-1
 36 72 l 1,82,-1
 52 106 l 1,83,-1
 58 146 l 1,84,-1
 58 676 l 1,85,-1
 0 676 l 1,86,-1
 0 726 l 1,87,-1
 26 736 l 2,88,89
 38 742 38 742 48 758 c 2,90,-1
 62 784 l 1,91,-1
 68 816 l 1,92,-1
 108 816 l 1,93,-1
 108 746 l 1,94,95
 132 790 132 790 175 813 c 128,-1,96
 218 836 218 836 278 836 c 0,97,98
 312 836 312 836 340 826 c 1,99,100
 370 820 370 820 397 801 c 128,-1,101
 424 782 424 782 444 758 c 2,102,-1
 478 706 l 1,103,104
 488 734 488 734 506 758 c 128,-1,105
 524 782 524 782 552 800 c 128,-1,106
 580 818 580 818 607 825 c 128,-1,107
 634 832 634 832 644 834 c 128,-1,108
 654 836 654 836 678 836 c 0,109,110
 704 836 704 836 722 828 c 0,111,112
 744 822 744 822 762 806 c 0,113,114
 780 794 780 794 787 778 c 128,-1,115
 794 762 794 762 798 736 c 0,116,117
 798 716 798 716 790 700 c 2,118,-1
 772 672 l 1,119,-1
 742 652 l 1,120,-1
 708 646 l 2,121,122
 690 646 690 646 674 656 c 1,123,-1
 648 686 l 1,124,125
 668 686 668 686 676 694 c 128,-1,126
 684 702 684 702 688 726 c 0,127,128
 688 744 688 744 677 753 c 128,-1,129
 666 762 666 762 638 766 c 0,130,131
 616 766 616 766 590 754 c 128,-1,132
 564 742 564 742 545 717 c 128,-1,133
 526 692 526 692 516 666 c 0,134,135
 510 642 510 642 509 634 c 128,-1,136
 508 626 508 626 508 606 c 2,137,-1
 508 116 l 2,0,1
EndSplineSet
EndChar

StartChar: tm_rra
Encoding: 2993 2993 76
Width: 918
GlyphClass: 2
Flags: W
LayerCount: 2
Fore
SplineSet
-2 -2 m 1,0,-1
 -2 36 l 1,1,-1
 20 42 l 1,2,-1
 38 62 l 1,3,-1
 52 92 l 1,4,-1
 56 126 l 1,5,-1
 56 676 l 1,6,-1
 -42 676 l 1,7,-1
 -42 716 l 1,8,9
 -20 716 -20 716 -2 724 c 128,-1,10
 16 732 16 732 28 746 c 2,11,-1
 48 778 l 1,12,-1
 56 816 l 1,13,-1
 96 816 l 1,14,-1
 96 746 l 1,15,16
 106 768 106 768 121 783 c 128,-1,17
 136 798 136 798 160 811 c 128,-1,18
 184 824 184 824 210 830 c 2,19,-1
 266 836 l 2,20,21
 300 836 300 836 328 826 c 0,22,23
 356 820 356 820 383 802 c 128,-1,24
 410 784 410 784 429 764 c 128,-1,25
 448 744 448 744 456 716 c 1,26,27
 466 746 466 746 484 767 c 128,-1,28
 502 788 502 788 530 804 c 128,-1,29
 558 820 558 820 588 828 c 1,30,-1
 656 836 l 1,31,32
 700 836 700 836 741 817 c 128,-1,33
 782 798 782 798 812 764 c 128,-1,34
 842 730 842 730 860 688 c 0,35,36
 868 666 868 666 872 646 c 128,-1,37
 876 626 876 626 876 596 c 2,38,-1
 876 256 l 2,39,40
 876 166 876 166 851 92 c 128,-1,41
 826 18 826 18 778 -43 c 128,-1,42
 730 -104 730 -104 666 -137 c 128,-1,43
 602 -170 602 -170 536 -170 c 2,44,-1
 166 -172 l 1,45,-1
 108 -178 l 2,46,47
 84 -184 84 -184 62 -200 c 128,-1,48
 40 -216 40 -216 26 -236 c 0,49,50
 20 -250 20 -250 16 -280 c 1,51,-1
 18 -294 l 1,52,-1
 32 -308 l 1,53,-1
 52 -316 l 1,54,-1
 76 -320 l 1,55,-1
 114 -326 l 2,56,57
 132 -332 132 -332 146 -347 c 128,-1,58
 160 -362 160 -362 168 -382 c 2,59,-1
 176 -420 l 1,60,61
 176 -446 176 -446 166 -464 c 1,62,63
 160 -484 160 -484 141 -503 c 128,-1,64
 122 -522 122 -522 104 -529 c 128,-1,65
 86 -536 86 -536 56 -540 c 1,66,67
 24 -540 24 -540 -2 -524 c 1,68,69
 -26 -514 -26 -514 -54 -482 c 0,70,71
 -64 -468 -64 -468 -71 -455 c 128,-1,72
 -78 -442 -78 -442 -89 -412 c 128,-1,73
 -100 -382 -100 -382 -100 -340 c 0,74,75
 -100 -294 -100 -294 -82 -257 c 128,-1,76
 -64 -220 -64 -220 -26 -187 c 128,-1,77
 12 -154 12 -154 56 -136 c 0,78,79
 104 -120 104 -120 156 -120 c 2,80,-1
 386 -122 l 2,81,82
 452 -122 452 -122 504 -98 c 128,-1,83
 556 -74 556 -74 603 -27 c 128,-1,84
 650 20 650 20 673 80 c 128,-1,85
 696 140 696 140 696 206 c 2,86,-1
 696 616 l 2,87,88
 696 648 696 648 689 670 c 128,-1,89
 682 692 682 692 666 713 c 128,-1,90
 650 734 650 734 633 743 c 128,-1,91
 616 752 616 752 586 756 c 0,92,93
 564 756 564 756 545 746 c 128,-1,94
 526 736 526 736 509 713 c 128,-1,95
 492 690 492 690 484 662 c 2,96,-1
 476 606 l 1,97,-1
 476 116 l 2,98,99
 476 96 476 96 480 86 c 2,100,-1
 498 62 l 2,101,102
 508 50 508 50 522 44 c 2,103,-1
 556 36 l 1,104,-1
 556 -2 l 1,105,-1
 236 -2 l 1,106,-1
 236 36 l 1,107,108
 248 36 248 36 259 43 c 128,-1,109
 270 50 270 50 278 70 c 2,110,-1
 292 108 l 1,111,-1
 296 156 l 1,112,-1
 296 636 l 2,113,114
 296 658 296 658 289 675 c 128,-1,115
 282 692 282 692 266 706 c 0,116,117
 256 718 256 718 234 728 c 1,118,-1
 196 736 l 1,119,120
 176 736 176 736 159 728 c 128,-1,121
 142 720 142 720 124 700 c 1,122,-1
 102 660 l 1,123,-1
 96 616 l 1,124,-1
 96 126 l 2,125,126
 96 104 96 104 100 92 c 2,127,-1
 118 64 l 1,128,-1
 142 44 l 1,129,-1
 176 36 l 1,130,-1
 176 -2 l 1,131,-1
 -2 -2 l 1,0,-1
EndSplineSet
EndChar

StartChar: tm_la
Encoding: 2994 2994 77
Width: 1202
GlyphClass: 2
Flags: W
LayerCount: 2
Fore
SplineSet
496 160 m 0,0,1
 478 110 478 110 443 67 c 128,-1,2
 408 24 408 24 362 0 c 0,3,4
 316 -20 316 -20 266 -20 c 0,5,6
 200 -20 200 -20 149 4 c 128,-1,7
 98 28 98 28 61 79 c 128,-1,8
 24 130 24 130 6 202 c 0,9,10
 -2 238 -2 238 -6 276 c 128,-1,11
 -10 314 -10 314 -10 366 c 0,12,13
 -10 476 -10 476 18 559 c 128,-1,14
 46 642 46 642 103 707 c 128,-1,15
 160 772 160 772 238 804 c 0,16,17
 280 820 280 820 321 828 c 128,-1,18
 362 836 362 836 416 836 c 0,19,20
 492 836 492 836 551 814 c 128,-1,21
 610 792 610 792 662 749 c 128,-1,22
 714 706 714 706 740 655 c 128,-1,23
 766 604 766 604 766 546 c 2,24,-1
 766 216 l 2,25,26
 766 190 766 190 773 169 c 128,-1,27
 780 148 780 148 798 130 c 0,28,29
 812 112 812 112 832 104 c 1,30,-1
 876 96 l 1,31,32
 918 96 918 96 954 116 c 128,-1,33
 990 136 990 136 1024 182 c 0,34,35
 1050 220 1050 220 1070 280 c 0,36,37
 1078 308 1078 308 1082 334 c 128,-1,38
 1086 360 1086 360 1086 396 c 0,39,40
 1086 458 1086 458 1070 512 c 128,-1,41
 1054 566 1054 566 1024 610 c 0,42,43
 994 660 994 660 951 695 c 128,-1,44
 908 730 908 730 856 756 c 2,45,-1
 834 768 l 1,46,-1
 818 782 l 1,47,-1
 808 794 l 1,48,-1
 806 806 l 1,49,-1
 812 834 l 1,50,-1
 830 856 l 1,51,-1
 856 870 l 1,52,-1
 886 876 l 1,53,54
 940 876 940 876 986 842 c 128,-1,55
 1032 808 1032 808 1068 741 c 128,-1,56
 1104 674 1104 674 1126 586 c 0,57,58
 1134 548 1134 548 1140 499 c 128,-1,59
 1146 450 1146 450 1146 406 c 0,60,61
 1146 318 1146 318 1122 240 c 0,62,63
 1108 200 1108 200 1093 169 c 128,-1,64
 1078 138 1078 138 1052 102 c 0,65,66
 1004 42 1004 42 949 11 c 128,-1,67
 894 -20 894 -20 826 -20 c 0,68,69
 788 -20 788 -20 772 -18 c 128,-1,70
 756 -16 756 -16 726 -4 c 0,71,72
 686 8 686 8 652 40 c 128,-1,73
 618 72 618 72 602 116 c 128,-1,74
 586 160 586 160 586 216 c 2,75,-1
 586 556 l 2,76,77
 586 594 586 594 570 627 c 128,-1,78
 554 660 554 660 519 689 c 128,-1,79
 484 718 484 718 442 732 c 0,80,81
 422 738 422 738 401 742 c 128,-1,82
 380 746 380 746 356 746 c 0,83,84
 318 746 318 746 286 740 c 128,-1,85
 254 734 254 734 222 718 c 0,86,87
 166 694 166 694 122 638 c 128,-1,88
 78 582 78 582 56 514 c 0,89,90
 36 438 36 438 36 356 c 0,91,92
 36 290 36 290 46 243 c 128,-1,93
 56 196 56 196 76 161 c 128,-1,94
 96 126 96 126 124 104 c 0,95,96
 152 86 152 86 186 86 c 1,97,98
 160 124 160 124 140 178 c 0,99,100
 134 204 134 204 130 230 c 128,-1,101
 126 256 126 256 126 286 c 0,102,103
 126 336 126 336 139 378 c 128,-1,104
 152 420 152 420 179 453 c 128,-1,105
 206 486 206 486 242 506 c 128,-1,106
 278 526 278 526 316 526 c 0,107,108
 356 526 356 526 391 507 c 128,-1,109
 426 488 426 488 455 453 c 128,-1,110
 484 418 484 418 500 373 c 128,-1,111
 516 328 516 328 516 276 c 0,112,113
 516 214 516 214 496 160 c 0,0,1
190 172 m 0,114,115
 206 128 206 128 236 96 c 1,116,117
 262 106 262 106 279 124 c 128,-1,118
 296 142 296 142 309 167 c 128,-1,119
 322 192 322 192 328 222 c 2,120,-1
 336 286 l 1,121,-1
 330 330 l 1,122,-1
 312 370 l 2,123,124
 300 388 300 388 289 395 c 128,-1,125
 278 402 278 402 256 406 c 0,126,127
 236 406 236 406 224 396 c 0,128,129
 212 390 212 390 199 370 c 128,-1,130
 186 350 186 350 180 330 c 1,131,-1
 176 286 l 1,132,133
 176 216 176 216 190 172 c 0,114,115
EndSplineSet
EndChar

StartChar: tm_lla
Encoding: 2995 2995 78
Width: 1428
GlyphClass: 2
Flags: W
LayerCount: 2
Fore
SplineSet
354 18 m 0,0,1
 318 0 318 0 270 0 c 0,2,3
 204 0 204 0 152 25 c 128,-1,4
 100 50 100 50 60 108 c 0,5,6
 42 134 42 134 29 163 c 128,-1,7
 16 192 16 192 2 234 c 0,8,9
 -16 306 -16 306 -16 396 c 0,10,11
 -16 498 -16 498 9 576 c 128,-1,12
 34 654 34 654 89 715 c 128,-1,13
 144 776 144 776 216 806 c 128,-1,14
 288 836 288 836 380 836 c 0,15,16
 438 836 438 836 485 826 c 128,-1,17
 532 816 532 816 577 797 c 128,-1,18
 622 778 622 778 652 752 c 0,19,20
 682 730 682 730 710 696 c 1,21,-1
 740 752 l 1,22,-1
 784 798 l 2,23,24
 800 810 800 810 814 816 c 128,-1,25
 828 822 828 822 843 827 c 128,-1,26
 858 832 858 832 900 836 c 0,27,28
 914 836 914 836 925 836 c 128,-1,29
 936 836 936 836 960 828 c 0,30,31
 990 822 990 822 1013 810 c 128,-1,32
 1036 798 1036 798 1054 778 c 128,-1,33
 1072 758 1072 758 1080 736 c 1,34,-1
 1110 776 l 1,35,-1
 1150 808 l 1,36,-1
 1198 828 l 1,37,-1
 1250 836 l 2,38,39
 1272 836 1272 836 1290 828 c 0,40,41
 1312 822 1312 822 1326 806 c 1,42,43
 1342 794 1342 794 1349 778 c 128,-1,44
 1356 762 1356 762 1360 736 c 0,45,46
 1360 710 1360 710 1352 692 c 2,47,-1
 1334 658 l 1,48,49
 1322 644 1322 644 1304 634 c 1,50,-1
 1270 626 l 1,51,-1
 1242 630 l 1,52,-1
 1220 644 l 1,53,-1
 1204 664 l 1,54,-1
 1200 686 l 1,55,-1
 1202 694 l 2,56,57
 1206 704 1206 704 1210 706 c 2,58,-1
 1224 724 l 1,59,-1
 1230 736 l 1,60,61
 1230 750 1230 750 1220 758 c 2,62,-1
 1200 766 l 1,63,64
 1180 766 1180 766 1161 753 c 128,-1,65
 1142 740 1142 740 1128 714 c 2,66,-1
 1106 656 l 1,67,-1
 1100 586 l 1,68,-1
 1100 116 l 2,69,70
 1100 94 1100 94 1104 84 c 2,71,-1
 1116 58 l 1,72,-1
 1136 40 l 1,73,-1
 1160 36 l 1,74,-1
 1160 -2 l 1,75,-1
 840 -2 l 1,76,-1
 840 36 l 1,77,78
 860 36 860 36 872 46 c 2,79,-1
 898 70 l 1,80,-1
 914 104 l 1,81,-1
 920 146 l 1,82,-1
 920 646 l 1,83,-1
 914 690 l 2,84,85
 912 708 912 708 901 724 c 128,-1,86
 890 740 890 740 878 748 c 1,87,-1
 850 756 l 1,88,89
 832 756 832 756 815 749 c 128,-1,90
 798 742 798 742 787 729 c 128,-1,91
 776 716 776 716 768 697 c 128,-1,92
 760 678 760 678 760 656 c 2,93,-1
 760 116 l 2,94,95
 760 94 760 94 764 84 c 2,96,-1
 776 58 l 1,97,-1
 796 40 l 1,98,-1
 820 36 l 1,99,-1
 820 -2 l 1,100,-1
 500 -2 l 1,101,-1
 500 36 l 1,102,103
 520 36 520 36 532 46 c 1,104,105
 546 52 546 52 558 68 c 2,106,-1
 574 98 l 1,107,-1
 580 136 l 1,108,-1
 580 576 l 1,109,110
 562 612 562 612 532 643 c 128,-1,111
 502 674 502 674 467 694 c 128,-1,112
 432 714 432 714 394 724 c 128,-1,113
 356 734 356 734 338 735 c 128,-1,114
 320 736 320 736 310 736 c 0,115,116
 244 736 244 736 191 712 c 128,-1,117
 138 688 138 688 98 642 c 1,118,119
 66 598 66 598 40 532 c 1,120,121
 20 466 20 466 20 396 c 0,122,123
 20 368 20 368 22 338 c 128,-1,124
 24 308 24 308 30 281 c 128,-1,125
 36 254 36 254 44 230 c 128,-1,126
 52 206 52 206 64 182 c 0,127,128
 84 142 84 142 112 114 c 0,129,130
 134 92 134 92 170 86 c 1,131,132
 142 120 142 120 124 174 c 0,133,134
 118 202 118 202 114 231 c 128,-1,135
 110 260 110 260 110 296 c 0,136,137
 110 340 110 340 123 381 c 128,-1,138
 136 422 136 422 162 453 c 128,-1,139
 188 484 188 484 220 500 c 128,-1,140
 252 516 252 516 290 516 c 256,141,142
 328 516 328 516 361 500 c 128,-1,143
 394 484 394 484 423 449 c 128,-1,144
 452 414 452 414 466 372 c 0,145,146
 472 352 472 352 476 331 c 128,-1,147
 480 310 480 310 480 286 c 0,148,149
 480 240 480 240 478 221 c 128,-1,150
 476 202 476 202 464 168 c 0,151,152
 452 118 452 118 422 76 c 0,153,154
 394 42 394 42 354 18 c 0,0,1
164 174 m 0,155,156
 180 122 180 122 210 86 c 1,157,158
 232 92 232 92 254 110 c 128,-1,159
 276 128 276 128 289 151 c 128,-1,160
 302 174 302 174 312 214 c 1,161,-1
 320 286 l 1,162,-1
 314 342 l 1,163,-1
 296 392 l 1,164,165
 284 412 284 412 271 424 c 128,-1,166
 258 436 258 436 240 436 c 0,167,168
 220 436 220 436 206 428 c 128,-1,169
 192 420 192 420 178 400 c 128,-1,170
 164 380 164 380 156 350 c 1,171,-1
 150 296 l 1,172,173
 150 228 150 228 164 174 c 0,155,156
EndSplineSet
EndChar

StartChar: tm_llla
Encoding: 2996 2996 79
Width: 1312
GlyphClass: 2
Flags: W
LayerCount: 2
Fore
SplineSet
582 -540 m 0,0,1
 502 -560 502 -560 420 -560 c 0,2,3
 330 -560 330 -560 262 -538 c 0,4,5
 190 -518 190 -518 130 -472 c 0,6,7
 70 -430 70 -430 40 -376 c 128,-1,8
 10 -322 10 -322 10 -260 c 0,9,10
 10 -226 10 -226 20 -206 c 128,-1,11
 30 -186 30 -186 56 -160 c 1,12,13
 82 -140 82 -140 105 -132 c 128,-1,14
 128 -124 128 -124 170 -120 c 1,15,-1
 610 -122 l 1,16,-1
 610 -162 l 1,17,-1
 550 -162 l 1,18,-1
 526 -164 l 1,19,-1
 506 -182 l 1,20,-1
 494 -208 l 1,21,-1
 490 -240 l 1,22,-1
 430 -242 l 1,23,24
 430 -222 430 -222 422 -206 c 2,25,-1
 404 -182 l 2,26,27
 392 -170 392 -170 374 -164 c 2,28,-1
 340 -160 l 1,29,-1
 190 -162 l 2,30,31
 158 -162 158 -162 140 -167 c 128,-1,32
 122 -172 122 -172 104 -187 c 128,-1,33
 86 -202 86 -202 78 -222 c 2,34,-1
 70 -260 l 1,35,36
 70 -312 70 -312 93 -352 c 128,-1,37
 116 -392 116 -392 160 -424 c 128,-1,38
 204 -456 204 -456 261 -473 c 128,-1,39
 318 -490 318 -490 380 -490 c 0,40,41
 418 -490 418 -490 434 -488 c 128,-1,42
 450 -486 450 -486 480 -474 c 0,43,44
 526 -460 526 -460 562 -429 c 128,-1,45
 598 -398 598 -398 619 -356 c 128,-1,46
 640 -314 640 -314 640 -270 c 0,47,48
 640 -230 640 -230 654 -194 c 0,49,50
 670 -162 670 -162 700 -130 c 1,51,52
 676 -112 676 -112 663 -80 c 128,-1,53
 650 -48 650 -48 650 0 c 1,54,-1
 30 -2 l 1,55,-1
 30 46 l 1,56,-1
 60 52 l 2,57,58
 74 58 74 58 86 74 c 128,-1,59
 98 90 98 90 104 108 c 2,60,-1
 110 146 l 1,61,-1
 110 656 l 1,62,-1
 50 656 l 1,63,-1
 50 706 l 1,64,65
 78 706 78 706 101 713 c 128,-1,66
 124 720 124 720 146 737 c 128,-1,67
 168 754 168 754 180 776 c 0,68,69
 186 790 186 790 190 816 c 1,70,-1
 290 816 l 1,71,-1
 290 166 l 2,72,73
 290 140 290 140 297 115 c 128,-1,74
 304 90 304 90 320 74 c 2,75,-1
 352 44 l 1,76,-1
 390 36 l 1,77,-1
 650 36 l 1,78,-1
 650 646 l 2,79,80
 650 682 650 682 663 713 c 128,-1,81
 676 744 676 744 705 771 c 128,-1,82
 734 798 734 798 774 812 c 128,-1,83
 814 826 814 826 850 826 c 0,84,85
 920 826 920 826 987 780 c 128,-1,86
 1054 734 1054 734 1118 643 c 128,-1,87
 1182 552 1182 552 1216 453 c 128,-1,88
 1250 354 1250 354 1250 256 c 0,89,90
 1250 198 1250 198 1237 155 c 128,-1,91
 1224 112 1224 112 1200 74 c 128,-1,92
 1176 36 1176 36 1144 16 c 0,93,94
 1128 8 1128 8 1114 4 c 128,-1,95
 1100 0 1100 0 1080 0 c 2,96,-1
 830 -2 l 1,97,-1
 830 -42 l 1,98,-1
 836 -72 l 1,99,-1
 856 -98 l 1,100,-1
 884 -114 l 1,101,-1
 920 -120 l 1,102,-1
 1110 -122 l 1,103,-1
 1110 -162 l 1,104,-1
 940 -162 l 1,105,-1
 892 -168 l 1,106,107
 872 -176 872 -176 855 -195 c 128,-1,108
 838 -214 838 -214 828 -240 c 1,109,-1
 820 -290 l 1,110,111
 820 -354 820 -354 792 -398 c 0,112,113
 766 -446 766 -446 710 -486 c 0,114,115
 686 -502 686 -502 652 -516 c 128,-1,116
 618 -530 618 -530 582 -540 c 0,0,1
820 36 m 1,117,-1
 1050 36 l 2,118,119
 1080 36 1080 36 1106 49 c 128,-1,120
 1132 62 1132 62 1154 91 c 128,-1,121
 1176 120 1176 120 1188 157 c 128,-1,122
 1200 194 1200 194 1200 236 c 0,123,124
 1200 328 1200 328 1174 412 c 0,125,126
 1150 500 1150 500 1100 580 c 1,127,-1
 1050 648 l 2,128,129
 1032 670 1032 670 1026 676 c 0,130,131
 1006 692 1006 692 996 700 c 0,132,133
 974 716 974 716 945 731 c 128,-1,134
 916 746 916 746 890 746 c 0,135,136
 878 746 878 746 862 738 c 2,137,-1
 840 720 l 1,138,-1
 824 690 l 1,139,-1
 820 656 l 1,140,-1
 820 36 l 1,117,-1
EndSplineSet
EndChar

StartChar: tm_va
Encoding: 2997 2997 80
Width: 1432
GlyphClass: 2
Flags: W
LayerCount: 2
Fore
SplineSet
488 146 m 0,0,1
 474 102 474 102 443 62 c 128,-1,2
 412 22 412 22 370 1 c 128,-1,3
 328 -20 328 -20 284 -20 c 0,4,5
 266 -20 266 -20 248 -20 c 1,6,7
 228 -14 228 -14 209 -10 c 128,-1,8
 190 -6 190 -6 161 9 c 128,-1,9
 132 24 132 24 107 44 c 128,-1,10
 82 64 82 64 66 90 c 0,11,12
 26 142 26 142 7 219 c 128,-1,13
 -12 296 -12 296 -12 396 c 0,14,15
 -12 498 -12 498 14 575 c 128,-1,16
 40 652 40 652 97 715 c 128,-1,17
 154 778 154 778 227 807 c 128,-1,18
 300 836 300 836 394 836 c 0,19,20
 490 836 490 836 567 803 c 128,-1,21
 644 770 644 770 712 698 c 1,22,23
 778 634 778 634 811 547 c 128,-1,24
 844 460 844 460 844 366 c 0,25,26
 844 264 844 264 810 182 c 0,27,28
 780 102 780 102 714 36 c 1,29,-1
 984 36 l 2,30,31
 1006 36 1006 36 1024 45 c 128,-1,32
 1042 54 1042 54 1056 72 c 1,33,-1
 1076 114 l 1,34,-1
 1084 166 l 1,35,-1
 1084 656 l 1,36,-1
 1004 646 l 1,37,-1
 1004 696 l 1,38,-1
 1056 708 l 2,39,40
 1082 718 1082 718 1100 735 c 128,-1,41
 1118 752 1118 752 1129 770 c 128,-1,42
 1140 788 1140 788 1144 816 c 1,43,-1
 1264 816 l 1,44,-1
 1264 146 l 1,45,-1
 1270 104 l 1,46,47
 1278 84 1278 84 1293 68 c 128,-1,48
 1308 52 1308 52 1326 44 c 1,49,-1
 1364 36 l 1,50,-1
 1364 -2 l 1,51,-1
 464 -2 l 1,52,-1
 464 36 l 1,53,54
 516 66 516 66 548 99 c 128,-1,55
 580 132 580 132 612 186 c 0,56,57
 634 230 634 230 650 288 c 0,58,59
 656 316 656 316 660 345 c 128,-1,60
 664 374 664 374 664 406 c 0,61,62
 664 478 664 478 643 533 c 128,-1,63
 622 588 622 588 578 638 c 128,-1,64
 534 688 534 688 480 712 c 128,-1,65
 426 736 426 736 364 736 c 0,66,67
 288 736 288 736 230 711 c 128,-1,68
 172 686 172 686 131 638 c 128,-1,69
 90 590 90 590 64 514 c 1,70,71
 44 438 44 438 44 356 c 0,72,73
 44 304 44 304 51 266 c 128,-1,74
 58 228 58 228 75 191 c 128,-1,75
 92 154 92 154 114 131 c 128,-1,76
 136 108 136 108 164 96 c 1,77,-1
 142 182 l 1,78,-1
 134 276 l 1,79,80
 134 324 134 324 146 368 c 128,-1,81
 158 412 158 412 186 446 c 0,82,83
 208 478 208 478 241 497 c 128,-1,84
 274 516 274 516 314 516 c 256,85,86
 354 516 354 516 386 497 c 128,-1,87
 418 478 418 478 447 441 c 128,-1,88
 476 404 476 404 490 354 c 128,-1,89
 504 304 504 304 504 256 c 0,90,91
 504 234 504 234 503 209 c 128,-1,92
 502 184 502 184 488 146 c 0,0,1
286 102 m 0,93,94
 302 116 302 116 316 142 c 128,-1,95
 330 168 330 168 336 198 c 2,96,-1
 344 266 l 1,97,-1
 338 318 l 1,98,-1
 320 364 l 2,99,100
 308 384 308 384 297 393 c 128,-1,101
 286 402 286 402 264 406 c 0,102,103
 244 406 244 406 232 396 c 2,104,-1
 206 368 l 2,105,106
 194 350 194 350 188 326 c 1,107,-1
 184 276 l 1,108,109
 184 210 184 210 199 161 c 128,-1,110
 214 112 214 112 244 76 c 1,111,112
 270 86 270 86 286 102 c 0,93,94
EndSplineSet
EndChar

StartChar: tm_ssa
Encoding: 2999 2999 81
Width: 1686
GlyphClass: 2
Flags: W
LayerCount: 2
Fore
SplineSet
1026 -562 m 1,0,-1
 1026 -522 l 1,1,2
 1044 -522 1044 -522 1056 -512 c 1,3,4
 1070 -506 1070 -506 1082 -492 c 128,-1,5
 1094 -478 1094 -478 1100 -460 c 128,-1,6
 1106 -442 1106 -442 1106 -420 c 2,7,-1
 1106 -2 l 1,8,-1
 526 -2 l 1,9,-1
 526 36 l 1,10,11
 560 64 560 64 590 106 c 128,-1,12
 620 148 620 148 638 194 c 0,13,14
 648 218 648 218 652 232 c 128,-1,15
 656 246 656 246 666 292 c 0,16,17
 674 344 674 344 675 368 c 128,-1,18
 676 392 676 392 676 406 c 0,19,20
 676 482 676 482 654 543 c 128,-1,21
 632 604 632 604 586 654 c 1,22,23
 546 704 546 704 487 730 c 128,-1,24
 428 756 428 756 366 756 c 0,25,26
 298 756 298 756 243 730 c 128,-1,27
 188 704 188 704 139 649 c 128,-1,28
 90 594 90 594 68 532 c 128,-1,29
 46 470 46 470 46 396 c 0,30,31
 46 362 46 362 48 328 c 128,-1,32
 50 294 50 294 59 246 c 128,-1,33
 68 198 68 198 88 154 c 128,-1,34
 108 110 108 110 136 78 c 1,35,36
 162 56 162 56 196 46 c 1,37,38
 160 106 160 106 142 168 c 0,39,40
 134 202 134 202 130 230 c 128,-1,41
 126 258 126 258 126 296 c 0,42,43
 126 346 126 346 139 386 c 128,-1,44
 152 426 152 426 180 459 c 128,-1,45
 208 492 208 492 244 509 c 128,-1,46
 280 526 280 526 316 526 c 0,47,48
 358 526 358 526 397 508 c 128,-1,49
 436 490 436 490 466 457 c 128,-1,50
 496 424 496 424 511 380 c 128,-1,51
 526 336 526 336 526 286 c 256,52,53
 526 236 526 236 524 215 c 128,-1,54
 522 194 522 194 508 149 c 128,-1,55
 494 104 494 104 460 60 c 0,56,57
 430 16 430 16 384 0 c 0,58,59
 338 -20 338 -20 286 -20 c 0,60,61
 220 -20 220 -20 165 5 c 128,-1,62
 110 30 110 30 68 86 c 1,63,-1
 32 144 l 1,64,-1
 6 212 l 1,65,-1
 -4 286 l 1,66,-1
 -10 376 l 1,67,68
 -10 486 -10 486 15 573 c 128,-1,69
 40 660 40 660 98 724 c 0,70,71
 124 754 124 754 159 779 c 128,-1,72
 194 804 194 804 232 822 c 1,73,-1
 312 846 l 2,74,75
 348 854 348 854 367 855 c 128,-1,76
 386 856 386 856 396 856 c 0,77,78
 444 856 444 856 488 848 c 128,-1,79
 532 840 532 840 572 822 c 0,80,81
 656 788 656 788 720 724 c 128,-1,82
 784 660 784 660 820 576 c 128,-1,83
 856 492 856 492 856 396 c 0,84,85
 856 362 856 362 856 330 c 1,86,87
 850 300 850 300 846 267 c 128,-1,88
 842 234 842 234 828 190 c 0,89,90
 822 170 822 170 814 149 c 128,-1,91
 806 128 806 128 792 102 c 128,-1,92
 778 76 778 76 746 36 c 1,93,-1
 1106 36 l 1,94,-1
 1106 376 l 1,95,96
 1058 376 1058 376 1021 393 c 128,-1,97
 984 410 984 410 950 444 c 0,98,99
 920 478 920 478 903 519 c 128,-1,100
 886 560 886 560 886 606 c 0,101,102
 886 654 886 654 901 696 c 128,-1,103
 916 738 916 738 946 769 c 128,-1,104
 976 800 976 800 1013 818 c 128,-1,105
 1050 836 1050 836 1096 836 c 0,106,107
 1124 836 1124 836 1135 834 c 128,-1,108
 1146 832 1146 832 1170 820 c 0,109,110
 1204 808 1204 808 1231 777 c 128,-1,111
 1258 746 1258 746 1272 710 c 0,112,113
 1278 692 1278 692 1282 675 c 128,-1,114
 1286 658 1286 658 1286 636 c 2,115,-1
 1286 416 l 1,116,117
 1358 416 1358 416 1416 397 c 128,-1,118
 1474 378 1474 378 1517 342 c 128,-1,119
 1560 306 1560 306 1583 256 c 128,-1,120
 1606 206 1606 206 1606 146 c 0,121,122
 1606 114 1606 114 1599 89 c 128,-1,123
 1592 64 1592 64 1576 43 c 128,-1,124
 1560 22 1560 22 1538 10 c 0,125,126
 1526 4 1526 4 1496 0 c 2,127,-1
 1286 -2 l 1,128,-1
 1286 -442 l 1,129,-1
 1290 -470 l 1,130,-1
 1302 -496 l 1,131,-1
 1322 -514 l 1,132,-1
 1346 -520 l 1,133,-1
 1346 -562 l 1,134,-1
 1026 -562 l 1,0,-1
1286 36 m 1,135,-1
 1476 36 l 2,136,137
 1494 36 1494 36 1510 43 c 128,-1,138
 1526 50 1526 50 1539 67 c 128,-1,139
 1552 84 1552 84 1558 102 c 2,140,-1
 1566 146 l 1,141,142
 1566 198 1566 198 1544 236 c 1,143,144
 1526 276 1526 276 1485 309 c 128,-1,145
 1444 342 1444 342 1392 359 c 128,-1,146
 1340 376 1340 376 1286 376 c 1,147,-1
 1286 36 l 1,135,-1
192 152 m 0,148,149
 210 98 210 98 246 56 c 1,150,151
 268 64 268 64 290 86 c 128,-1,152
 312 108 312 108 326 140 c 0,153,154
 332 156 332 156 337 173 c 128,-1,155
 342 190 342 190 348 212 c 2,156,-1
 356 296 l 2,157,158
 356 328 356 328 348 350 c 2,159,-1
 330 396 l 1,160,161
 318 414 318 414 303 423 c 128,-1,162
 288 432 288 432 266 436 c 0,163,164
 250 436 250 436 234 424 c 128,-1,165
 218 412 218 412 202 388 c 1,166,-1
 182 336 l 1,167,-1
 176 276 l 1,168,169
 176 206 176 206 192 152 c 0,148,149
938 536 m 0,170,171
 950 506 950 506 978 478 c 0,172,173
 1000 456 1000 456 1036 438 c 0,174,175
 1066 426 1066 426 1106 426 c 1,176,-1
 1106 676 l 1,177,-1
 1100 694 l 2,178,179
 1096 704 1096 704 1086 712 c 2,180,-1
 1064 722 l 1,181,-1
 1036 726 l 2,182,183
 1010 726 1010 726 993 718 c 128,-1,184
 976 710 976 710 959 690 c 128,-1,185
 942 670 942 670 934 650 c 1,186,-1
 926 606 l 1,187,188
 926 572 926 572 938 536 c 0,170,171
EndSplineSet
EndChar

StartChar: tm_sa
Encoding: 3000 3000 82
Width: 1576
GlyphClass: 2
Flags: W
LayerCount: 2
Fore
SplineSet
364 6 m 0,0,1
 320 -10 320 -10 262 -10 c 0,2,3
 200 -10 200 -10 146 14 c 0,4,5
 100 38 100 38 58 94 c 0,6,7
 24 142 24 142 2 220 c 0,8,9
 -6 258 -6 258 -10 295 c 128,-1,10
 -14 332 -14 332 -14 386 c 0,11,12
 -14 496 -14 496 13 574 c 128,-1,13
 40 652 40 652 98 714 c 128,-1,14
 156 776 156 776 231 806 c 128,-1,15
 306 836 306 836 402 836 c 0,16,17
 430 836 430 836 460 834 c 128,-1,18
 490 832 490 832 529 825 c 128,-1,19
 568 818 568 818 615 798 c 128,-1,20
 662 778 662 778 697 749 c 128,-1,21
 732 720 732 720 752 686 c 1,22,23
 768 720 768 720 788 748 c 128,-1,24
 808 776 808 776 833 795 c 128,-1,25
 858 814 858 814 881 823 c 128,-1,26
 904 832 904 832 942 836 c 1,27,28
 986 836 986 836 1018 820 c 1,29,30
 1054 808 1054 808 1083 778 c 128,-1,31
 1112 748 1112 748 1124 718 c 128,-1,32
 1136 688 1136 688 1139 674 c 128,-1,33
 1142 660 1142 660 1142 636 c 2,34,-1
 1142 156 l 2,35,36
 1142 136 1142 136 1149 119 c 128,-1,37
 1156 102 1156 102 1176 84 c 1,38,-1
 1214 62 l 1,39,-1
 1262 56 l 1,40,41
 1302 56 1302 56 1334 81 c 128,-1,42
 1366 106 1366 106 1395 160 c 128,-1,43
 1424 214 1424 214 1438 278 c 0,44,45
 1444 310 1444 310 1448 344 c 128,-1,46
 1452 378 1452 378 1452 416 c 0,47,48
 1452 466 1452 466 1438 508 c 0,49,50
 1426 554 1426 554 1402 591 c 128,-1,51
 1378 628 1378 628 1340 664 c 0,52,53
 1324 680 1324 680 1308 690 c 128,-1,54
 1292 700 1292 700 1262 716 c 0,55,56
 1232 736 1232 736 1218 754 c 128,-1,57
 1204 772 1204 772 1202 796 c 1,58,-1
 1208 828 l 1,59,-1
 1228 854 l 1,60,-1
 1256 870 l 1,61,-1
 1292 876 l 1,62,63
 1334 876 1334 876 1370 846 c 128,-1,64
 1406 816 1406 816 1440 754 c 0,65,66
 1468 700 1468 700 1485 621 c 128,-1,67
 1502 542 1502 542 1502 456 c 0,68,69
 1502 344 1502 344 1483 259 c 128,-1,70
 1464 174 1464 174 1428 109 c 128,-1,71
 1392 44 1392 44 1341 12 c 128,-1,72
 1290 -20 1290 -20 1222 -20 c 0,73,74
 1184 -20 1184 -20 1168 -18 c 128,-1,75
 1152 -16 1152 -16 1122 -4 c 1,76,77
 1074 8 1074 8 1038 42 c 0,78,79
 1004 70 1004 70 980 112 c 1,80,81
 962 152 962 152 962 196 c 2,82,-1
 962 616 l 1,83,-1
 956 660 l 1,84,-1
 938 700 l 2,85,86
 926 718 926 718 915 725 c 128,-1,87
 904 732 904 732 882 736 c 0,88,89
 860 736 860 736 843 727 c 128,-1,90
 826 718 826 718 810 696 c 1,91,-1
 788 650 l 1,92,-1
 782 596 l 1,93,-1
 782 156 l 1,94,-1
 788 108 l 1,95,-1
 806 70 l 2,96,97
 818 52 818 52 832 44 c 1,98,-1
 862 36 l 1,99,-1
 862 -2 l 1,100,-1
 522 -2 l 1,101,-1
 522 36 l 1,102,103
 538 36 538 36 551 43 c 128,-1,104
 564 50 564 50 578 70 c 1,105,-1
 596 108 l 1,106,-1
 602 156 l 1,107,-1
 602 496 l 2,108,109
 602 550 602 550 583 593 c 128,-1,110
 564 636 564 636 526 673 c 128,-1,111
 488 710 488 710 439 728 c 128,-1,112
 390 746 390 746 332 746 c 0,113,114
 264 746 264 746 211 721 c 128,-1,115
 158 696 158 696 115 647 c 128,-1,116
 72 598 72 598 44 530 c 0,117,118
 22 468 22 468 22 396 c 0,119,120
 22 368 22 368 24 338 c 128,-1,121
 26 308 26 308 35 266 c 128,-1,122
 44 224 44 224 63 184 c 128,-1,123
 82 144 82 144 112 112 c 1,124,125
 140 88 140 88 172 76 c 1,126,127
 162 94 162 94 150 119 c 128,-1,128
 138 144 138 144 126 180 c 0,129,130
 120 208 120 208 116 232 c 128,-1,131
 112 256 112 256 112 286 c 0,132,133
 112 336 112 336 125 377 c 128,-1,134
 138 418 138 418 170 450 c 1,135,136
 196 482 196 482 234 499 c 128,-1,137
 272 516 272 516 312 516 c 0,138,139
 350 516 350 516 383 499 c 128,-1,140
 416 482 416 482 445 445 c 128,-1,141
 474 408 474 408 488 366 c 0,142,143
 494 342 494 342 498 322 c 128,-1,144
 502 302 502 302 502 276 c 0,145,146
 502 232 502 232 500 211 c 128,-1,147
 498 190 498 190 485 146 c 128,-1,148
 472 102 472 102 440 64 c 128,-1,149
 408 26 408 26 364 6 c 0,0,1
182 162 m 0,150,151
 200 112 200 112 242 76 c 1,152,153
 258 78 258 78 274 94 c 1,154,-1
 300 136 l 1,155,-1
 316 198 l 1,156,-1
 322 276 l 1,157,-1
 316 334 l 2,158,159
 312 364 312 364 302 384 c 128,-1,160
 292 404 292 404 280 415 c 128,-1,161
 268 426 268 426 252 426 c 0,162,163
 232 426 232 426 218 418 c 128,-1,164
 204 410 204 410 190 390 c 128,-1,165
 176 370 176 370 168 340 c 1,166,-1
 162 286 l 1,167,168
 162 214 162 214 182 162 c 0,150,151
EndSplineSet
EndChar

StartChar: tm_ha
Encoding: 3001 3001 83
Width: 1994
GlyphClass: 2
Flags: W
LayerCount: 2
Fore
SplineSet
250 -492 m 0,0,1
 240 -514 240 -514 222 -529 c 128,-1,2
 204 -544 204 -544 180 -552 c 1,3,-1
 130 -560 l 1,4,5
 90 -560 90 -560 64 -544 c 1,6,7
 34 -532 34 -532 10 -502 c 0,8,9
 0 -488 0 -488 -7 -475 c 128,-1,10
 -14 -462 -14 -462 -25 -432 c 128,-1,11
 -36 -402 -36 -402 -36 -360 c 0,12,13
 -36 -316 -36 -316 -19 -278 c 128,-1,14
 -2 -240 -2 -240 37 -206 c 128,-1,15
 76 -172 76 -172 122 -156 c 128,-1,16
 168 -140 168 -140 220 -140 c 2,17,-1
 1380 -142 l 2,18,19
 1452 -142 1452 -142 1511 -102 c 128,-1,20
 1570 -62 1570 -62 1622 20 c 0,21,22
 1670 102 1670 102 1695 205 c 128,-1,23
 1720 308 1720 308 1720 416 c 0,24,25
 1720 478 1720 478 1708 533 c 128,-1,26
 1696 588 1696 588 1671 639 c 128,-1,27
 1646 690 1646 690 1619 713 c 128,-1,28
 1592 736 1592 736 1560 736 c 0,29,30
 1534 736 1534 736 1517 728 c 128,-1,31
 1500 720 1500 720 1483 700 c 128,-1,32
 1466 680 1466 680 1458 660 c 1,33,-1
 1450 616 l 1,34,-1
 1450 146 l 2,35,36
 1450 116 1450 116 1454 102 c 2,37,-1
 1470 66 l 1,38,-1
 1492 44 l 1,39,-1
 1520 36 l 1,40,-1
 1520 -2 l 1,41,-1
 1200 -2 l 1,42,-1
 1200 36 l 1,43,44
 1214 36 1214 36 1226 43 c 128,-1,45
 1238 50 1238 50 1250 70 c 1,46,-1
 1264 108 l 1,47,-1
 1270 156 l 1,48,-1
 1270 626 l 1,49,-1
 1264 668 l 1,50,-1
 1246 704 l 1,51,-1
 1220 728 l 1,52,-1
 1190 736 l 1,53,54
 1166 736 1166 736 1147 729 c 128,-1,55
 1128 722 1128 722 1112 706 c 0,56,57
 1096 694 1096 694 1088 674 c 2,58,-1
 1080 636 l 1,59,-1
 1080 146 l 2,60,61
 1080 116 1080 116 1084 102 c 2,62,-1
 1100 66 l 1,63,-1
 1122 44 l 1,64,-1
 1150 36 l 1,65,-1
 1150 -2 l 1,66,-1
 530 -2 l 1,67,-1
 530 36 l 1,68,69
 566 56 566 56 600 92 c 0,70,71
 630 128 630 128 654 176 c 0,72,73
 662 196 662 196 670 219 c 128,-1,74
 678 242 678 242 689 287 c 128,-1,75
 700 332 700 332 700 396 c 0,76,77
 700 474 700 474 675 535 c 128,-1,78
 650 596 650 596 601 649 c 128,-1,79
 552 702 552 702 494 729 c 128,-1,80
 436 756 436 756 370 756 c 0,81,82
 298 756 298 756 241 731 c 128,-1,83
 184 706 184 706 138 658 c 0,84,85
 96 610 96 610 72 542 c 0,86,87
 62 512 62 512 56 476 c 128,-1,88
 50 440 50 440 50 396 c 0,89,90
 50 328 50 328 58 292 c 128,-1,91
 66 256 66 256 74 232 c 128,-1,92
 82 208 82 208 94 182 c 0,93,94
 116 134 116 134 145 104 c 128,-1,95
 174 74 174 74 210 56 c 1,96,97
 188 96 188 96 172 160 c 0,98,99
 160 220 160 220 160 306 c 0,100,101
 160 348 160 348 172 387 c 128,-1,102
 184 426 184 426 212 456 c 0,103,104
 236 486 236 486 269 501 c 128,-1,105
 302 516 302 516 340 516 c 0,106,107
 380 516 380 516 417 497 c 128,-1,108
 454 478 454 478 482 444 c 128,-1,109
 510 410 510 410 524 368 c 0,110,111
 532 346 532 346 536 326 c 128,-1,112
 540 306 540 306 540 276 c 0,113,114
 540 252 540 252 539 224 c 128,-1,115
 538 196 538 196 524 156 c 1,116,117
 512 102 512 102 482 59 c 128,-1,118
 452 16 452 16 410 -2 c 128,-1,119
 368 -20 368 -20 320 -20 c 0,120,121
 250 -20 250 -20 194 9 c 128,-1,122
 138 38 138 38 90 98 c 1,123,124
 50 156 50 156 22 236 c 0,125,126
 12 272 12 272 6 315 c 128,-1,127
 0 358 0 358 0 406 c 0,128,129
 0 500 0 500 30 579 c 128,-1,130
 60 658 60 658 120 715 c 128,-1,131
 180 772 180 772 260 804 c 128,-1,132
 340 836 340 836 440 836 c 0,133,134
 532 836 532 836 608 806 c 128,-1,135
 684 776 684 776 750 710 c 128,-1,136
 816 644 816 644 848 566 c 0,137,138
 864 524 864 524 872 485 c 128,-1,139
 880 446 880 446 880 396 c 0,140,141
 880 290 880 290 851 200 c 128,-1,142
 822 110 822 110 760 36 c 1,143,-1
 930 36 l 2,144,145
 954 36 954 36 972 43 c 128,-1,146
 990 50 990 50 1007 67 c 128,-1,147
 1024 84 1024 84 1032 102 c 1,148,-1
 1040 146 l 1,149,-1
 1040 656 l 1,150,-1
 960 656 l 1,151,-1
 960 696 l 1,152,153
 976 696 976 696 989 703 c 128,-1,154
 1002 710 1002 710 1016 730 c 1,155,-1
 1034 768 l 1,156,-1
 1040 816 l 1,157,-1
 1090 816 l 1,158,-1
 1080 756 l 1,159,160
 1104 786 1104 786 1143 806 c 128,-1,161
 1182 826 1182 826 1230 826 c 0,162,163
 1244 826 1244 826 1255 826 c 128,-1,164
 1266 826 1266 826 1290 818 c 0,165,166
 1322 812 1322 812 1344 796 c 1,167,168
 1370 784 1370 784 1388 764 c 128,-1,169
 1406 744 1406 744 1420 716 c 1,170,-1
 1456 766 l 1,171,-1
 1504 804 l 2,172,173
 1530 820 1530 820 1556 828 c 1,174,-1
 1610 836 l 1,175,176
 1644 836 1644 836 1672 830 c 128,-1,177
 1700 824 1700 824 1728 808 c 0,178,179
 1780 782 1780 782 1820 726 c 128,-1,180
 1860 670 1860 670 1880 596 c 0,181,182
 1888 562 1888 562 1894 520 c 128,-1,183
 1900 478 1900 478 1900 436 c 0,184,185
 1900 312 1900 312 1870 201 c 128,-1,186
 1840 90 1840 90 1780 0 c 128,-1,187
 1720 -90 1720 -90 1646 -135 c 128,-1,188
 1572 -180 1572 -180 1490 -180 c 2,189,-1
 270 -182 l 1,190,-1
 198 -188 l 2,191,192
 162 -194 162 -194 135 -210 c 128,-1,193
 108 -226 108 -226 94 -242 c 0,194,195
 80 -264 80 -264 80 -280 c 256,196,197
 80 -296 80 -296 85 -306 c 128,-1,198
 90 -316 90 -316 100 -324 c 2,199,-1
 122 -336 l 1,200,-1
 150 -340 l 2,201,202
 174 -340 174 -340 192 -347 c 128,-1,203
 210 -354 210 -354 227 -371 c 128,-1,204
 244 -388 244 -388 252 -406 c 1,205,-1
 260 -450 l 2,206,207
 260 -472 260 -472 250 -492 c 0,0,1
304 70 m 256,208,209
 326 88 326 88 339 115 c 128,-1,210
 352 142 352 142 362 186 c 1,211,-1
 370 266 l 1,212,-1
 364 332 l 2,213,214
 360 354 360 354 357 363 c 128,-1,215
 354 372 354 372 346 392 c 128,-1,216
 338 412 338 412 326 422 c 0,217,218
 316 434 316 434 300 436 c 0,219,220
 282 436 282 436 262 426 c 128,-1,221
 242 416 242 416 228 392 c 2,222,-1
 206 344 l 1,223,224
 200 320 200 320 200 286 c 0,225,226
 200 198 200 198 215 139 c 128,-1,227
 230 80 230 80 260 46 c 1,228,229
 282 52 282 52 304 70 c 256,208,209
EndSplineSet
EndChar

StartChar: tm_aakaar
Encoding: 3006 3006 84
Width: 836
GlyphClass: 2
Flags: W
LayerCount: 2
Fore
SplineSet
-20 -2 m 1,0,-1
 -20 36 l 1,1,2
 -2 40 -2 40 10 48 c 2,3,-1
 36 72 l 1,4,-1
 52 106 l 1,5,-1
 58 146 l 1,6,-1
 58 676 l 1,7,-1
 0 676 l 1,8,-1
 0 726 l 1,9,-1
 26 736 l 2,10,11
 38 742 38 742 48 758 c 2,12,-1
 62 784 l 1,13,-1
 68 816 l 1,14,-1
 108 816 l 1,15,-1
 108 746 l 1,16,17
 132 790 132 790 175 813 c 128,-1,18
 218 836 218 836 278 836 c 0,19,20
 312 836 312 836 340 826 c 1,21,22
 370 820 370 820 397 801 c 128,-1,23
 424 782 424 782 444 758 c 2,24,-1
 478 706 l 1,25,26
 488 734 488 734 506 758 c 128,-1,27
 524 782 524 782 552 800 c 128,-1,28
 580 818 580 818 607 825 c 128,-1,29
 634 832 634 832 644 834 c 128,-1,30
 654 836 654 836 678 836 c 0,31,32
 704 836 704 836 722 828 c 0,33,34
 744 822 744 822 762 806 c 0,35,36
 780 794 780 794 787 778 c 128,-1,37
 794 762 794 762 798 736 c 0,38,39
 798 716 798 716 790 700 c 2,40,-1
 772 672 l 1,41,-1
 742 652 l 1,42,-1
 708 646 l 2,43,44
 690 646 690 646 674 656 c 1,45,-1
 648 686 l 1,46,47
 668 686 668 686 676 694 c 128,-1,48
 684 702 684 702 688 726 c 0,49,50
 688 744 688 744 677 753 c 128,-1,51
 666 762 666 762 638 766 c 0,52,53
 616 766 616 766 590 754 c 128,-1,54
 564 742 564 742 545 717 c 128,-1,55
 526 692 526 692 516 666 c 1,56,-1
 508 606 l 1,57,-1
 508 156 l 1,58,-1
 514 110 l 1,59,-1
 534 72 l 2,60,61
 546 56 546 56 562 44 c 1,62,-1
 598 36 l 1,63,-1
 598 -2 l 1,64,-1
 238 -2 l 1,65,-1
 238 46 l 1,66,67
 260 50 260 50 276 60 c 2,68,-1
 304 84 l 1,69,70
 316 100 316 100 322 118 c 2,71,-1
 328 156 l 1,72,-1
 328 596 l 2,73,74
 328 624 328 624 321 646 c 128,-1,75
 314 668 314 668 299 685 c 128,-1,76
 284 702 284 702 260 716 c 0,77,78
 248 722 248 722 218 726 c 1,79,80
 182 726 182 726 154 708 c 128,-1,81
 126 690 126 690 108 656 c 1,82,-1
 108 146 l 2,83,84
 108 120 108 120 113 103 c 128,-1,85
 118 86 118 86 128 74 c 2,86,-1
 150 52 l 1,87,88
 162 46 162 46 178 46 c 1,89,-1
 178 -2 l 1,90,-1
 -20 -2 l 1,0,-1
EndSplineSet
EndChar

StartChar: tm_ikaar
Encoding: 3007 3007 85
Width: 476
GlyphClass: 2
Flags: W
LayerCount: 2
Fore
SplineSet
232 18 m 1,0,-1
 90 18 l 1,1,-1
 90 920 l 2,2,3
 90 1226 90 1226 -96 1226 c 2,4,-1
 -154 1226 l 2,5,6
 -230 1226 -230 1226 -284 1166 c 128,-1,7
 -338 1106 -338 1106 -338 1022 c 2,8,-1
 -338 980 l 2,9,10
 -338 914 -338 914 -298 876 c 1,11,-1
 -442 876 l 1,12,13
 -458 892 -458 892 -470 922 c 1,14,-1
 -482 980 l 1,15,-1
 -482 1022 l 2,16,17
 -482 1152 -482 1152 -394 1240 c 128,-1,18
 -306 1328 -306 1328 -154 1328 c 2,19,-1
 -96 1328 l 2,20,21
 54 1328 54 1328 143 1212 c 128,-1,22
 232 1096 232 1096 232 920 c 2,23,-1
 232 18 l 1,0,-1
EndSplineSet
EndChar

